<svg width="128" height="133" viewBox="0 0 128 133" fill="none" xmlns="http://www.w3.org/2000/svg">
<g clip-path="url(#clip0_2_2806)">
<g style="mix-blend-mode:multiply">
<path d="M10.8191 126.478C14.3824 127.144 50.584 131.72 61.9242 132.736C78.7624 134.244 103.385 128.892 113.001 126.751C122.614 124.608 115.696 124.035 109.631 123.137C103.569 122.24 58.0023 121.744 58.0023 121.744C58.0023 121.744 7.97328 122.707 6.86365 123.947C5.75163 125.186 7.26063 125.812 10.8191 126.475V126.478Z" fill="#E7EBEE"/>
</g>
<g style="mix-blend-mode:multiply">
<path d="M12.3831 124.496C16.3553 125.284 42.4938 129.151 52.5163 130.15C62.5412 131.15 89.6698 128.026 98.1881 126.444C106.706 124.862 101.022 124.131 95.2705 123.391C89.6913 122.672 53.5685 121.794 53.5685 121.794C53.5685 121.794 5.56748 121.034 4.57025 122.039C3.57062 123.043 8.40852 123.707 12.3855 124.496H12.3831Z" fill="#E7EBEE"/>
</g>
<path d="M126.907 117.535C126.338 117.003 125.525 116.904 124.845 117.204C124.456 115.78 123.267 114.709 121.823 114.507C122.27 113.865 122.528 113.074 122.507 112.221C122.447 110.152 120.766 108.517 118.75 108.575C116.846 108.628 115.328 110.167 115.21 112.079C114.797 111.928 114.352 111.847 113.883 111.859C111.867 111.916 110.279 113.64 110.337 115.711C110.349 116.135 110.432 116.538 110.569 116.916C110.248 117.489 110.074 118.158 110.093 118.865C110.152 120.934 111.834 122.568 113.85 122.511C114.486 122.492 115.074 122.307 115.586 122C115.617 122.031 115.643 122.067 115.674 122.099C116.602 122.962 118.061 122.897 118.931 121.952C119.101 121.768 119.23 121.564 119.333 121.348C119.936 121.756 120.663 121.986 121.438 121.964C121.897 121.95 122.33 121.849 122.729 121.679C122.789 121.936 122.918 122.178 123.121 122.369C123.681 122.89 124.568 122.846 125.099 122.274C125.46 121.88 125.565 121.344 125.417 120.874C125.979 120.91 126.555 120.699 126.971 120.248C127.701 119.462 127.672 118.244 126.907 117.53V117.535Z" fill="#8BC444"/>
<path d="M118.049 123.489C118.027 123.767 118.02 123.985 118.018 124.194H120.335C122.191 122.782 124.209 120.536 124.209 120.536C123.736 121.058 121.734 122.324 121.335 122.727C121.151 122.619 121.543 121.471 121.569 120.608C121.569 120.608 120.663 122.209 120.943 123.024C120.534 123.323 119.79 123.769 119.302 123.999C119.197 122.679 119.113 121.765 119.049 121.135C119.032 120.977 120.591 118.184 120.51 118.287C119.869 119.098 119.575 119.246 119.034 120.203C118.862 120.509 118.448 117.753 118.448 117.753C118.228 117.93 118.479 119.814 118.396 120.234C118.343 120.5 118.314 120.821 118.295 121.164C118.269 121.547 118.214 122.463 118.166 122.849C117.757 122.755 116.966 121.835 115.98 120.04C115.98 120.04 116.741 123.108 118.049 123.489Z" fill="#534940"/>
<path d="M117.752 124.194H118.795C117.614 123.64 113.809 122.664 112.424 121.516C112.424 121.516 112.97 122.904 117.752 124.194Z" fill="#534940"/>
<path opacity="0.5" d="M119.969 110.862C119.969 111.236 119.666 111.542 119.29 111.542C118.915 111.542 118.611 111.236 118.611 110.862C118.611 110.488 118.915 110.179 119.29 110.179C119.666 110.179 119.969 110.485 119.969 110.862Z" fill="#F9FD6F"/>
<path opacity="0.5" d="M118.372 110.541C118.372 110.718 118.228 110.862 118.051 110.862C117.874 110.862 117.731 110.718 117.731 110.541C117.731 110.363 117.874 110.219 118.051 110.219C118.228 110.219 118.372 110.363 118.372 110.541Z" fill="#F9FD6F"/>
<g opacity="0.5">
<path d="M113.845 122.513C114.481 122.494 115.069 122.31 115.581 122.003C115.612 122.034 115.638 122.07 115.67 122.101C116.597 122.964 118.056 122.899 118.927 121.955C119.096 121.77 119.226 121.567 119.328 121.351C119.931 121.758 120.658 121.988 121.433 121.967C121.892 121.952 122.325 121.852 122.724 121.682C122.784 121.938 122.913 122.18 123.116 122.372C123.676 122.892 124.563 122.849 125.094 122.276C125.455 121.883 125.561 121.346 125.412 120.876C125.974 120.912 126.551 120.701 126.967 120.251C127.593 119.575 127.658 118.582 127.182 117.863C126.943 118.441 126.598 119.153 126.237 119.45C125.584 119.992 124.867 118.776 124.202 118.122C123.54 117.465 123.234 118.187 122.32 118.652C121.407 119.117 120.505 118.28 119.12 117.842C117.733 117.401 115.332 119.366 114.548 119.63C113.766 119.893 112.589 120.608 111.152 119.953C110.695 119.745 110.358 119.455 110.109 119.155C110.31 121.082 111.925 122.559 113.842 122.506L113.845 122.513Z" fill="#34651C"/>
<path d="M121.952 117.612C121.952 118.045 121.603 118.395 121.17 118.395C120.737 118.395 120.385 118.045 120.385 117.612C120.385 117.178 120.737 116.828 121.17 116.828C121.603 116.828 121.952 117.178 121.952 117.612Z" fill="#34651C"/>
<path d="M122.906 117.377C122.906 117.576 122.743 117.736 122.545 117.736C122.346 117.736 122.186 117.576 122.186 117.377C122.186 117.178 122.346 117.017 122.545 117.017C122.743 117.017 122.906 117.178 122.906 117.377Z" fill="#34651C"/>
</g>
<path opacity="0.5" d="M118.747 108.577C116.844 108.63 115.323 110.169 115.208 112.082C114.794 111.931 114.347 111.849 113.881 111.861C112.479 111.9 111.286 112.748 110.71 113.954C112.286 112.777 114.746 113.112 115.945 113.374C116.04 113.395 116.141 113.352 116.191 113.266C116.241 113.18 116.232 113.072 116.167 112.997L115.796 112.566C115.681 112.432 115.665 112.24 115.756 112.087C116.284 111.197 118.271 108.446 121.83 110.155C121.148 109.169 120.015 108.541 118.75 108.575L118.747 108.577Z" fill="#F9FD6F"/>
<path opacity="0.5" d="M121.828 114.498C119.812 114.714 118.374 115.835 118.374 115.835C118.374 115.835 120.694 115.167 122.782 115.385C123.076 115.416 123.559 115.531 124.028 115.704C123.463 115.066 122.691 114.63 121.82 114.508C121.82 114.505 121.823 114.5 121.825 114.498H121.828Z" fill="#F9FD6F"/>
<path d="M70.8013 31.6495C68.0344 31.6495 66.1691 32.8456 66.1691 34.3221L65.8654 30.6476C65.8654 29.219 68.0703 28.0588 70.7893 28.0588C73.5084 28.0588 75.7253 29.219 75.7253 30.6476L75.4335 34.3221C75.4335 32.8456 73.5682 31.6495 70.8013 31.6495Z" fill="#A3B6C5"/>
<path d="M75.5818 31.5942H66.0232V124.194H75.5818V31.5942Z" fill="#A3B6C5"/>
<path opacity="0.3" d="M69.6223 30.2808C69.6223 30.2808 67.0347 30.6091 67.0347 32.2511V124.196H69.6223V30.2808Z" fill="white"/>
<path opacity="0.1" d="M74.6659 32.414C74.6659 30.6091 72.0783 30.1154 72.0783 30.1154V124.194H74.6659V32.414Z" fill="#070041"/>
<path d="M55.4674 48.4952H53.8699V69.7634H55.4674V48.4952Z" fill="#CBD2DE"/>
<path d="M57.0672 48.4952H55.4697V69.7634H57.0672V48.4952Z" fill="#B3BDCC"/>
<path d="M51.7821 54.1377H50.1823V67.0717H51.7821V54.1377Z" fill="#B3BDCC"/>
<path d="M50.1823 54.1377H48.5848V67.0717H50.1823V54.1377Z" fill="#CBD2DE"/>
<path d="M94.4765 72.0502V124.194H32.5262V72.0502C32.5262 67.5271 46.3918 63.8694 63.5002 63.8694C80.6086 63.8694 94.4789 67.5271 94.4789 72.0502H94.4765Z" fill="#5B6F80"/>
<path d="M94.4765 77.0167V124.047H32.5262V77.0167C32.5262 74.2794 46.3918 72.0646 63.5002 72.0646C80.6086 72.0646 94.4789 74.2794 94.4789 77.0167H94.4765Z" fill="#CBD2DE"/>
<path opacity="0.3" d="M37.7396 69.519V124.064L47.5517 124.047V67.1508C43.7253 67.5127 40.8174 67.4959 37.7396 69.519Z" fill="white"/>
<path opacity="0.1" d="M73.5036 66.8776V124.047L86.3839 124.064V68.8023C82.5863 67.496 78.3439 67.1772 73.5036 66.88V66.8776Z" fill="#070041"/>
<path opacity="0.1" d="M90.9133 69.6196H88.3401V90.478H90.9133V69.6196Z" fill="#070041"/>
<path opacity="0.1" d="M48.3934 90.9838H46.7098V111.447H48.3934V90.9838Z" fill="#070041"/>
<path opacity="0.1" d="M59.0904 67.496H56.5148V98.7523H59.0904V67.496Z" fill="#070041"/>
<path d="M94.4765 118.731H32.5262V124.062H94.4765V118.731Z" fill="#30404B"/>
<path fill-rule="evenodd" clip-rule="evenodd" d="M68.0702 15.6377C67.5824 15.6377 67.1902 16.0332 67.1902 16.5222C67.1902 17.0112 67.5824 17.4043 68.0702 17.4043C68.5581 17.4043 68.9503 17.0088 68.9503 16.5222C68.9503 16.0356 68.5581 15.6377 68.0702 15.6377Z" fill="#CBD2DE"/>
<path fill-rule="evenodd" clip-rule="evenodd" d="M71.6622 20.1465C70.9902 20.1465 70.4569 20.705 70.4569 21.3569C70.4569 22.0089 70.9902 22.589 71.6622 22.589C72.3342 22.589 72.8914 22.0329 72.8914 21.3569C72.8914 20.681 72.3342 20.1465 71.6622 20.1465Z" fill="#CBD2DE"/>
<path fill-rule="evenodd" clip-rule="evenodd" d="M69.4142 18.8689C69.0651 18.8689 68.7877 19.1469 68.7877 19.4969C68.7877 19.8469 69.0651 20.1249 69.4142 20.1249C69.7634 20.1249 70.0408 19.8469 70.0408 19.4969C70.0408 19.1469 69.7634 18.8689 69.4142 18.8689Z" fill="#CBD2DE"/>
<path fill-rule="evenodd" clip-rule="evenodd" d="M80.1709 9.15639C79.8959 9.15639 79.652 9.29302 79.4918 9.49915C79.4152 7.93873 78.1263 6.67074 76.5336 6.67074C76.2083 6.67074 75.8974 6.72587 75.6033 6.82655C75.0796 6.05473 74.2234 5.53459 73.2453 5.47226C72.9392 3.85911 71.5283 2.62708 69.8088 2.62708C67.8837 2.62708 66.3077 4.20667 66.3077 6.13622C66.3077 6.56767 66.3867 6.97755 66.5301 7.35867C65.9777 7.55282 65.5664 8.08735 65.5664 8.71535C65.5664 9.50635 66.2145 10.1343 66.9797 10.1343C67.5609 10.1343 68.0655 9.79158 68.2903 9.29541C68.7518 9.51833 69.2636 9.64537 69.8088 9.64537C69.9188 9.64537 70.0288 9.63818 70.1364 9.62859C70.2058 9.81316 70.2895 9.99053 70.3923 10.1583C69.4525 10.3333 68.6753 10.9853 68.3213 11.853C68.0248 11.1842 67.3552 10.7144 66.5828 10.7144C65.5401 10.7144 64.684 11.5749 64.684 12.62C64.684 13.6651 65.5401 14.5256 66.5828 14.5256C67.2691 14.5256 67.8765 14.1517 68.2089 13.6003C68.5246 14.7797 69.6103 15.6665 70.8945 15.6665C70.9902 15.6665 71.0835 15.6617 71.1767 15.6521C71.215 15.9326 71.3011 16.1987 71.4254 16.4407C70.9256 16.7859 70.5932 17.3636 70.5932 18.0108C70.5932 19.0558 71.4517 19.9163 72.4944 19.9163C73.5371 19.9163 74.3956 19.0558 74.3956 18.0108C74.3956 17.8789 74.3837 17.7495 74.3573 17.6248C74.9959 17.4019 75.5172 16.9177 75.7898 16.2993C76.0314 16.4959 76.3327 16.6205 76.6699 16.6205C77.4567 16.6205 78.1071 15.9709 78.1071 15.1799C78.1071 14.3889 77.4567 13.7633 76.6699 13.7633C76.292 13.7633 75.9524 13.9096 75.6989 14.1493C75.2972 13.4134 74.5295 12.91 73.6543 12.8861C73.6495 12.445 73.5443 12.0303 73.3601 11.6588C73.6495 11.63 73.9269 11.5557 74.1876 11.4527C74.7256 12.167 75.5746 12.6272 76.5288 12.6272C77.8943 12.6272 79.0326 11.7139 79.3818 10.4627C79.5253 10.7528 79.8218 10.9541 80.1686 10.9541C80.6564 10.9541 81.0486 10.5586 81.0486 10.072C81.0486 9.58544 80.6564 9.16358 80.1686 9.16358L80.1709 9.15639Z" fill="#CBD2DE"/>
<path fill-rule="evenodd" clip-rule="evenodd" d="M76.1389 17.7998C75.7898 17.7998 75.5124 18.0779 75.5124 18.4038C75.5124 18.7538 75.7898 19.0318 76.1389 19.0318C76.4881 19.0318 76.7655 18.7538 76.7655 18.4038C76.7655 18.0779 76.4857 17.7998 76.1389 17.7998Z" fill="#CBD2DE"/>
<path fill-rule="evenodd" clip-rule="evenodd" d="M63.5026 6.41431C62.8306 6.41431 62.2734 6.94883 62.2734 7.62237C62.2734 8.29592 62.8306 8.85441 63.5026 8.85441C64.1746 8.85441 64.7079 8.29592 64.7079 7.62237C64.7079 6.94883 64.1531 6.41431 63.5026 6.41431Z" fill="#CBD2DE"/>
<path fill-rule="evenodd" clip-rule="evenodd" d="M76.6722 5.81026C77.1601 5.81026 77.5762 5.41476 77.5762 4.92818C77.5762 4.4416 77.1577 4.0437 76.6722 4.0437C76.1868 4.0437 75.7898 4.4392 75.7898 4.92818C75.7898 5.41716 76.1844 5.81026 76.6722 5.81026Z" fill="#CBD2DE"/>
<path fill-rule="evenodd" clip-rule="evenodd" d="M73.1712 1.23204C73.518 1.23204 73.7954 0.953989 73.7954 0.604033C73.7954 0.278047 73.518 0 73.1712 0C72.846 0 72.5685 0.280444 72.5685 0.604033C72.5685 0.951592 72.846 1.23204 73.1712 1.23204Z" fill="#CBD2DE"/>
<path fill-rule="evenodd" clip-rule="evenodd" d="M70.3875 22.7975C70.1316 22.7975 69.9236 23.006 69.9236 23.2865C69.9236 23.5429 70.1316 23.7754 70.3875 23.7754C70.6649 23.7754 70.8754 23.5429 70.8754 23.2865C70.8754 23.0084 70.6673 22.7975 70.3875 22.7975Z" fill="#CBD2DE"/>
<path d="M103.028 47.6731C102.232 47.6731 101.694 48.6606 101.694 49.8831L101.605 46.8437C101.605 45.662 102.242 44.7032 103.024 44.7032C103.806 44.7032 104.447 45.662 104.447 46.8437L104.363 49.8831C104.363 48.663 103.825 47.6731 103.028 47.6731Z" fill="#CBD2DE"/>
<path d="M104.408 47.63H101.653V124.194H104.408V47.63Z" fill="#CBD2DE"/>
<path opacity="0.3" d="M102.689 46.5441C102.689 46.5441 101.943 46.8149 101.943 48.1716V124.194H102.689V46.5441Z" fill="white"/>
<path opacity="0.1" d="M104.143 48.3083C104.143 46.815 103.397 46.4075 103.397 46.4075V124.194H104.143V48.3083Z" fill="#070041"/>
<path d="M22.0063 78.2486C21.2099 78.2486 20.6719 79.2362 20.6719 80.4586L20.5834 77.4193C20.5834 76.2376 21.2195 75.2788 22.0015 75.2788C22.7835 75.2788 23.4244 76.2376 23.4244 77.4193L23.3407 80.4586C23.3407 79.2386 22.8026 78.2486 22.0063 78.2486Z" fill="#CBD2DE"/>
<path d="M23.3837 78.2056H20.6288V124.194H23.3837V78.2056Z" fill="#CBD2DE"/>
<path opacity="0.3" d="M21.6643 77.1197C21.6643 77.1197 20.9182 77.3906 20.9182 78.7472V124.194H21.6643V77.1173V77.1197Z" fill="white"/>
<path opacity="0.1" d="M23.1183 78.8839C23.1183 77.3906 22.3721 76.9832 22.3721 76.9832V124.194H23.1183V78.8815V78.8839Z" fill="#070041"/>
<path opacity="0.1" d="M80.4507 115.495H78.2434V124.196H80.4507V115.495Z" fill="#070041"/>
<path d="M114.653 124.194H82.0315V96.0029L115.399 103.398V123.165L114.653 123.156V124.194Z" fill="#CBD2DE"/>
<path opacity="0.1" d="M114.653 124.194H82.0315L115.399 103.398V123.165L114.653 123.156V124.194Z" fill="#070041"/>
<path d="M96.8728 124.194H82.0315V121.718L96.8728 122.005V124.194Z" fill="#485967"/>
<path d="M114.653 124.194H110.471V122.499L114.653 122.583V124.194Z" fill="#485967"/>
<path opacity="0.2" d="M82.0315 121.718L114.653 122.583V123.347L82.0315 122.676V121.718Z" fill="#010101"/>
<path d="M45.9302 104.004V122.42L46.6811 122.405L46.6788 124.194H82.0315V96.0054L45.9302 104.004Z" fill="#F0F1F7"/>
<path d="M108.579 124.194H96.8728V105.361L108.579 107.324V124.194Z" fill="#171F26"/>
<path d="M82.0315 121.718L46.6812 122.405L46.6788 124.194H82.0315V121.718Z" fill="#30404B"/>
<path d="M108.579 110.37L96.8728 108.764V106.305L108.579 108.167V110.37Z" fill="#5B6F80"/>
<path d="M108.579 113.827L96.8728 112.621V110.162L108.579 111.626V113.827Z" fill="#5B6F80"/>
<path d="M108.579 117.283L96.8728 116.48V114.021L108.579 115.08V117.283Z" fill="#5B6F80"/>
<path d="M108.579 120.74L96.8728 120.337V117.88L108.579 118.537V120.74Z" fill="#5B6F80"/>
<path d="M108.579 124.194H96.8728V121.737L108.579 121.993V124.194Z" fill="#5B6F80"/>
<path d="M108.579 124.194H110.471V107.115L108.579 107.324V124.194Z" fill="#CBD2DE"/>
<path d="M59.6428 111.583L55.4506 112.087V106.765L59.6428 106.039V111.583Z" fill="#F0F1F7"/>
<path d="M52.6239 112.456L48.898 112.904V107.899L52.6239 107.254V112.456Z" fill="#F0F1F7"/>
<path d="M67.7522 110.572L62.986 111.147V105.459L67.7522 104.634V110.572Z" fill="#F0F1F7"/>
<path d="M77.2295 109.392L71.7387 110.056V103.944L77.2295 102.995V109.392Z" fill="#F0F1F7"/>
<path d="M52.6239 119.963L48.898 120.126V115.088L52.6239 114.728V119.963Z" fill="#F0F1F7"/>
<path d="M59.6428 119.632L55.4506 119.814V114.455L59.6428 114.047V119.632Z" fill="#F0F1F7"/>
<path d="M67.7522 119.249L62.986 119.457V113.724L67.7522 113.263V119.249Z" fill="#F0F1F7"/>
<path d="M77.2295 118.8L71.7387 119.042V112.878L77.2295 112.348V118.8Z" fill="#F0F1F7"/>
<path d="M92.3266 103.978L86.8359 103.028V109.39L92.3266 110.054V103.978Z" fill="#F0F1F7"/>
<path d="M86.8359 118.8L92.3266 119.042V112.878L86.8359 112.348V118.8Z" fill="#F0F1F7"/>
<path d="M96.8728 104.764V105.361L108.579 107.324L110.468 107.115L96.8728 104.764Z" fill="#5B6F80"/>
<path d="M91.767 104.354L92.3266 103.978L86.8359 103.028V103.522L91.767 104.354Z" fill="#5B6F80"/>
<path d="M91.767 113.254L92.3266 112.878L86.8359 112.348V112.794L91.767 113.254Z" fill="#5B6F80"/>
<path d="M77.2295 112.348V112.794L72.2983 113.254L71.7387 112.878L77.2295 112.348Z" fill="#5B6F80"/>
<path d="M77.2295 103.486V102.995L71.7387 103.944L72.2983 104.32L77.2295 103.486Z" fill="#5B6F80"/>
<path d="M67.7522 105.126V104.634L62.986 105.459L63.5456 105.835L67.7522 105.126Z" fill="#5B6F80"/>
<path d="M62.986 113.724L63.5456 114.1L67.7522 113.709V113.263L62.986 113.724Z" fill="#5B6F80"/>
<path d="M55.4506 114.455L56.0126 114.829L59.6428 114.493V114.047L55.4506 114.455Z" fill="#5B6F80"/>
<path d="M55.4506 106.765L56.0126 107.139L59.6428 106.528V106.039L55.4506 106.765Z" fill="#5B6F80"/>
<path d="M48.898 107.899L49.46 108.275L52.6239 107.743V107.254L48.898 107.899Z" fill="#5B6F80"/>
<path d="M48.898 115.088L49.46 115.461L52.6239 115.171V114.728L48.898 115.088Z" fill="#5B6F80"/>
<path opacity="0.2" d="M82.0315 122.676L46.6788 123.347L46.6812 122.405L82.0315 121.718V122.676Z" fill="#010101"/>
<path d="M86.8359 118.8L91.767 119.019V113.256L86.8359 112.796V118.803V118.8ZM86.8359 103.522V109.39L91.767 109.984V104.352L86.8359 103.52V103.522Z" fill="url(#paint0_linear_2_2806)"/>
<path d="M49.46 115.461V120.1L52.6263 119.963V115.169L49.46 115.461ZM56.015 114.829V119.79L59.6452 119.632V114.493L56.015 114.829ZM63.548 114.098V119.431L67.7546 119.246V113.707L63.548 114.098ZM72.3031 113.251V119.014L77.2319 118.796V112.789L72.3031 113.249V113.251ZM49.4624 108.273V112.834L52.6287 112.453V107.738L49.4624 108.271V108.273ZM56.0174 107.139V112.019L59.6476 111.583V106.528L56.0174 107.139ZM63.5504 105.833V111.077L67.757 110.569V105.123L63.5504 105.833ZM77.2342 103.484L72.3055 104.318V109.987L77.2342 109.39V103.484Z" fill="url(#paint1_linear_2_2806)"/>
<path opacity="0.2" d="M45.9302 104.004V122.42L46.6811 122.405L46.6788 124.194L82.0315 96.0054L45.9302 104.004Z" fill="white"/>
<path d="M45.9303 104.004L43.8665 103.028L81.7589 92.8749L117.784 102.626L115.399 103.398L82.0315 96.0053L45.9303 104.004Z" fill="#25343E"/>
<path d="M37.7037 80.5881L0.5 100.428H74.9074L37.7037 80.5881Z" fill="#5B6F80"/>
<path opacity="0.3" d="M37.7037 80.5881L52.6048 100.428H66.8506L37.7037 80.5881Z" fill="#110F3F"/>
<path opacity="0.3" d="M37.7061 80.5881L25.9569 100.428H14.7219L37.7061 80.5881Z" fill="white"/>
<path opacity="0.3" d="M37.7061 80.5881L21.2745 100.428H5.56506L37.7061 80.5881Z" fill="white"/>
<path d="M75.4311 100.001V121.83H0.5V100.001C0.5 98.6132 17.2712 97.4915 37.9644 97.4915C58.6575 97.4915 75.4311 98.6132 75.4311 100.001Z" fill="#5B6F80"/>
<path d="M75.4311 102.568V124.194H0.5V102.568C0.5 101.77 17.2712 101.125 37.9644 101.125C58.6575 101.125 75.4311 101.77 75.4311 102.568Z" fill="#EAEBF1"/>
<path opacity="0.4" d="M3.03257 99.886C3.55869 100.003 4.48896 100.032 5.20878 99.9531C12.0005 99.2125 24.5484 98.7522 37.9644 98.7522C51.3804 98.7522 63.9331 99.2149 70.72 99.9531C71.4374 100.03 72.3677 100.001 72.8938 99.886C73.4128 99.7686 73.3625 99.6032 72.7671 99.4977C67.2524 98.515 53.5877 97.8798 37.9644 97.8798C22.3411 97.8798 8.67877 98.515 3.15931 99.4977C2.56624 99.6032 2.51602 99.7686 3.03257 99.886Z" fill="white"/>
<path opacity="0.3" d="M7.97089 99.6942V124.194L23.2642 124.186V98.944C17.2975 99.1046 11.9981 99.3634 7.97089 99.6942Z" fill="white"/>
<path opacity="0.1" d="M50.0603 98.9752V124.186L65.6406 124.194V99.5241C61.2092 99.2916 55.9146 99.1046 50.0603 98.9728V98.9752Z" fill="#070041"/>
<path opacity="0.1" d="M43.3594 99.0974H40.2458V112.964H43.3594V99.0974Z" fill="#070041"/>
<path opacity="0.1" d="M10.6373 100.49H7.52368V114.359H10.6373V100.49Z" fill="#070041"/>
<path d="M75.4311 121.828H0.5V124.194H75.4311V121.828Z" fill="#8D9FAC"/>
<path d="M56.9022 114.457C58.2462 114.062 59.4013 113.055 59.925 111.629C60.4965 110.073 60.1761 108.414 59.2339 107.204C60.2717 104.239 58.8656 100.979 55.9958 99.8285C55.3119 99.5553 54.6112 99.4306 53.9153 99.4282C54.781 96.5375 53.37 93.4334 50.584 92.3165C47.633 91.1324 44.2634 92.6257 43.051 95.6554C42.5535 96.897 42.5057 98.1986 42.8166 99.3899C42.8118 99.3947 42.807 99.3995 42.8023 99.4043C40.0999 98.8218 37.2708 100.298 36.1851 103.016C36.0201 103.429 35.9077 103.848 35.8384 104.27C34.9894 104.91 34.6498 106.085 35.0875 107.134C35.3218 107.695 35.7355 108.12 36.233 108.374C35.7044 110.603 36.8954 112.923 39.0812 113.731C41.0278 114.45 43.1514 113.74 44.328 112.135C45.1339 112.774 46.2124 113.069 47.3077 112.858C47.9104 114.062 48.9243 115.054 50.2588 115.589C51.1723 115.955 52.1289 116.066 53.0496 115.95C53.2481 116.511 53.6809 116.986 54.2812 117.206C55.3525 117.602 56.5435 117.051 56.9405 115.972C57.1294 115.459 57.0983 114.922 56.9046 114.455L56.9022 114.457Z" fill="#8BC444"/>
<path d="M47.9677 116.511C47.9845 115.929 47.9869 115.471 47.9366 114.738C49.57 114.174 50.5194 109.642 50.5194 109.642C49.2878 112.293 48.3025 113.649 47.7908 113.791C47.7334 113.22 47.6616 111.868 47.6305 111.3C47.6042 110.797 47.5708 110.322 47.5062 109.927C47.401 109.306 47.7142 106.523 47.4392 106.26C47.4392 106.26 46.9275 110.334 46.7098 109.881C46.0354 108.465 45.6672 108.249 44.866 107.051C44.768 106.902 46.7098 111.027 46.6907 111.26C46.6094 112.19 46.5066 113.537 46.375 115.49C45.7676 115.15 44.8397 114.491 44.3256 114.05C44.6795 112.844 43.546 110.478 43.546 110.478C43.5794 111.753 44.0673 113.45 43.8377 113.609C43.3379 113.017 40.8388 111.142 40.2505 110.373C40.2505 110.373 43.7444 114.97 46.2818 116.746C46.1646 118.237 46.1192 120.696 46.057 121.173C45.9302 122.171 45.7317 123.321 45.5309 124.194H48.4915C48.4412 123.762 48.3336 123.35 48.3241 122.887C48.3049 121.969 48.2786 118.733 48.1734 118.091C51.8634 116.252 54.9627 111.823 54.9627 111.823C52.3106 114.421 49.0726 116.423 47.9725 116.509L47.9677 116.511Z" fill="#4D3A30"/>
<path opacity="0.5" d="M49.1563 93.6492C51.8514 94.0015 52.6717 94.8644 53.9846 96.2547C53.5494 94.5193 52.3417 93.0212 50.5816 92.3165C47.6305 91.1324 44.261 92.6257 43.0485 95.6554C42.5511 96.897 42.5033 98.1986 42.8142 99.3899C42.8094 99.3947 42.8046 99.3995 42.7998 99.4043C40.0975 98.8218 37.2684 100.298 36.1827 103.016C36.0751 103.287 35.9914 103.558 35.9268 103.834C39.5762 99.6583 46.8868 102.297 45.4854 101.219C42.4459 98.8817 44.0601 92.9852 49.1563 93.6516V93.6492Z" fill="#F9FD6F"/>
<path opacity="0.5" d="M52.7004 100.634C53.669 100.723 55.496 100.967 56.962 101.643C57.5001 101.892 58.6982 102.674 59.0712 102.82C58.4901 101.497 57.4235 100.401 55.9958 99.8285C55.3119 99.5553 54.6112 99.4306 53.9153 99.4282C53.9153 99.4282 51.0288 100.48 52.7028 100.636L52.7004 100.634Z" fill="#F9FD6F"/>
<path opacity="0.5" d="M42.4172 103.331C42.4172 103.767 42.0633 104.122 41.6257 104.122C41.188 104.122 40.8365 103.767 40.8365 103.331C40.8365 102.894 41.1904 102.537 41.6257 102.537C42.0609 102.537 42.4172 102.892 42.4172 103.331Z" fill="#F9FD6F"/>
<path opacity="0.5" d="M41.2478 105.063C41.2478 105.775 40.6714 106.355 39.9588 106.355C39.2461 106.355 38.6698 105.775 38.6698 105.063C38.6698 104.352 39.2461 103.771 39.9588 103.771C40.6714 103.771 41.2478 104.349 41.2478 105.063Z" fill="#F9FD6F"/>
<path opacity="0.5" d="M40.3295 102.82C40.3295 103.026 40.1621 103.191 39.9564 103.191C39.7508 103.191 39.5858 103.024 39.5858 102.82C39.5858 102.616 39.7532 102.448 39.9564 102.448C40.1597 102.448 40.3295 102.616 40.3295 102.82Z" fill="#F9FD6F"/>
<g opacity="0.5">
<path d="M59.9226 111.629C60.4942 110.073 60.1737 108.414 59.2315 107.204C57.8994 107.712 56.7731 107.278 56.7731 107.278C56.7731 107.278 57.4522 111.245 53.4968 112.233C49.8498 113.144 47.6043 108.251 47.6043 108.251C47.6043 108.251 44.4045 110.255 40.2745 109.893C38.3207 109.723 38.2944 107.547 37.4383 106.26C36.5821 104.972 36.8643 107.281 35.8575 106.94C35.4988 106.818 35.1927 106.708 34.9416 106.614C34.9727 106.789 35.0157 106.964 35.0875 107.134C35.3218 107.695 35.7355 108.12 36.233 108.374C35.7045 110.603 36.8954 112.923 39.0812 113.731C41.0278 114.45 43.1514 113.74 44.328 112.135C45.1339 112.775 46.2125 113.069 47.3077 112.858C47.9104 114.062 48.9244 115.054 50.2588 115.589C51.1723 115.955 52.1289 116.066 53.0496 115.95C53.2481 116.511 53.6809 116.986 54.2812 117.206C55.3526 117.602 56.5435 117.051 56.9405 115.972C57.1294 115.459 57.0983 114.922 56.9046 114.455C58.2486 114.059 59.4037 113.053 59.9274 111.626L59.9226 111.629Z" fill="#34651C"/>
<path d="M56.2063 108.331C56.2063 109.019 55.6467 109.579 54.9604 109.579C54.274 109.579 53.7144 109.019 53.7144 108.331C53.7144 107.643 54.2716 107.082 54.9604 107.082C55.6491 107.082 56.2063 107.64 56.2063 108.331Z" fill="#34651C"/>
<path d="M57.3303 105.236C57.3303 105.675 56.9763 106.029 56.5387 106.029C56.1011 106.029 55.7495 105.675 55.7495 105.236C55.7495 104.797 56.1034 104.445 56.5387 104.445C56.9739 104.445 57.3303 104.8 57.3303 105.236Z" fill="#34651C"/>
<path d="M55.7495 106.317C55.7495 106.638 55.4889 106.9 55.1684 106.9C54.8479 106.9 54.5873 106.638 54.5873 106.317C54.5873 105.996 54.8479 105.735 55.1684 105.735C55.4889 105.735 55.7495 105.996 55.7495 106.317Z" fill="#34651C"/>
<path d="M48.4413 95.4038C48.4413 95.8664 48.0658 96.2403 47.6043 96.2403C47.1427 96.2403 46.7673 95.8664 46.7673 95.4038C46.7673 94.9411 47.1427 94.5648 47.6043 94.5648C48.0658 94.5648 48.4413 94.9411 48.4413 95.4038Z" fill="#34651C"/>
<path d="M46.7147 97.0984C46.7147 97.4724 46.4133 97.772 46.0403 97.772C45.6672 97.772 45.3683 97.47 45.3683 97.0984C45.3683 96.7269 45.6696 96.4225 46.0403 96.4225C46.411 96.4225 46.7147 96.7245 46.7147 97.0984Z" fill="#34651C"/>
</g>
<path opacity="0.5" d="M46.552 117.355V116.797L46.2722 116.869C46.1598 118.369 46.1144 120.711 46.0546 121.173C45.9279 122.171 45.7294 123.321 45.5285 124.194H46.179L46.5497 122.08V117.358L46.552 117.355Z" fill="#BE6D2B"/>
<path d="M43.2064 111.991C43.2064 112.429 42.8525 112.784 42.4172 112.784C41.982 112.784 41.6257 112.429 41.6257 111.991C41.6257 111.552 41.9796 111.197 42.4172 111.197C42.8549 111.197 43.2064 111.552 43.2064 111.991Z" fill="#8AC041"/>
<path d="M43.9334 110.713C43.9334 110.996 43.7038 111.221 43.424 111.221C43.1442 111.221 42.9171 110.994 42.9171 110.713C42.9171 110.433 43.1442 110.205 43.424 110.205C43.7038 110.205 43.9334 110.433 43.9334 110.713Z" fill="#8AC041"/>
<path d="M63.6652 85.6409L60.1641 90.5546L61.0729 90.3485L60.6926 91.5709L56.9835 95.5091L59.0258 95.5235L57.17 98.4598L55.0129 100.454L56.9428 101.847L52.325 105.996L56.4885 107.463L50.4931 112.475L54.4438 114.491L49.1061 118.925L53.1667 118.884L54.219 119.421L60.2382 120.704L70.5717 119.91L78.4108 117.314L73.3003 115.622L75.5722 114.491L70.4593 108.736L72.504 108.314L69.5505 102.578L72.3892 101.396L68.6609 97.8869L71.4446 96.9377L67.4126 94.3946L68.869 93.7138L66.2575 90.6961L67.0515 89.651L63.6652 85.6409Z" fill="#33884D"/>
<path d="M64.6768 124.194H61.367L62.0557 119.45H64.3276L64.3539 121.542L64.6768 124.194Z" fill="#4D3A30"/>
<path opacity="0.5" d="M60.2383 120.704L70.5717 119.91L78.4108 117.314L73.3003 115.622L75.5722 114.491L70.4593 108.736L72.504 108.314L69.5505 102.578L71.7004 101.684L68.6609 97.8869L69.1392 96.9377L67.4126 94.3945L68.869 93.7138L66.2575 90.696L67.0515 89.651L63.9163 86.0747L64.2128 89.1979L62.6225 90.2143L65.0068 91.2378L64.7796 94.5072L62.2064 95.4109L65.0068 98.3471L63.0195 102.578L68.5677 106.406L67.4939 107.602L63.0673 109.109L66.2432 113.829L69.5505 116.252L54.0755 119.378L54.219 119.421L60.2383 120.704Z" fill="#334F2C"/>
<g opacity="0.2">
<path d="M56.4885 107.463L50.4931 112.475L63.0673 109.109L57.6029 108.565L56.4885 107.463Z" fill="#F9FD6F"/>
<path d="M56.9428 101.847L52.325 105.996L56.4885 107.463L59.0066 102.257L56.9428 101.847Z" fill="#F9FD6F"/>
<path d="M55.0129 100.454L55.7686 100.998L61.2977 96.9377L58.2247 96.7963L57.17 98.4598L55.0129 100.454Z" fill="#F9FD6F"/>
<path d="M54.4438 114.491L49.1061 118.925L59.6787 114.831L54.4438 114.491Z" fill="#F9FD6F"/>
<path d="M60.7763 91.2953L60.6926 91.5709L56.9835 95.5091L57.6029 95.5139L62.3762 91.2953H60.7763Z" fill="#F9FD6F"/>
<path d="M60.7381 90.4228L62.6608 88.7353L63.6652 85.6409L60.1641 90.5546L60.7381 90.4228Z" fill="#F9FD6F"/>
</g>
<path opacity="0.5" d="M62.0462 124.194L62.3762 119.45H62.0557L61.367 124.194H62.0462Z" fill="#BE6D2B"/>
<g opacity="0.2">
<path d="M58.3873 101.525L59.6284 100.471V101.382L58.3873 101.525Z" fill="#F9FD6F"/>
<path d="M64.8561 100.998L66.0949 99.9412V100.854L64.8561 100.998Z" fill="#F9FD6F"/>
<path d="M61.5464 94.1788V95.1352L62.1921 94.6558L61.5464 94.1788Z" fill="#F9FD6F"/>
<path d="M57.6029 106.406H59.0067V105.19L57.6029 106.406Z" fill="#F9FD6F"/>
<path d="M64.4951 90.128H65.9012V88.9127L64.4951 90.128Z" fill="#F9FD6F"/>
<path d="M68.0153 104.45H69.4214V103.234L68.0153 104.45Z" fill="#F9FD6F"/>
<path d="M57.6842 113.879L56.3019 112.547L55.6276 113.527L57.6842 113.879Z" fill="#F9FD6F"/>
<path d="M58.5475 116.708L57.7918 118.038H56.6559L58.5475 116.708Z" fill="#F9FD6F"/>
<path d="M60.8529 95.1616L60.1163 95.8639L59.473 95.1616H60.8529Z" fill="#F9FD6F"/>
<path d="M61.4029 107.379L62.6393 107.027L61.1016 106.324L61.4029 107.379Z" fill="#F9FD6F"/>
</g>
<g opacity="0.5">
<path d="M73.4892 114.388H72.1261L73.4892 115.31V114.388Z" fill="#334F2C"/>
<path d="M66.5588 109.97H65.1981L66.5588 110.89V109.97Z" fill="#334F2C"/>
<path d="M69.3999 118.242H68.0367L69.3999 119.165V118.242Z" fill="#334F2C"/>
<path d="M69.5505 107.463L67.886 107.925L69.5505 108.652V107.463Z" fill="#334F2C"/>
<path d="M64.7054 102.578L66.2431 103.045L65.0068 103.841L64.7054 102.578Z" fill="#334F2C"/>
<path d="M65.8796 91.7555L67.4173 92.2205L66.1833 93.0187L65.8796 91.7555Z" fill="#334F2C"/>
<path d="M67.4556 98.8984H66.6497L67.4556 99.7518V98.8984Z" fill="#334F2C"/>
</g>
<path d="M12.3472 117.156C12.9474 116.598 13.806 116.49 14.5258 116.809C14.9395 115.303 16.1926 114.17 17.7208 113.959C17.2473 113.278 16.9746 112.441 16.9985 111.54C17.0583 109.354 18.8376 107.628 20.9683 107.688C22.9795 107.743 24.5866 109.371 24.7086 111.391C25.1462 111.231 25.6173 111.145 26.1099 111.159C28.2407 111.219 29.9219 113.041 29.8597 115.229C29.8478 115.677 29.7593 116.104 29.6134 116.502C29.9482 117.108 30.1371 117.813 30.1156 118.563C30.0534 120.752 28.2766 122.475 26.1434 122.415C25.4738 122.396 24.8496 122.202 24.3092 121.876C24.2757 121.909 24.2494 121.948 24.2159 121.979C23.2354 122.89 21.6929 122.823 20.7746 121.825C20.5953 121.631 20.4566 121.416 20.3513 121.188C19.7128 121.619 18.9452 121.861 18.1249 121.84C17.6418 121.825 17.1827 121.718 16.7618 121.538C16.6972 121.811 16.5609 122.065 16.3457 122.269C15.755 122.818 14.8199 122.775 14.2579 122.168C13.8753 121.754 13.7629 121.183 13.9208 120.692C13.3277 120.73 12.7179 120.507 12.2754 120.03C11.503 119.198 11.5365 117.911 12.3472 117.156Z" fill="#8BC444"/>
<path d="M21.7073 123.448C21.7312 123.743 21.7384 123.976 21.7408 124.196H19.292C17.331 122.703 15.1978 120.33 15.1978 120.33C15.6952 120.879 17.8117 122.221 18.2349 122.643C18.4287 122.53 18.0173 121.317 17.9862 120.404C17.9862 120.404 18.9476 122.096 18.6487 122.959C19.0815 123.276 19.8659 123.745 20.3825 123.99C20.4925 122.592 20.581 121.629 20.6503 120.965C20.667 120.797 19.0193 117.849 19.1054 117.954C19.7822 118.812 20.0931 118.966 20.6647 119.98C20.8488 120.303 21.284 117.389 21.284 117.389C21.5184 117.576 21.253 119.568 21.339 120.011C21.394 120.291 21.4227 120.629 21.4467 120.991C21.473 121.399 21.5328 122.365 21.583 122.772C22.0158 122.672 22.8504 121.701 23.8931 119.805C23.8931 119.805 23.092 123.048 21.7073 123.448Z" fill="#504943"/>
<path d="M22.0206 124.194H20.9182C22.1665 123.606 26.1865 122.578 27.6525 121.365C27.6525 121.365 27.0761 122.832 22.0206 124.194Z" fill="#504943"/>
<path opacity="0.5" d="M19.6794 110.102C19.6794 110.497 20.0022 110.821 20.3992 110.821C20.7962 110.821 21.1166 110.497 21.1166 110.102C21.1166 109.706 20.7962 109.38 20.3992 109.38C20.0022 109.38 19.6794 109.704 19.6794 110.102Z" fill="#F9FD6F"/>
<path opacity="0.5" d="M21.3654 109.764C21.3654 109.951 21.5184 110.104 21.7026 110.104C21.8867 110.104 22.0397 109.953 22.0397 109.764C22.0397 109.575 21.8891 109.426 21.7026 109.426C21.516 109.426 21.3654 109.577 21.3654 109.764Z" fill="#F9FD6F"/>
<path opacity="0.5" d="M13.8084 117.719C13.9946 117.719 14.1456 117.568 14.1456 117.381C14.1456 117.195 13.9946 117.043 13.8084 117.043C13.6222 117.043 13.4712 117.195 13.4712 117.381C13.4712 117.568 13.6222 117.719 13.8084 117.719Z" fill="#F9FD6F"/>
<g opacity="0.5">
<path d="M26.1483 122.417C25.4787 122.398 24.8545 122.204 24.314 121.878C24.2805 121.912 24.2542 121.95 24.2208 121.981C23.2403 122.892 21.6978 122.825 20.7795 121.828C20.6001 121.634 20.4614 121.418 20.3562 121.19C19.7177 121.622 18.95 121.864 18.1298 121.842C17.6467 121.828 17.1875 121.72 16.7666 121.54C16.7021 121.813 16.5657 122.067 16.3505 122.271C15.7598 122.82 14.8248 122.777 14.2628 122.171C13.8802 121.756 13.7678 121.185 13.9256 120.694C13.3325 120.732 12.7227 120.509 12.2803 120.032C11.6179 119.318 11.5485 118.271 12.0555 117.508C12.3066 118.12 12.6725 118.872 13.0527 119.189C13.7415 119.762 14.5019 118.477 15.2026 117.784C15.9033 117.091 16.2262 117.854 17.1923 118.345C18.1585 118.836 19.1102 117.954 20.5738 117.489C22.0398 117.024 24.5771 119.1 25.4069 119.38C26.2344 119.658 27.4755 120.416 28.9941 119.723C29.4772 119.503 29.8359 119.196 30.0965 118.879C29.8837 120.917 28.1786 122.477 26.1507 122.42L26.1483 122.417Z" fill="#34651C"/>
<path d="M17.5821 117.235C17.5821 117.693 17.9528 118.065 18.4095 118.065C18.8663 118.065 19.237 117.693 19.237 117.235C19.237 116.777 18.8663 116.406 18.4095 116.406C17.9528 116.406 17.5821 116.777 17.5821 117.235Z" fill="#34651C"/>
<path d="M27.6525 116.988C28.0368 116.988 28.3484 116.676 28.3484 116.291C28.3484 115.906 28.0368 115.593 27.6525 115.593C27.2681 115.593 26.9565 115.906 26.9565 116.291C26.9565 116.676 27.2681 116.988 27.6525 116.988Z" fill="#34651C"/>
<path d="M16.5777 116.988C16.5777 117.197 16.7475 117.367 16.9579 117.367C17.1684 117.367 17.3358 117.197 17.3358 116.988C17.3358 116.78 17.166 116.607 16.9579 116.607C16.7499 116.607 16.5777 116.777 16.5777 116.988Z" fill="#34651C"/>
<path d="M28.6641 116.228C28.6641 116.439 28.8339 116.607 29.0443 116.607C29.2548 116.607 29.4245 116.437 29.4245 116.228C29.4245 116.02 29.2548 115.85 29.0443 115.85C28.8339 115.85 28.6641 116.02 28.6641 116.228Z" fill="#34651C"/>
<path d="M26.5596 115.162C26.5596 115.378 26.7318 115.55 26.947 115.55C27.1622 115.55 27.3344 115.378 27.3344 115.162C27.3344 114.946 27.1622 114.774 26.947 114.774C26.7318 114.774 26.5596 114.949 26.5596 115.162Z" fill="#34651C"/>
</g>
<path opacity="0.5" d="M20.9708 107.691C22.982 107.746 24.589 109.373 24.711 111.394C25.1486 111.233 25.6197 111.149 26.1148 111.161C27.5975 111.202 28.8578 112.096 29.47 113.371C27.8031 112.127 25.2012 112.482 23.9362 112.758C23.8333 112.779 23.7281 112.734 23.6755 112.645C23.6229 112.554 23.6325 112.441 23.6994 112.36L24.0892 111.904C24.2112 111.763 24.2279 111.559 24.1323 111.399C23.5751 110.459 21.473 107.552 17.7112 109.359C18.4335 108.316 19.6316 107.652 20.9684 107.688L20.9708 107.691Z" fill="#F9FD6F"/>
<path opacity="0.5" d="M17.716 113.949C19.8467 114.177 21.3653 115.363 21.3653 115.363C21.3653 115.363 18.9141 114.656 16.7068 114.886C16.3959 114.92 15.8865 115.04 15.3891 115.222C15.987 114.548 16.8048 114.088 17.7231 113.959C17.7231 113.954 17.7184 113.951 17.716 113.949Z" fill="#F9FD6F"/>
<path d="M21.9225 119.376C21.9225 119.774 22.2454 120.095 22.6424 120.095C23.0393 120.095 23.3598 119.774 23.3598 119.376C23.3598 118.978 23.037 118.657 22.6424 118.657C22.2478 118.657 21.9225 118.98 21.9225 119.376Z" fill="#8BC444"/>
<path d="M21.7025 118.16C21.7025 118.347 21.8556 118.501 22.0397 118.501C22.2238 118.501 22.3769 118.35 22.3769 118.16C22.3769 117.971 22.2262 117.823 22.0397 117.823C21.8532 117.823 21.7025 117.974 21.7025 118.16Z" fill="#8BC444"/>
</g>
<defs>
<linearGradient id="paint0_linear_2_2806" x1="84.3105" y1="116.269" x2="94.0062" y2="106.598" gradientUnits="userSpaceOnUse">
<stop stop-color="#002F51"/>
<stop offset="0.22" stop-color="#2E5B7E"/>
<stop offset="0.47" stop-color="#5D88AB"/>
<stop offset="0.69" stop-color="#7FA9CC"/>
<stop offset="0.88" stop-color="#94BDE0"/>
<stop offset="1" stop-color="#9CC5E8"/>
</linearGradient>
<linearGradient id="paint1_linear_2_2806" x1="49.46" y1="111.794" x2="77.2295" y2="111.794" gradientUnits="userSpaceOnUse">
<stop stop-color="#002F51"/>
<stop offset="0.22" stop-color="#2E5B7E"/>
<stop offset="0.47" stop-color="#5D88AB"/>
<stop offset="0.69" stop-color="#7FA9CC"/>
<stop offset="0.88" stop-color="#94BDE0"/>
<stop offset="1" stop-color="#9CC5E8"/>
</linearGradient>
<clipPath id="clip0_2_2806">
<rect width="127" height="133" fill="white" transform="translate(0.5)"/>
</clipPath>
</defs>
</svg>
