<svg viewBox="0 0 88 63" fill="none" xmlns="http://www.w3.org/2000/svg">
<path d="M3.25847 21.7603C3.46714 21.5547 4.60816 24.7691 4.90524 25.1537C5.20011 25.5375 3.91364 28.6462 3.78986 30.175C3.70763 32.0976 4.46404 34.1665 3.62363 35.9813C2.67359 31.7806 1.90392 27.6997 2.90878 23.3898" fill="#569DE2"/>
<path d="M2.83761 22.003C3.2262 22.003 3.76245 23.7992 3.88756 24.0998C4.26643 25.007 4.61523 25.4446 4.38181 26.423C4.06174 27.7607 3.53256 29.0437 3.36944 30.4181C3.13115 32.4185 3.95962 34.2435 3.20277 36.224C3.48349 36.0622 3.76422 35.8995 4.04406 35.7373C3.10728 31.5569 2.41895 27.3973 3.32921 23.1467C3.28455 23.3536 2.53433 23.4146 2.48792 23.6325C1.57678 27.8832 2.26599 32.0428 3.20277 36.224C3.18155 36.1276 3.99499 35.8681 4.04406 35.7373C4.70763 34.0025 4.29914 32.2572 4.20763 30.4592C4.13557 29.0441 4.75538 27.6016 5.13557 26.2643C5.43884 25.1993 5.26775 24.8801 4.85485 23.9106C4.71161 23.575 4.10065 21.5158 3.67978 21.5163C3.39508 21.5176 3.11435 22.003 2.83761 22.003Z" fill="#569DE2"/>
<path d="M44.5272 43.0396C36.5246 53.3783 21.6612 55.2673 11.3243 47.2669C0.986139 39.2682 -0.909085 24.4013 7.09444 14.0627C15.0918 3.72714 29.9587 1.83501 40.2964 9.835C50.6333 17.8368 52.5294 32.7032 44.5272 43.0396Z" fill="white"/>
<path d="M1.55643 33.43C5.31814 36.4358 9.96844 38.5525 14.4768 40.1254C24.9839 43.7925 36.3544 43.5834 46.7615 39.6771C47.3614 39.4512 47.8486 38.9283 48.4445 38.705C38.1024 42.587 26.9799 42.7567 16.5113 39.2735C11.8809 37.7329 7.08339 35.5286 3.23945 32.4588C3.04493 32.3027 1.73017 33.5688 1.55643 33.43Z" fill="#569DE2"/>
<path d="M1.23813 24.297C9.41805 23.4132 17.67 22.8452 25.8995 23.2342C30.6811 23.4605 35.5542 24.0149 40.109 25.556C43.4693 26.6926 47.9932 28.9636 48.456 32.9756C48.4879 33.2554 48.5626 34.2081 48.3035 34.3699C48.8552 34.0516 49.4061 33.7346 49.9578 33.4176C49.9485 33.4221 49.941 33.4229 49.9313 33.4203C49.4781 33.2996 48.6806 34.5069 48.2478 34.3916C48.4945 34.4574 49.8857 33.6095 50.0268 33.3244C50.1457 33.0839 50.1581 32.7779 50.1642 32.5158C50.1903 31.3354 49.6863 30.1886 49.0188 29.2408C47.7182 27.3938 45.6558 26.1829 43.6284 25.2921C39.727 23.579 35.3796 22.9168 31.1709 22.5149C21.792 21.6197 12.2593 22.316 2.92115 23.3253C2.3261 23.3898 1.82036 24.2342 1.23813 24.297Z" fill="#569DE2"/>
<path d="M48.0966 45.232C46.0798 48.4954 43.4485 51.2585 40.2642 53.4013C37.3349 55.373 33.4773 56.2885 30.0104 56.6449C22.6532 57.4013 15.2748 54.7311 9.86014 49.7633C-1.37062 39.457 -0.714121 21.2461 10.5175 11.2634C19.8676 2.95216 34.8079 4.73509 43.6293 12.8292C52.6147 21.0733 54.2513 34.8717 48.0966 45.232C48.3813 44.7523 49.4874 44.7514 49.7796 44.2598C57.5869 31.1201 52.399 13.9813 38.6452 7.33721C26.3075 1.37745 10.7633 6.92696 3.71647 18.3368C-4.32375 31.3553 1.26864 48.6957 14.8455 55.2554C27.1833 61.2169 42.7292 55.6683 49.7796 44.2598C49.483 44.7386 48.3994 44.7412 48.0966 45.232Z" fill="white"/>
<path d="M9.1559 11.7881C12.651 11.0879 16.4211 11.2762 19.9397 11.5949C29.5807 12.4703 38.8831 15.8071 47.3278 20.4477C47.6055 20.6011 48.6046 19.4194 48.8623 19.5618C40.4901 14.9597 31.3645 11.7289 21.8314 10.7435C18.2116 10.3695 14.2921 10.1798 10.6913 10.9018C10.1382 11.0123 9.70055 11.6789 9.1559 11.7881Z" fill="#569DE2"/>
<path d="M36.8924 7.85579C38.3667 13.152 39.0056 18.7802 39.1404 24.2594C39.3813 34.0932 37.3526 44.8053 29.7399 51.6754C29.5073 51.8858 29.8522 52.2284 30.0843 52.0193C37.6342 45.2046 39.7191 34.7262 39.6377 24.9636C39.5904 19.2254 38.9043 13.2718 37.3605 7.7267C37.277 7.4252 36.8084 7.55296 36.8924 7.85579Z" fill="#569DE2"/>
<path d="M27.5759 4.71609C23.563 9.30848 20.2288 14.6542 17.5356 20.1047C13.0891 29.102 10.4136 39.8429 14.5272 49.4552C14.6506 49.7417 15.0688 49.4941 14.9472 49.209C10.7377 39.3721 13.8438 28.4256 18.4649 19.3328C21.0281 14.2899 24.1877 9.33103 27.9198 5.05915C28.1249 4.82528 27.7828 4.48001 27.5759 4.71609Z" fill="#569DE2"/>
<g opacity="0.27">
<path d="M35.0038 22.1635C34.0785 21.6135 33.2854 21.9177 32.2797 21.9384C31.2858 21.8818 30.3283 21.5781 29.346 21.4353C26.9861 21.014 23.5493 21.1047 23.0449 24.041C22.6572 26.1546 24.9034 26.8129 25.2178 28.6953C25.5679 30.327 24.2571 31.8938 24.5268 33.518C24.7027 35.2152 26.7461 36.6771 27.7399 37.903C28.2991 38.6493 29.2598 41.2925 29.9591 41.6396C32.7867 42.884 31.9132 37.3297 32.0303 36.5109C32.5339 33.579 35.5374 32.4221 36.3331 29.7815C36.6846 28.4981 36.9746 27.6197 37.7363 26.3964C38.2858 25.4716 38.6727 25.1055 38.4145 23.9818C38.0988 22.6847 36.1267 21.3182 34.7911 21.8818" fill="#569DE2"/>
<path d="M35.4242 21.9203C34.655 21.5653 34.0157 21.587 33.1873 21.667C32.0422 21.7775 30.8849 21.3867 29.7668 21.1922C28.4247 20.9597 27.0679 20.9212 25.7478 21.2872C24.1254 21.7368 22.7637 22.9884 22.5798 24.6882C22.4401 25.9747 23.7779 26.976 24.4123 27.934C25.5157 29.5998 24.2076 31.5392 24.0688 33.2757C23.9384 34.9026 25.4711 36.2258 26.4989 37.2589C27.5436 38.3084 28.0299 39.5339 28.7191 40.8235C29.5148 42.3137 30.4671 42.1736 31.6873 41.4079C33.0299 40.5671 32.414 37.6679 32.4415 36.3699C32.4715 34.9954 33.6258 33.7412 34.4923 32.7934C35.7407 31.4318 36.5086 30.2974 37.0529 28.5206C37.5533 26.8849 39.1059 25.5008 38.8349 23.7395C38.6046 22.239 36.5418 21.2479 35.212 21.6396C34.9083 21.7293 34.6705 22.0366 34.3707 22.1254C36.7739 21.4177 38.8234 24.129 37.5745 26.2174C36.8367 27.4517 36.3026 28.6396 35.9127 30.0251C35.5838 31.1926 34.7279 32.1183 33.926 32.9848C32.609 34.4088 31.5405 35.7629 31.6223 37.7687C31.6727 39.0087 31.907 40.9725 30.8597 41.8845C30.9998 41.8022 31.1386 41.7196 31.2783 41.6373C31.2235 41.6687 31.1682 41.7006 31.1134 41.732C31.2545 41.6524 31.3955 41.5732 31.5365 41.4932C29.8389 42.0489 29.1236 39.4658 28.5683 38.3602C27.6156 36.4605 25.3628 35.4946 24.9477 33.2753C24.708 31.9932 25.4631 30.6665 25.6753 29.4252C25.8628 28.3306 25.2876 27.4075 24.6267 26.61C23.311 25.0229 22.8831 23.11 24.7991 21.7245C24.6599 21.8076 24.5206 21.8898 24.3809 21.972C24.4808 21.915 24.5798 21.8575 24.6793 21.8001C24.5383 21.8796 24.3968 21.9592 24.2558 22.0392C25.6271 21.4123 27.1139 21.4247 28.582 21.6232C29.6833 21.7713 30.7518 22.0697 31.8592 22.1825C32.869 22.2855 33.5988 21.9526 34.5838 22.407C34.758 22.4871 35.2606 21.8447 35.4242 21.9203Z" fill="#569DE2"/>
</g>
<g opacity="0.27">
<path d="M36.537 21.5967C36.9087 22.056 37.4941 21.6431 38.0144 21.7209C38.7774 21.8381 38.8451 22.2382 39.2315 22.7298C39.7978 23.4605 39.9176 23.575 40.43 23.1325C40.4392 23.1259 40.5237 22.7837 40.7231 22.6414C40.9684 22.4676 41.5767 22.3668 41.8672 22.3805C42.7058 22.4141 42.9207 22.7395 43.0193 23.5428C43.159 24.6922 42.9724 25.5883 43.4079 26.6749C43.9786 28.0772 44.0206 28.7373 45.7443 28.9128C45.8287 28.1427 45.739 27.5993 46.334 27.0255C46.9662 26.4265 47.9216 26.1803 48.5064 25.5666C49.1254 24.9207 48.8022 23.5233 48.6329 22.678C48.2447 20.7793 47.3906 19.1595 46.5975 17.3589C46.04 16.102 45.1643 15.4415 44.4291 14.4393C43.6399 13.3646 43.1842 12.4773 41.9145 12.0114C41.3106 11.7917 40.7629 11.6321 40.1727 11.3443C39.8446 11.19 39.8446 10.9539 39.3999 10.9203C39.1727 10.9 38.8902 11.19 38.6086 11.19C37.6908 11.1847 37.5316 10.7377 36.7545 11.3416C36.0175 11.9132 36.1369 12.4141 35.7297 13.1184C35.1864 13.1772 34.4074 12.2709 34.1033 11.8496C33.6081 11.1666 33.9702 9.37567 32.5865 10.0308C32.0785 10.2678 31.239 11.7209 31.8155 12.2267C32.132 12.4981 32.7271 12.1073 33.0944 12.3978C33.3844 12.625 33.5436 13.0843 33.3588 13.3646C32.3659 13.7046 32.8853 12.3067 31.8115 12.6714C32.2973 13.6338 31.2041 13.3841 30.6877 13.4137C29.8345 13.4628 29.3486 13.8704 29.1223 14.6078C28.9012 15.3195 29.2235 15.7112 28.273 15.736C27.0626 15.7713 26.5604 14.8562 25.3628 15.6493C24.2836 16.3708 23.1117 18.6369 24.6285 19.625C25.1793 19.9853 26.6864 19.9853 27.3084 20.0299C28.2991 20.0936 28.2063 19.9853 28.6612 19.4451C28.7947 19.2833 29.0538 18.7753 29.258 18.7116C29.6042 18.602 30.1302 18.7545 30.5281 18.6533C31.0087 18.5291 31.4817 18.0463 32.0153 18.3399C32.4534 18.5786 32.468 19.3956 32.9764 19.6745C34.0356 20.255 33.6015 19.2435 33.9534 18.7448C34.3782 18.1414 36.4923 17.8739 37.0728 18.4314C37.9857 19.2974 36.441 19.1971 36.155 19.7196C35.7222 20.5083 36.4967 21.0145 36.6055 21.6904" fill="#569DE2"/>
<path d="M36.2567 21.7589C37.0241 22.2519 37.8566 21.5795 38.5754 22.358C38.8787 22.6869 39.3004 23.8014 39.8928 23.4875C40.414 23.2112 40.6479 22.9641 41.0033 22.4787C40.8168 22.587 40.6298 22.6953 40.4428 22.8032C42.9207 21.7329 42.7208 24.0772 42.8645 25.797C43.0025 27.4482 43.7982 28.8416 45.4644 29.075C45.5175 29.0821 46.0219 28.7921 46.0254 28.7514C46.1417 27.3668 46.5445 26.8239 47.7513 26.1316C48.3393 25.7934 48.857 25.4787 49.0922 24.8009C49.5316 23.5352 48.6819 21.4937 48.258 20.3429C47.6024 18.5653 46.8221 16.7475 45.5714 15.3111C44.6112 14.2081 43.9052 12.8213 42.6351 12.0445C41.9888 11.6493 41.1479 11.4937 40.4525 11.1834C40.1351 11.0419 40.0347 10.8575 39.6797 10.7594C39.422 10.6878 38.827 11.0242 38.4865 10.9964C36.7408 10.8553 36.2248 11.6635 35.449 13.2819C35.6355 13.1741 35.823 13.0658 36.01 12.9579C34.7483 12.7643 34.2456 11.4787 33.995 10.4048C33.815 9.63252 33.2408 9.65286 32.659 9.98663C32.1333 10.2881 31.8057 10.6303 31.5131 11.1913C30.5162 13.1029 33.4901 11.812 33.0785 13.5277C33.2651 13.4199 33.4525 13.312 33.6395 13.2041C32.7916 13.3673 32.983 12.3315 32.0922 12.5109C32.0325 12.5229 31.5263 12.8217 31.5312 12.8346C31.6435 13.1635 31.7355 13.2983 31.4552 13.5216C31.6422 13.4132 31.8292 13.3058 32.0162 13.1979C31.2686 13.3686 30.5683 13.2214 29.8769 13.6237C28.9154 14.182 29.1148 14.9402 28.586 15.7541C28.773 15.6458 28.96 15.5379 29.147 15.43C28.2408 15.8611 27.35 15.1847 26.4326 15.1732C26.0476 15.1679 25.6833 15.4623 25.361 15.6484C24.2306 16.301 23.4499 17.6201 23.693 18.9353C23.9287 20.2072 27.0047 20.6285 27.9437 20.1069C28.6572 19.7108 28.9282 19.0662 29.5374 18.5512C29.3508 18.659 29.1638 18.7669 28.9764 18.8748C29.5502 18.8147 30.0591 18.8907 30.6068 18.6741C31.1413 18.4623 31.4782 18.2647 31.953 18.7063C32.273 19.003 32.563 20.3986 33.3292 19.9734C33.4923 19.8827 33.6541 19.7895 33.8137 19.694C34.3031 19.3995 33.9972 18.6674 34.6037 18.297C34.4198 18.4031 34.2359 18.5087 34.052 18.6148C34.6988 18.3465 35.3429 18.2656 36.0396 18.3124C36.4817 18.3421 37.46 18.8376 36.8787 19.316C37.0621 19.2099 37.2456 19.1033 37.4291 18.9972C37.0365 19.1887 36.6647 19.339 36.2907 19.5591C35.2911 20.1502 36.0697 21.0313 36.3247 21.8531C36.3115 21.812 36.9008 21.5795 36.8853 21.5295C36.6709 20.8363 35.8102 19.8642 36.7341 19.3089C36.5591 19.4088 36.3844 19.5092 36.2098 19.6086C36.5891 19.4451 36.9468 19.2828 37.3026 19.0746C38.2562 18.5167 36.7929 18.0012 36.2659 17.9663C35.5493 17.9181 34.8641 18.14 34.2567 18.4933C33.5582 18.8991 33.7704 19.5185 33.2903 19.9941C33.4764 19.8867 33.6643 19.7784 33.8508 19.6705C32.7346 19.6736 32.8818 18.3173 31.9043 18.0874C31.5272 17.9986 30.7996 18.4941 30.3778 18.5286C30.1223 18.5498 29.7439 18.4362 29.4981 18.5724C28.7894 18.965 28.5224 19.6383 27.9035 20.1281C28.0905 20.0202 28.2779 19.9124 28.4653 19.8045C27.4384 20.148 25.4335 19.8973 24.6046 19.2161C23.3827 18.2121 24.7682 16.1652 25.6426 15.4902C25.4587 15.5967 25.2752 15.7028 25.0913 15.8094C26.3924 15.1184 27.5454 16.3536 28.7925 15.6383C29.6594 15.1414 29.2284 14.0304 30.1952 13.4455C30.0206 13.5459 29.846 13.6458 29.6713 13.7461C30.3159 13.5304 32.5347 13.8001 32.0913 12.5118C31.9048 12.6197 31.7169 12.728 31.5303 12.8354C32.4211 12.6564 32.2293 13.6922 33.0776 13.5286C33.1594 13.5127 33.6214 13.2771 33.6386 13.205C33.9401 11.9486 32.808 12.3213 32.0953 12.0671C31.2695 11.7727 32.548 10.0941 32.8663 9.87125C32.6797 9.97912 32.4923 10.0874 32.3057 10.1949C33.2452 9.85666 33.388 10.4787 33.5551 11.2797C33.7399 12.1617 34.5308 13.1418 35.449 13.2828C35.5171 13.293 35.979 13.0224 36.01 12.9588C36.4136 12.1184 36.5166 11.5163 37.3685 10.9672C37.185 11.0733 37.0011 11.1789 36.8177 11.2846C37.227 11.156 37.5122 11.2364 37.9255 11.3217C38.5033 11.4411 38.8818 11.0185 39.4441 11.1745C39.846 11.2864 40.3354 11.7059 40.7575 11.8673C41.3482 12.0932 41.9079 12.2682 42.4507 12.6002C43.4211 13.194 43.9989 14.4583 44.7182 15.3054C45.7407 16.5092 46.3787 17.6674 47.033 19.1064C47.6324 20.4269 48.1342 21.7581 48.4211 23.1825C48.7133 24.6378 48.72 25.5856 47.2898 26.3779C46.1125 27.0299 45.5825 27.6599 45.4644 29.0764C45.651 28.968 45.8384 28.8611 46.0254 28.7528C44.7262 28.5711 44.2925 28.0578 43.8327 26.8787C43.3093 25.5335 43.7682 23.6904 43.0016 22.5123C42.6019 21.8973 41.3468 22.2828 40.8636 22.5582C40.4132 22.8146 40.2823 23.1975 39.8831 23.4946C40.0697 23.3867 40.2571 23.2784 40.4437 23.171C39.8305 23.3482 39.4344 22.4663 39.1373 22.0361C38.5471 21.1847 37.5423 21.9017 36.8172 21.4367C36.7301 21.3788 36.3354 21.8102 36.2567 21.7589Z" fill="#569DE2"/>
</g>
<g opacity="0.27">
<path d="M46.4636 39.5954C45.9361 39.2306 43.7403 39.0105 43.2018 39.4198C42.6727 39.7306 43.0776 40.2744 42.7376 40.6122C42.3986 40.9512 41.6806 41.232 41.4224 41.6847C41.0157 42.4941 41.2774 44.7572 42.1532 45.3668C43.5767 43.5383 46.044 41.8571 46.4936 39.4061" fill="#569DE2"/>
<path d="M46.8844 39.3522C45.7677 38.7275 43.7708 38.7072 42.781 39.6621C42.3473 40.0817 42.5971 40.6192 42.12 41.0206C41.6174 41.4433 41.0661 41.6002 40.8804 42.293C40.6063 43.3177 40.9034 44.9079 41.7332 45.6095C41.7651 45.6369 42.517 45.1948 42.5745 45.1232C44.1178 43.209 46.3513 41.6882 46.9149 39.163C46.8689 39.3717 46.1223 39.43 46.0736 39.6488C45.51 42.174 43.2761 43.6944 41.7332 45.6095C42.0131 45.4473 42.2942 45.2859 42.5745 45.1232C41.7306 44.4092 41.5922 43.064 41.6855 42.0295C41.7483 41.3398 42.1837 41.0671 42.7257 40.6966C43.3937 40.239 43.113 39.6687 43.6231 39.1763C43.4131 39.2996 43.2027 39.4229 42.9927 39.5463C43.0347 39.5215 43.078 39.4968 43.1214 39.472C43.0506 39.5114 42.9812 39.5498 42.9105 39.5892C43.811 39.2784 45.2062 39.3695 46.044 39.8385C46.193 39.9225 46.7456 39.2748 46.8844 39.3522Z" fill="#569DE2"/>
</g>
<g opacity="0.27">
<path d="M26.5825 11.4902C26.8681 12.2086 27.5445 12.8828 27.1497 13.6042C26.6647 12.9557 26.5432 11.7758 26.4609 10.9849C26.5697 11.5839 28.6417 14.007 27.1908 13.3164" fill="#569DE2"/>
<path d="M26.1616 11.7329C26.4547 12.4106 27.0767 13.0795 26.7288 13.8478C27.0095 13.686 27.2903 13.5233 27.5701 13.3615C27.0502 12.6082 26.9746 11.6272 26.8813 10.7417C26.6011 10.904 26.3203 11.0658 26.0396 11.2276C26.1355 11.6334 27.5807 13.3642 27.2363 13.6635C27.5166 13.5008 27.7973 13.339 28.0781 13.1772C27.9313 13.2408 27.7425 13.1325 27.6121 13.0742C27.4348 12.9933 26.9362 13.6352 26.7704 13.56C27.1731 13.7426 27.2894 13.6383 27.6594 13.4248C27.9843 13.2364 28.212 13.2006 28.0538 12.8125C27.7607 12.0941 27.0604 11.5008 26.8813 10.7417C26.9043 10.8385 26.0272 11.1087 26.0396 11.2276C26.1324 12.1131 26.2089 13.0941 26.7288 13.8478C26.7222 13.8377 27.5343 13.442 27.5701 13.3615C27.9189 12.5941 27.2965 11.9248 27.0034 11.2475C27.0149 11.2744 26.1435 11.6922 26.1616 11.7329Z" fill="#569DE2"/>
</g>
<g opacity="0.27">
<path d="M11.2823 9.89336C11.7792 10.6259 11.411 13.3133 11.0927 13.3487C10.777 13.3841 7.87164 15.9287 7.87164 15.9287C7.87164 15.9287 8.40701 18.6772 7.65502 19.3606C7.33186 17.1086 5.73504 18.0406 4.64397 18.3045L4.6338 18.3982C6.23725 15.3036 8.57854 12.48 11.1652 10.0728" fill="#569DE2"/>
<path d="M10.8619 10.1361C11.1979 10.8164 11.3951 13.0724 10.6723 13.5914C10.953 13.4296 11.2333 13.2678 11.514 13.1056C10.4578 13.4995 9.52637 14.4044 8.69038 15.1073C8.23415 15.4906 7.40568 15.8721 7.50692 16.5025C7.65811 17.4451 7.87916 18.8032 7.23459 19.6033C7.51488 19.4406 7.7956 19.2788 8.07588 19.117C7.68773 17.2457 6.51753 17.6643 5.06484 18.0613C4.94945 18.0927 4.23416 18.4504 4.22355 18.5472C4.21957 18.5786 4.21647 18.6095 4.21294 18.6409C4.23283 18.4601 4.95785 18.3368 5.05423 18.1546C6.7346 15.0025 8.99542 12.274 11.586 9.82925C11.3579 10.0445 10.9746 10.0976 10.7448 10.3155C8.15369 12.7603 5.89331 15.4888 4.21294 18.6409C4.49366 18.4787 4.77394 18.3169 5.05423 18.1546C5.05776 18.1237 5.0613 18.0927 5.06484 18.0613C4.78411 18.2231 4.50339 18.3854 4.22355 18.5472C5.67536 18.1498 6.84644 17.7311 7.23459 19.6033C7.21912 19.5304 7.99719 19.2147 8.07588 19.117C8.52151 18.5649 8.48791 17.8195 8.46625 17.1445C8.46006 16.949 8.18862 15.7766 8.31815 15.6621C9.26686 14.8332 10.228 13.8483 11.3164 13.2077C11.0768 13.3443 10.8367 13.4818 10.5967 13.6193C12.1059 13.056 12.3761 11.0096 11.7036 9.64932C11.7094 9.66259 10.8491 10.1113 10.8619 10.1361Z" fill="#569DE2"/>
</g>
<g opacity="0.27">
<path d="M16.6218 50.0883C19.0613 51.4212 22.0555 51.9636 24.7867 52.0211C26.8597 52.1082 32.8473 52.0587 34.2125 50.1732C29.7191 47.8783 22.3628 51.3482 18.0056 48.8562C16.7938 48.1334 12.9402 48.239 12.9402 48.239C12.9402 48.239 16.0706 50.1117 17.1431 50.2691" fill="#569DE2"/>
<path d="M16.2014 50.331C19.8853 52.2439 24.1139 52.48 28.1859 52.1944C30.3256 52.0445 32.846 51.6608 34.4817 50.1126C34.8835 49.7319 32.6864 49.2907 32.3137 49.2284C31.3075 49.0587 30.2668 49.0896 29.2509 49.1294C26.9556 49.2209 24.6842 49.5936 22.3822 49.556C20.4958 49.5251 19.1227 48.6599 17.3703 48.2585C16.0812 47.9632 14.6784 47.964 13.361 47.9959C13.1895 47.9994 12.6382 48.5525 12.5197 48.4817C13.8111 49.2501 15.2377 50.1944 16.7222 50.5113C16.9618 50.5626 17.3332 49.9764 17.5635 50.0259C16.079 49.709 14.6528 48.7647 13.361 47.9959C13.0803 48.1577 12.8 48.3195 12.5197 48.4817C13.5127 48.4587 14.5065 48.4981 15.4945 48.5918C17.0661 48.7386 18.3217 49.5772 19.85 49.8796C23.5241 50.6086 27.3433 49.3341 31.0542 49.6612C31.8756 49.7346 32.6674 49.9455 33.4313 50.2461C34.2518 50.5697 33.0851 50.9539 32.7173 51.0794C31.1912 51.6015 29.4985 51.7001 27.8999 51.7739C24.1882 51.9455 20.3822 51.5785 17.0432 49.8451C16.8827 49.7629 16.35 50.4088 16.2014 50.331Z" fill="#569DE2"/>
</g>
<g opacity="0.27">
<path d="M14.9569 8.92607C14.3111 9.21166 14.5966 9.49769 14.5966 9.92607C14.5277 10.3567 14.5277 11.1453 14.5277 11.6445C14.5277 12.4309 14.7416 14.2245 15.5294 14.7276C16.9622 15.6551 16.6055 13.3651 16.9622 12.7192C17.5343 11.5742 18.7509 11.7921 19.6121 11.0008C20.6152 10.0003 19.5405 9.56798 19.2527 8.49548C19.182 8.20989 19.5405 7.70636 19.3968 7.4915C19.0365 7.13518 18.395 7.42033 17.9667 7.4915C17.0339 7.78107 15.5294 8.20989 14.8871 8.92607" fill="#569DE2"/>
<path d="M14.5927 9.13386C13.7713 9.63032 14.0922 11.2461 14.1126 12.1255C14.1355 13.11 14.4229 15.2744 15.8084 15.1719C17.6426 15.0362 16.7452 12.3478 18.2492 11.7868C18.7633 11.595 19.2562 11.2886 19.7204 10.9973C20.285 10.6436 20.5635 10.1635 20.338 9.53262C20.025 8.6564 19.5807 8.43359 19.8464 7.45614C20.0869 6.57108 16.453 7.90751 16.1263 8.08921C15.5454 8.41149 14.9547 8.71343 14.4667 9.16967C14.6957 8.95525 15.0763 8.90044 15.308 8.68381C15.468 8.51317 15.6479 8.36772 15.8482 8.24747C15.609 8.38629 15.3703 8.52599 15.1316 8.66525C15.6307 8.38408 18.8619 6.89513 19.0042 7.94244C19.0347 8.16436 18.8442 8.49902 18.8318 8.73952C18.8164 9.0419 19.1846 9.49681 19.3371 9.73951C19.7943 10.469 19.5467 10.9712 18.8928 11.4738C19.1541 11.3222 19.4149 11.171 19.6758 11.0189C18.9141 11.4389 18.0975 11.6993 17.3482 12.1489C16.09 12.904 16.7571 14.1524 15.9574 15.0919C16.2324 14.9327 16.5082 14.7731 16.7832 14.614C15.0542 15.5468 14.216 9.38717 15.3217 8.71962C15.3632 8.69354 14.7584 9.03395 14.5927 9.13386Z" fill="#569DE2"/>
</g>
<g opacity="0.27">
<path d="M19.6687 6.72847C20.2991 7.31777 22.9658 6.6626 23.7553 6.61131C25.4026 6.58081 26.5772 5.38718 28.2819 6.00433C28.991 6.23156 29.338 6.66923 30.2717 6.62281C30.987 6.56622 31.6404 6.2992 32.4269 6.31556C33.6426 6.34341 34.8274 7.0534 35.968 7.17453C32.9074 5.171 25.315 4.70681 24.5759 5.129C23.8371 5.54323 24.5759 5.129 24.647 5.129C23.2129 5.23466 18.7041 5.19929 18.2332 6.83545C18.7359 6.77444 19.2412 6.64359 19.666 6.79611" fill="#569DE2"/>
<path d="M19.388 6.89028C20.1948 7.40531 21.4472 7.07286 22.327 6.93846C23.6488 6.73643 24.8584 6.47074 26.1462 6.10425C27.7399 5.65022 28.9415 6.93227 30.5188 6.71079C31.4764 6.57639 32.2156 6.43051 33.1811 6.63917C34.033 6.82352 34.8216 7.18824 35.6881 7.33723C35.8062 7.35712 36.1625 6.95968 36.2483 7.01273C34.1435 5.71388 31.5286 5.30053 29.1112 5.01008C27.6935 4.83944 25.7739 4.44863 24.4631 5.18692C24.3049 5.27622 24.1501 5.39028 23.9852 5.46543C24.1112 5.40752 24.2456 5.33944 24.3672 5.29081C24.5343 5.22361 24.7545 4.97781 24.9282 4.96632C23.1081 5.08347 20.968 4.95084 19.3102 5.82971C19.0714 5.95615 18.8407 6.09894 18.609 6.23599C18.4384 6.33678 18.3004 6.46587 18.163 6.6069C17.5352 7.25013 18.976 6.89249 19.3862 6.95703C19.5546 6.98356 19.7845 6.6069 19.9472 6.63342C19.4371 6.55296 19.0241 6.59983 18.5135 6.67277C18.46 6.68028 19.2014 5.89602 19.2394 5.87348C19.0794 5.96455 18.9194 6.0565 18.7593 6.14801C20.4848 5.33413 22.5042 5.40973 24.3672 5.29037C24.5542 5.18205 24.7412 5.07419 24.9282 4.96587C24.7187 5.05031 24.7965 5.02644 24.5462 5.14094C24.3871 5.23334 24.2275 5.32662 24.0683 5.41901C25.3491 4.69797 27.563 5.21388 28.9295 5.37834C31.2182 5.65376 33.6992 6.10867 35.6881 7.3359C35.8747 7.22759 36.0617 7.11928 36.2483 7.01141C34.6183 6.73201 33.3 5.98356 31.6037 6.27887C30.7438 6.42741 30.117 6.5344 29.3004 6.17056C28.5622 5.84165 27.9658 5.63961 27.1444 5.69399C26.4145 5.74218 25.6727 6.11265 24.9755 6.31335C24.4207 6.4725 23.8088 6.4672 23.2377 6.5565C22.2739 6.70814 20.8376 7.13121 19.9494 6.5649C19.8619 6.51008 19.4684 6.94112 19.388 6.89028Z" fill="#569DE2"/>
</g>
<g opacity="0.27">
<path d="M33.7178 40.9866C33.6461 40.4844 34.2907 38.4831 34.6484 38.1223C34.5789 38.9809 34.2903 40.4844 33.5745 40.9866C33.7178 40.6276 33.9335 40.2001 34.1475 39.9831" fill="#569DE2"/>
<path d="M34.1386 40.743C34.0975 40.2536 34.2973 39.7191 34.4428 39.2589C34.5869 38.8049 34.7469 38.2466 35.0692 37.8801C34.7889 38.0419 34.5082 38.2037 34.2279 38.3659C34.1417 39.3213 33.9609 40.5976 33.1541 41.2302C33.4339 41.0684 33.7155 40.9057 33.9958 40.7435C34.1457 40.3845 34.3106 40.0361 34.5683 39.7412C34.3681 39.9707 33.93 39.995 33.727 40.228C33.4693 40.5229 33.3031 40.8712 33.1541 41.2302C33.2328 41.0419 33.8212 40.8801 33.9958 40.7435C34.8022 40.1117 34.9835 38.8359 35.0692 37.8801C35.0564 38.0233 34.3442 38.2337 34.2279 38.3659C33.9034 38.7351 33.7522 39.289 33.6019 39.7457C33.4512 40.1997 33.2562 40.7426 33.2973 41.2298C33.2867 41.0985 34.151 40.888 34.1386 40.743Z" fill="#569DE2"/>
</g>
<g opacity="0.27">
<path d="M25.7712 13.2063C25.6996 13.0636 25.4149 12.9928 25.4149 12.7753C24.9839 13.3487 25.559 13.6343 26.0564 13.8522C25.9132 13.4919 25.6996 13.1361 25.4839 12.8483C25.4149 12.9208 25.3411 12.9933 25.1979 13.0636" fill="#569DE2"/>
<path d="M26.1917 12.9632C26.0794 12.7992 25.8676 12.7492 25.8354 12.5326C25.8389 12.5552 25.4401 12.7545 25.4123 12.7709C25.3097 12.8301 25.0626 12.9168 24.9941 13.0185C24.6068 13.5896 25.1599 13.8845 25.636 14.0949C25.7014 14.1241 26.4728 13.5976 26.4773 13.6091C26.3278 13.2497 26.1347 12.919 25.9052 12.6047C25.8981 12.5954 25.1289 13.0251 25.0639 13.0905C25.0029 13.152 24.9432 13.2024 24.8729 13.2528C25.1342 13.1011 25.395 12.9495 25.6559 12.7983C25.624 12.8155 25.5922 12.8337 25.5604 12.8514C25.3667 12.9597 25.1753 13.0706 24.9839 13.1825C24.9618 13.1953 24.6793 13.3633 24.8358 13.2753C25.1926 13.0759 25.6143 12.8987 25.9052 12.6047C25.6245 12.7669 25.3438 12.9287 25.0639 13.0905C25.2934 13.4048 25.4861 13.7355 25.6355 14.0945C25.9163 13.9327 26.1961 13.7709 26.4768 13.6086C26.0011 13.3982 25.4481 13.1033 25.8354 12.5326C25.5551 12.6944 25.2748 12.8558 24.9941 13.018C25.0255 13.2355 25.2381 13.2846 25.3504 13.4491C25.3685 13.4756 26.182 12.9491 26.1917 12.9632Z" fill="#569DE2"/>
</g>
<path d="M22.857 24.4579C22.857 24.4579 12.9706 27.6113 9.61123 40.5954C6.25049 53.5768 19.2903 26.9654 22.857 24.4579Z" fill="white"/>
<path d="M26.273 23.6661C26.273 23.6661 29.1859 33.6259 42.0807 37.308C54.9724 40.991 28.693 27.2925 26.273 23.6661Z" fill="white"/>
<path d="M25.5369 20.4071C25.5369 20.4071 24.4724 10.083 35.0219 1.80672C45.571 -6.4709 26.4105 16.1374 25.5369 20.4071Z" fill="white"/>
<path d="M24.6727 21.1405C24.6727 21.1405 21.3663 24.5627 25.9543 23.2939L24.6727 21.1405Z" fill="white"/>
<path d="M24.7416 26.6365L20.7323 59.2956C20.7323 59.2956 23.0993 65.7465 28.567 59.6731L24.7416 26.6365Z" fill="white"/>
<path d="M38.6404 59.7571L38.1833 47.8761H40.7571V53.1617C40.7571 54.6055 40.7213 55.9503 40.685 57.0224H40.7213C41.1404 55.8619 41.5635 54.6449 42.1108 53.1961L44.2447 47.8761H47.0299L46.9949 53.1816C46.9795 54.6055 46.9432 55.7908 46.8742 56.9556H46.907C47.311 55.7187 47.7531 54.4464 48.2275 53.1617L50.2717 47.8761H52.952L47.7182 59.7571H44.9481L44.8765 54.892C44.8605 53.4839 44.8959 52.2824 44.9684 50.945H44.9353C44.5117 52.2081 44.0895 53.4999 43.5029 54.9411L41.4605 59.7571H38.6404Z" fill="white"/>
<path d="M54.3097 59.7571L53.853 47.8761H56.4242V53.1617C56.4242 54.6055 56.3884 55.9503 56.3561 57.0224H56.3888C56.8119 55.8619 57.2381 54.6449 57.7849 53.1961L59.9122 47.8761H62.7009L62.6651 53.1816C62.6492 54.6055 62.6165 55.7908 62.5418 56.9556H62.5776C62.9808 55.7187 63.4237 54.4464 63.8994 53.1617L65.945 47.8761H68.624L63.3875 59.7571H60.6196L60.5537 54.892C60.5347 53.4839 60.567 52.2824 60.6377 50.945H60.6063C60.1797 52.2081 59.7593 53.4999 59.1806 54.9411L57.1306 59.7571H54.3097Z" fill="white"/>
<path d="M75.9586 54.7006H71.7451L71.2005 57.5869H75.9387L75.5152 59.7571H68.2376L70.4914 47.8761H77.5276L77.1036 50.0405H72.624L72.1328 52.5653H76.383L75.9586 54.7006Z" fill="white"/>
<path d="M81.0678 56.6692L79.6784 59.7571H76.9635L82.7593 47.8761H86.0183L87.3994 59.7571H84.7376L84.4905 56.6692H81.0678ZM84.3795 54.7289L84.1585 52.1749C84.1005 51.5251 84.0501 50.5715 83.9967 49.8487H83.9427C83.6452 50.5715 83.3088 51.4893 82.9914 52.1749L81.8287 54.7289H84.3795Z" fill="white"/>
</svg>
