<svg width="13" height="12" viewBox="0 0 13 12" fill="none" xmlns="http://www.w3.org/2000/svg">
<path fill-rule="evenodd" clip-rule="evenodd" d="M0 6C0 5.77271 0.085593 5.55473 0.237949 5.39402C0.390306 5.2333 0.596945 5.14301 0.812409 5.14301H10.225L6.7365 1.46482C6.58395 1.3039 6.49825 1.08565 6.49825 0.858071C6.49825 0.630497 6.58395 0.412243 6.7365 0.251323C6.88905 0.0904038 7.09595 0 7.31168 0C7.52742 0 7.73432 0.0904038 7.88687 0.251323L12.7613 5.39325C12.837 5.47286 12.897 5.56743 12.938 5.67154C12.9789 5.77566 13 5.88728 13 6C13 6.11272 12.9789 6.22434 12.938 6.32846C12.897 6.43257 12.837 6.52714 12.7613 6.60675L7.88687 11.7487C7.73432 11.9096 7.52742 12 7.31168 12C7.09595 12 6.88905 11.9096 6.7365 11.7487C6.58395 11.5878 6.49825 11.3695 6.49825 11.1419C6.49825 10.9144 6.58395 10.6961 6.7365 10.5352L10.225 6.85699H0.812409C0.596945 6.85699 0.390306 6.7667 0.237949 6.60598C0.085593 6.44527 0 6.22729 0 6Z" fill="#3B3B3B"/>
</svg>
