<svg width="164" height="133" viewBox="0 0 164 133" fill="none" xmlns="http://www.w3.org/2000/svg">
<g clip-path="url(#clip0_2_2972)">
<g style="mix-blend-mode:multiply">
<path d="M9.101 122.723C13.5914 123.568 59.2122 129.376 73.503 130.665C94.7222 132.579 125.751 125.786 137.869 123.07C149.984 120.35 141.265 119.623 133.623 118.482C125.983 117.345 68.5606 116.715 68.5606 116.715C68.5606 116.715 5.51474 117.938 4.1164 119.511C2.71505 121.083 4.61667 121.877 9.101 122.72V122.723Z" fill="#E7EBEE"/>
</g>
<g style="mix-blend-mode:multiply">
<path d="M11.0689 120.207C16.0746 121.208 49.0139 126.115 61.6442 127.383C74.2775 128.652 108.464 124.688 119.199 122.68C129.934 120.673 122.77 119.745 115.522 118.805C108.492 117.892 62.9702 116.779 62.9702 116.779C62.9702 116.779 2.47997 115.815 1.22327 117.089C-0.0364375 118.364 6.0602 119.206 11.0719 120.207H11.0689Z" fill="#E7EBEE"/>
</g>
<path d="M17.9793 107.902H14.7335V119.824H17.9793V107.902Z" fill="#5C666E"/>
<path opacity="0.3" d="M15.6497 107.902H15.1524V119.824H15.6497V107.902Z" fill="white"/>
<path opacity="0.5" d="M17.5483 107.902H16.7858V119.824H17.5483V107.902Z" fill="black"/>
<path d="M29.3197 112.788L0.939992 114.789L0.686844 114.361L29.1509 108.824L29.6813 111.738L29.3197 112.788Z" fill="#131A1D"/>
<path d="M36.2812 76.9719L35.6212 76.8411L10.6078 91.9261L0.686844 114.36L29.6813 111.738L36.2812 76.9719Z" fill="#424D54"/>
<path d="M10.3818 91.7527L35.6213 76.8411L33.9909 85.3068L7.65446 97.9248L10.3848 91.7497L10.3818 91.7527ZM4.35751 105.387L31.8301 96.5194L33.9004 85.7692L7.51282 98.2503L4.36053 105.387H4.35751ZM0.503036 114.105L28.9972 111.224L31.7155 97.1187L4.19176 105.764L0.50605 114.108L0.503036 114.105Z" fill="#E5E6EC"/>
<path d="M30.4347 81.6078L30.067 81.6656L30.3895 80.3819L30.8385 79.9712L34.0843 78.0731L34.5062 77.9788L34.2349 79.3051L33.7347 79.7461L30.4407 81.6048L30.4347 81.6078ZM29.829 81.7994L30.1514 80.5188L29.7928 80.5857L26.9419 82.2557L26.535 82.6299L26.1734 83.871L26.4898 83.8345L29.3799 82.204L29.829 81.7994ZM25.9655 83.9866L26.3301 82.7485L26.0227 82.7942L23.4942 84.2756L23.1236 84.6224L22.7348 85.8209L23.006 85.8027L25.5616 84.3608L25.9685 83.9927L25.9655 83.9866ZM22.548 85.9213L22.9397 84.7258L22.6775 84.7532L20.4203 86.0764L20.0828 86.3958L19.6699 87.5518L19.902 87.5426L22.1773 86.262L22.548 85.9213ZM19.5042 87.6461L19.914 86.4901L19.688 86.5023L17.6628 87.6887L17.3494 87.9868L16.9245 89.1032L17.1294 89.1093L19.1666 87.9594L19.5072 87.643L19.5042 87.6461ZM16.7738 89.1914L17.1987 88.075H16.9998L15.1705 89.1488L14.8812 89.4287L14.4442 90.5085L14.619 90.5207L16.4543 89.4834L16.7677 89.1883L16.7738 89.1914ZM14.3146 90.5846L14.7486 89.5078L14.5768 89.5017L12.9163 90.472L12.6451 90.7367L12.2051 91.7801L12.3588 91.8014L14.0223 90.8645L14.3116 90.5876L14.3146 90.5846ZM12.0845 91.847L12.5245 90.8036L12.3738 90.7915L10.861 91.6767L10.6078 91.9231L10.1648 92.933L10.2974 92.9604L11.8133 92.1086L12.0815 91.8501L12.0845 91.847ZM33.3399 81.6078L33.8522 81.1637L34.1385 79.7735L33.7106 79.8526L30.4136 81.7082L29.9555 82.1158L29.618 83.4604L29.9917 83.4147L33.3429 81.6078H33.3399ZM25.9865 85.5745L28.9158 83.9957L29.3739 83.5912L29.7114 82.2497L29.3498 82.3014L26.4597 83.9288L26.0468 84.303L25.6701 85.5958L25.9865 85.5745ZM22.5962 86.2377L22.1893 87.4818L22.4606 87.4757L25.0433 86.0825L25.4561 85.7114L25.8328 84.4216L25.5255 84.4551L22.9699 85.8939L22.5932 86.2377H22.5962ZM19.5253 87.9594L19.1003 89.1579L19.3354 89.164L21.6318 87.9259L22.0055 87.5822L22.4123 86.3411L22.1471 86.3563L19.8718 87.6369L19.5283 87.9564L19.5253 87.9594ZM16.7738 89.4986L16.3338 90.6576L16.5357 90.6728L18.588 89.5655L18.9316 89.2492L19.3595 88.0537H19.1305L17.0902 89.2036L16.7738 89.4986ZM14.2965 90.8888L13.8475 92.0052L14.0223 92.0295L15.8697 91.0348L16.1861 90.7397L16.6261 89.5868L16.4302 89.5808L14.5919 90.615L14.2996 90.8949L14.2965 90.8888ZM12.0514 92.1451L11.5963 93.222L11.747 93.2524L13.4166 92.352L13.7089 92.0752L14.1579 90.9588L13.9831 90.9436L12.3196 91.8805L12.0453 92.1421L12.0514 92.1451ZM10.2643 93.0425L10.0111 93.2889L9.55304 94.3323L9.68564 94.3657L11.2015 93.5475L11.4727 93.2889L11.9278 92.212L11.7771 92.1877L10.2613 93.0425H10.2643ZM32.93 83.5577L33.4544 83.1136L33.7528 81.6534L33.3158 81.7173L29.9646 83.5212L29.4975 83.9319L29.1449 85.3372L29.5246 85.3099L32.93 83.5607V83.5577ZM28.9008 85.462L29.2564 84.0596L28.8917 84.0992L25.9624 85.6749L25.5405 86.0521L25.1487 87.3997L25.4682 87.3906L28.4397 85.8665L28.9068 85.462H28.9008ZM22.0507 87.9168L21.6258 89.2127L21.897 89.2188L24.5099 87.8773L24.9288 87.5061L25.3235 86.1616L25.0131 86.1799L22.4304 87.57L22.0477 87.9168H22.0507ZM18.9527 89.5747L18.5096 90.8219L18.7417 90.8401L21.0562 89.6507L21.4359 89.31L21.8608 88.0172H21.5956L19.2992 89.2553L18.9496 89.5747H18.9527ZM16.1831 91.0561L15.728 92.2577L15.9269 92.282L17.9913 91.2234L18.3379 90.907L18.7809 89.6629L18.5518 89.6538L16.4995 90.758L16.1801 91.0531L16.1831 91.0561ZM13.6908 92.3915L13.2267 93.5444L13.4015 93.5809L15.2549 92.6288L15.5743 92.3337L16.0294 91.1382L15.8335 91.12L13.9861 92.1117L13.6908 92.3915ZM11.4396 93.5961L10.9695 94.7095L11.1201 94.749L12.7927 93.8882L13.0881 93.6144L13.5522 92.4615L13.3804 92.4341L11.7108 93.3345L11.4366 93.5961H11.4396ZM9.64948 94.4448L9.39332 94.6912L8.92017 95.765L9.05277 95.8076L10.5717 95.0289L10.8459 94.7734L11.316 93.6631L11.1684 93.6296L9.64948 94.4448ZM32.4991 85.6049L33.0325 85.1608L33.3489 83.6277L32.9059 83.6733L29.4975 85.4163L29.0213 85.827L28.6536 87.2993L29.0364 87.2902L32.5021 85.608L32.4991 85.6049ZM28.4035 87.421L28.7742 85.9517L28.4035 85.976L25.429 87.497L25.0041 87.8742L24.5942 89.2826L24.9167 89.2887L27.9273 87.8286L28.4035 87.424V87.421ZM24.3773 89.383L24.7901 87.9807H24.4767L21.8639 89.3191L21.4751 89.6659L21.0351 91.0166L21.3093 91.0379L23.9493 89.7572L24.3773 89.383ZM18.3499 91.2569L17.8888 92.5497L18.1239 92.5832L20.4595 91.4485L20.8452 91.1078L21.2852 89.7602L21.02 89.7481L18.7055 90.9344L18.3499 91.2538V91.2569ZM15.5623 92.6744L15.0891 93.9186L15.288 93.9581L17.3675 92.9482L17.7201 92.6318L18.1812 91.339L17.9521 91.3177L15.8847 92.3763L15.5593 92.6744H15.5623ZM13.0609 93.949L12.5818 95.1445L12.7536 95.1901L14.616 94.2867L14.9385 93.9916L15.4116 92.7505L15.2157 92.7201L13.3593 93.6691L13.0609 93.946V93.949ZM10.8037 95.0989L10.3185 96.2487L10.4662 96.3004L12.1448 95.4852L12.4431 95.2114L12.9223 94.019L12.7536 93.9825L11.078 94.8372L10.8007 95.0989H10.8037ZM8.75743 96.1392L8.27223 97.2465L8.39881 97.3012L9.92071 96.562L10.198 96.3035L10.6802 95.1567L10.5325 95.1141L9.01359 95.8928L8.75442 96.1362L8.75743 96.1392ZM31.7728 89.0758L32.3243 88.6286L32.6648 86.9647L32.2128 86.9799L28.7109 88.6134L28.2227 89.0241L27.8249 90.612L28.2167 90.6302L31.7788 89.0727L31.7728 89.0758ZM27.5657 90.7215L27.9665 89.1397L27.5898 89.1305L24.552 90.5481L24.1151 90.9223L23.6721 92.4341L23.9975 92.4706L27.0745 91.123L27.5627 90.7154L27.5657 90.7215ZM23.4521 92.5345L23.8921 91.0257L23.5756 91.0044L20.9176 92.2455L20.5198 92.5892L20.0496 94.0311L20.3239 94.0798L23.009 92.9056L23.449 92.5375L23.4521 92.5345ZM19.8598 94.1163L20.3299 92.6775L20.0647 92.641L17.7201 93.7361L17.3584 94.0555L16.8672 95.4335L17.1023 95.4882L19.465 94.454L19.8598 94.1133V94.1163ZM14.5437 95.3605L14.0404 96.6776L14.2393 96.7415L16.3368 95.8228L16.6954 95.5095L17.1866 94.1346L16.9576 94.0889L14.8722 95.0623L14.5437 95.3574V95.3605ZM12.0242 96.5286L11.5149 97.791L11.6837 97.8579L13.5582 97.0396L13.8867 96.7476L14.387 95.4335L14.1941 95.3818L12.3286 96.2548L12.0242 96.5316V96.5286ZM9.75797 97.578L9.24565 98.7918L9.3903 98.8618L11.0749 98.1226L11.3793 97.8518L11.8886 96.5925L11.7199 96.5347L10.0413 97.3195L9.76098 97.578H9.75797ZM9.49277 97.578L7.97087 98.2868L7.70868 98.5302L7.19636 99.6952L7.32293 99.7682L8.84483 99.1021L9.1251 98.8465L9.63441 97.6358L9.49277 97.575V97.578ZM31.2816 91.4151L31.8451 90.9709L32.2037 89.2157L31.7426 89.2096L28.1775 90.761L27.6772 91.1717L27.2583 92.8387L27.6531 92.8843L31.2755 91.4181L31.2816 91.4151ZM27.0052 92.9421L27.4271 91.2812L27.0474 91.2538L23.9674 92.5953L23.5214 92.9695L23.0603 94.5513L23.3888 94.6091L26.5079 93.3467L27.0052 92.9421ZM22.8343 94.6426L23.2984 93.0638L22.9819 93.0242L20.2937 94.1954L19.8929 94.5391L19.4017 96.0449L19.6759 96.1118L22.3912 95.0137L22.8373 94.6456L22.8343 94.6426ZM19.2028 96.124L19.694 94.6243L19.4258 94.5696L17.0601 95.6008L16.6954 95.9202L16.1861 97.356L16.4182 97.429L18.802 96.4647L19.2028 96.124ZM13.8656 97.143L13.3442 98.515L13.5401 98.591L15.6497 97.7393L16.0143 97.426L16.5236 95.9962L16.2976 95.9354L14.2001 96.851L13.8656 97.1461V97.143ZM11.3401 98.2351L10.8128 99.5462L10.9815 99.6253L12.859 98.8648L13.1905 98.5728L13.7149 97.2069L13.522 97.143L11.6475 97.9583L11.3401 98.2321V98.2351ZM9.07085 99.2146L8.54346 100.471L8.6851 100.553L10.3728 99.8717L10.6771 99.5979L11.2045 98.2929L11.0388 98.2229L9.35414 98.9561L9.07085 99.2146ZM7.28375 99.8595L7.02156 100.103L6.49116 101.307L6.61472 101.39L8.1336 100.775L8.41689 100.52L8.94729 99.2663L8.80565 99.1933L7.28375 99.8565V99.8595ZM30.7632 93.8851L31.3388 93.4379L31.7185 91.5854L31.2514 91.5519L27.623 93.0121L27.1137 93.4227L26.6737 95.1749L27.0715 95.2449L30.7602 93.8851H30.7632ZM26.4145 95.2753L26.8575 93.5292L26.4748 93.4775L23.3526 94.7338L22.8975 95.108L22.4154 96.7658L22.7469 96.8449L25.9112 95.6768L26.4205 95.2753H26.4145ZM22.1863 96.851L22.6715 95.1962L22.3521 95.1323L19.6368 96.2274L19.2269 96.5712L18.7146 98.1438L18.9888 98.229L21.7313 97.2161L22.1833 96.848L22.1863 96.851ZM18.5187 98.2199L19.034 96.6502L18.7658 96.5803L16.382 97.5385L16.0113 97.8549L15.4809 99.3485L15.713 99.4397L18.1118 98.5545L18.5187 98.2169V98.2199ZM13.1664 98.9956L12.624 100.419L12.8199 100.514L14.9385 99.7317L15.3061 99.4184L15.8365 97.9279L15.6105 97.8549L13.5009 98.7036L13.1634 98.9986L13.1664 98.9956ZM12.4703 100.477L13.0127 99.0564L12.8199 98.9773L10.9393 99.7317L10.6289 100.009L10.0834 101.368L10.2492 101.463L12.1327 100.766L12.4703 100.474V100.477ZM8.35662 100.915L7.81114 102.214L7.94977 102.308L9.63742 101.688L9.94783 101.42L10.4933 100.063L10.3276 99.9812L8.64291 100.66L8.3536 100.918L8.35662 100.915ZM6.57253 101.49L6.30732 101.733L5.75884 102.978L5.87938 103.075L7.39827 102.512L7.68457 102.26L8.23306 100.964L8.09141 100.879L6.56951 101.49H6.57253ZM30.2147 96.4982L30.8054 96.054L31.2032 94.095L30.7301 94.0311L27.0383 95.3878L26.52 95.7955L26.0559 97.6419L26.4597 97.7393L30.2117 96.4951L30.2147 96.4982ZM25.7907 97.7332L26.2578 95.8928L25.869 95.8168L22.7047 96.9788L22.2406 97.3499L21.7343 99.0899L22.0658 99.1933L25.2723 98.1317L25.7907 97.7301V97.7332ZM21.5052 99.169L22.0145 97.4351L21.6951 97.3499L18.9496 98.3568L18.5338 98.6975L17.9973 100.343L18.2716 100.45L21.0441 99.531L21.5052 99.1629V99.169ZM17.7984 100.41L18.3349 98.7705L18.0666 98.6792L15.6647 99.5614L15.2911 99.8778L14.7365 101.435L14.9686 101.545L17.3856 100.745L17.7984 100.407V100.41ZM14.5617 101.496L15.1163 99.9416L14.8933 99.8473L12.7716 100.626L12.4311 100.918L11.8675 102.4L12.0604 102.512L14.1911 101.806L14.5648 101.496H14.5617ZM11.7138 102.451L12.2774 100.973L12.0875 100.879L10.204 101.569L9.89057 101.843L9.324 103.254L9.48674 103.367L11.3733 102.74L11.7138 102.454V102.451ZM9.18537 103.297L9.75194 101.888L9.59222 101.791L7.90457 102.409L7.61525 102.664L7.04869 104.009L7.18731 104.118L8.87497 103.559L9.18839 103.291L9.18537 103.297ZM6.92513 104.054L7.49169 102.713L7.35608 102.612L5.83719 103.169L5.56898 103.409L5.00542 104.696L5.12296 104.809L6.63883 104.304L6.92513 104.051V104.054ZM29.2775 100.952L29.8923 100.51L30.3322 98.3659L29.847 98.2534L26.0498 99.4123L25.5134 99.8169L25.0101 101.828L25.42 101.974L29.2805 100.952H29.2775ZM24.7329 101.901L25.2422 99.899L24.8474 99.7804L21.6137 100.769L21.1376 101.137L20.5891 103.02L20.9236 103.166L24.1994 102.299L24.7359 101.904L24.7329 101.901ZM20.354 103.078L20.9055 101.201L20.583 101.076L17.7924 101.928L17.3675 102.266L16.7919 104.033L17.0661 104.182L19.8809 103.437L20.351 103.075L20.354 103.078ZM16.5899 104.091L17.1686 102.327L16.9034 102.202L14.4744 102.941L14.0916 103.251L13.5009 104.921L13.727 105.067L16.171 104.419L16.593 104.088L16.5899 104.091ZM13.3201 104.973L13.9138 103.309L13.6908 103.181L11.5571 103.832L11.2075 104.121L10.6048 105.7L10.7947 105.843L12.9374 105.274L13.3201 104.97V104.973ZM10.4541 105.746L11.0538 104.17L10.867 104.045L8.97442 104.623L8.65798 104.891L8.05525 106.391L8.21497 106.531L10.1076 106.029L10.4541 105.746ZM7.91963 106.427L8.52538 104.933L8.36566 104.809L6.68102 105.326L6.38869 105.578L5.78897 107.005L5.92158 107.142L7.60621 106.698L7.92265 106.433L7.91963 106.427ZM5.66541 107.035L6.26513 105.612L6.13253 105.49L4.61967 105.953L4.34844 106.19L3.75174 107.55L3.86324 107.683L5.37309 107.282L5.66541 107.035ZM28.6416 103.984L29.2684 103.546L29.7355 101.268L29.2413 101.119L25.3748 102.132L24.8263 102.533L24.2929 104.657L24.7057 104.842L28.6386 103.981L28.6416 103.984ZM24.0186 104.724L24.5551 102.609L24.1573 102.457L20.8784 103.315L20.3932 103.68L19.8146 105.661L20.1491 105.84L23.4671 105.116L24.0156 104.724H24.0186ZM19.5825 105.715L20.1611 103.741L19.8387 103.589L17.0209 104.328L16.5899 104.663L15.9842 106.518L16.2554 106.695L19.0973 106.074L19.5795 105.715H19.5825ZM15.7823 106.564L16.388 104.714L16.1228 104.562L13.6787 105.204L13.29 105.511L12.6722 107.254L12.8952 107.425L15.3543 106.886L15.7823 106.561V106.564ZM12.4914 107.3L13.1122 105.56L12.8922 105.414L10.7495 105.977L10.3969 106.263L9.77002 107.912L9.95687 108.076L12.1056 107.607L12.4914 107.306V107.3ZM9.61633 107.942L10.2432 106.302L10.0593 106.156L8.16676 106.652L7.84429 106.92L7.21745 108.477L7.37115 108.636L9.26373 108.222L9.61633 107.939V107.942ZM7.08184 108.508L7.70566 106.953L7.55197 106.81L5.86733 107.251L5.57199 107.501L4.94816 108.982L5.07775 109.137L6.75937 108.769L7.07882 108.508H7.08184ZM4.83063 109.01L5.45144 107.534L5.32186 107.397L3.81201 107.796L3.53777 108.03L2.91997 109.439L3.02846 109.588L4.53228 109.259L4.8246 109.013L4.83063 109.01ZM27.9635 107.212L28.6084 106.783L29.1057 104.362L28.6024 104.167L24.6635 105.016L24.106 105.414L23.5425 107.662L23.9584 107.887L27.9635 107.215V107.212ZM22.7017 108.097L23.2622 107.711L23.8288 105.472L23.4279 105.283L20.1039 106.001L19.6096 106.36L19.0009 108.447L19.3354 108.663L22.6986 108.097H22.7017ZM18.7658 108.49L19.3776 106.412L19.0551 106.226L16.2132 106.841L15.7732 107.172L15.1374 109.119L15.4086 109.323L18.2746 108.842L18.7628 108.49H18.7658ZM14.9354 109.153L15.5713 107.212L15.3061 107.035L12.847 107.565L12.4522 107.869L11.8042 109.694L12.0242 109.892L14.4985 109.475L14.9354 109.153ZM11.6295 109.728L12.2774 107.909L12.0604 107.735L9.91468 108.197L9.55605 108.483L8.90209 110.199L9.08592 110.388L11.2377 110.026L11.6295 109.728ZM8.74839 110.226L9.39934 108.514L9.22154 108.347L7.32896 108.757L7.00348 109.022L6.35253 110.643L6.50321 110.823L8.39278 110.503L8.74839 110.226ZM6.2139 110.668L6.86485 109.052L6.71417 108.891L5.03255 109.256L4.73419 109.502L4.08625 111.039L4.20982 111.209L5.88541 110.926L6.20787 110.668H6.2139ZM3.96872 111.057L4.61666 109.524L4.4931 109.369L2.98928 109.694L2.71504 109.928L2.07614 111.389L2.17861 111.553L3.67338 111.3L3.97174 111.057H3.96872ZM23.3466 108.456L22.7499 110.838L23.1688 111.106L27.2463 110.643L27.9063 110.223L28.4336 107.638L27.9243 107.397L23.9162 108.061L23.3436 108.453L23.3466 108.456ZM18.7929 109.183L18.151 111.385L18.4855 111.638L21.894 111.252L22.4636 110.874L23.0633 108.502L22.6595 108.274L19.2932 108.83L18.7929 109.186V109.183ZM14.9174 109.804L14.2513 111.851L14.5196 112.088L17.4097 111.76L17.9099 111.416L18.5549 109.22L18.2324 109.001L15.3634 109.475L14.9174 109.801V109.804ZM11.5782 110.339L10.9001 112.252L11.1171 112.474L13.6004 112.195L14.0434 111.878L14.7124 109.84L14.4502 109.63L11.979 110.041L11.5812 110.342L11.5782 110.339ZM8.67305 110.804L7.98895 112.599L8.16977 112.812L10.3245 112.566L10.7193 112.274L11.4004 110.369L11.1864 110.169L9.03469 110.525L8.67305 110.804ZM6.12349 111.212L5.4424 112.903L5.58706 113.107L7.47361 112.891L7.83224 112.617L8.51333 110.832L8.33853 110.643L6.44595 110.954L6.12048 111.215L6.12349 111.212ZM3.86324 111.574L3.1912 113.171L3.31174 113.366L4.98131 113.177L5.30679 112.922L5.98788 111.236L5.84322 111.054L4.16762 111.331L3.86626 111.574H3.86324ZM1.85012 111.897L1.1841 113.411L1.28053 113.594L2.76627 113.427L3.06462 113.186L3.73667 111.595L3.61612 111.419L2.12436 111.665L1.8471 111.893L1.85012 111.897Z" fill="#007A94"/>
<path opacity="0.4" d="M35.6212 76.8411L10.3818 91.7527L0.5 114.105L35.6212 76.8411Z" fill="white"/>
<path d="M55.3909 99.8048H49.9422V119.824H55.3909V99.8048Z" fill="#5C666E"/>
<path opacity="0.3" d="M51.4821 99.8048H50.6504V119.824H51.4821V99.8048Z" fill="white"/>
<path opacity="0.5" d="M54.6706 99.8048H53.3898V119.824H54.6706V99.8048Z" fill="black"/>
<path d="M74.4372 108.012L26.7822 111.367L26.3542 110.649L74.1539 101.35L75.049 106.248L74.4372 108.012Z" fill="#131A1D"/>
<path d="M86.1272 47.8634L85.0182 47.6444L43.0168 72.9778L26.3542 110.649L75.049 106.248L86.1272 47.8634Z" fill="#424D54"/>
<path d="M42.634 72.6858L85.0152 47.6475L82.2757 61.8625L38.0472 83.0527L42.631 72.6858H42.634ZM32.5172 95.5795L78.6503 80.6922L82.1251 62.6412L37.8122 83.5972L32.5202 95.5795H32.5172ZM26.0438 110.22L73.8917 105.381L78.4574 81.693L32.2369 96.2092L26.0438 110.22Z" fill="#E5E6EC"/>
<path d="M76.3117 55.6509L75.6909 55.7513L76.2303 53.5945L76.9868 52.9071L82.4355 49.716L83.1437 49.5579L82.6856 51.7876L81.8448 52.5298L76.3117 55.6509ZM75.2961 55.9764L75.8386 53.8227L75.2358 53.9352L70.4471 56.7399L69.763 57.3665L69.1543 59.4533L69.6847 59.3894L74.5367 56.6547L75.2931 55.9764H75.2961ZM68.8077 59.6511L69.4195 57.5704L68.9041 57.6495L64.6579 60.1347L64.034 60.7127L63.3801 62.7234L63.8321 62.69L68.1236 60.2686L68.8077 59.648V59.6511ZM63.0697 62.8968L63.7267 60.8922L63.2836 60.9408L59.4955 63.1615L58.9259 63.6969L58.2358 65.6376L58.6275 65.6254L62.4489 63.4748L63.0727 62.8999L63.0697 62.8968ZM57.9555 65.7958L58.6456 63.8581L58.2629 63.8794L54.8635 65.8749L54.3361 66.3738L53.6218 68.2506L53.9624 68.2567L57.3859 66.3251L57.9555 65.7928V65.7958ZM53.3717 68.3906L54.0859 66.5198L53.7514 66.5259L50.6805 68.3237L50.1953 68.7921L49.463 70.6082L49.7583 70.6295L52.8413 68.8895L53.3687 68.3967L53.3717 68.3906ZM49.24 70.7329L49.9693 68.9229L49.68 68.9108L46.8923 70.5412L46.4373 70.9823L45.6989 72.7345L45.9551 72.771L48.7518 71.1953L49.24 70.7298V70.7329ZM45.494 72.8531L46.2323 71.101L45.9792 71.0766L43.4387 72.5641L43.0137 72.9778L42.2724 74.6753L42.4954 74.7209L45.0419 73.2881L45.494 72.8531ZM81.1878 55.657L82.0467 54.9117L82.5229 52.5755L81.8056 52.7093L76.2695 55.8243L75.498 56.5118L74.9314 58.7658L75.5613 58.6928L81.1878 55.66V55.657ZM68.8408 62.3128L73.7591 59.6602L74.5276 58.9818L75.0972 56.7308L74.4884 56.819L69.6334 59.5507L68.9403 60.1773L68.3074 62.3493L68.8408 62.3097V62.3128ZM63.148 63.4261L62.4639 65.519L62.922 65.5068L67.2617 63.1676L67.9548 62.547L68.5907 60.3811L68.0754 60.4359L63.7839 62.8512L63.151 63.4292L63.148 63.4261ZM57.9916 66.316L57.2744 68.3297L57.6662 68.3419L61.5206 66.2612L62.1505 65.6863L62.8346 63.5995L62.3916 63.6269L58.5703 65.7775L57.9916 66.316ZM53.3717 68.9016L52.6334 70.8454L52.9709 70.8698L56.4185 69.0111L56.9971 68.4818L57.7144 66.4711H57.3286L53.9051 68.4027L53.3717 68.9016ZM49.2098 71.2348L48.4564 73.1086L48.7487 73.1482L51.8498 71.4782L52.3832 70.9823L53.1216 69.0446L52.7901 69.0324L49.7041 70.7663L49.2128 71.2348H49.2098ZM45.4428 73.3459L44.6803 75.1559L44.9334 75.2076L47.7392 73.6957L48.2304 73.2334L48.9868 71.3595L48.6945 71.3352L45.9008 72.9079L45.4428 73.3459ZM42.4411 74.8547L42.0162 75.2684L41.2477 77.0176L41.4707 77.0753L44.0173 75.7034L44.4724 75.2684L45.2378 73.4615L44.9847 73.422L42.4381 74.8547H42.4411ZM80.5007 58.9301L81.3807 58.1818L81.884 55.73L81.1516 55.8364L75.5221 58.8662L74.7356 59.5537L74.1449 61.9112L74.7838 61.8656L80.5007 58.9271V58.9301ZM73.735 62.1272L74.3317 59.7697L73.7169 59.8366L68.7956 62.4831L68.0874 63.1128L67.4274 65.3791L67.9669 65.3638L72.9545 62.8056L73.738 62.1272H73.735ZM62.2289 66.249L61.5176 68.424L61.9757 68.4332L66.3636 66.1821L67.0688 65.5616L67.7318 63.3014L67.2104 63.3318L62.8708 65.665L62.2319 66.246L62.2289 66.249ZM57.0273 69.0324L56.2859 71.1253L56.6777 71.1557L60.5623 69.1602L61.2012 68.5883L61.9124 66.4194L61.4694 66.4255L57.6119 68.5001L57.0273 69.0355V69.0324ZM52.3772 71.5238L51.6117 73.5376L51.9493 73.5801L55.418 71.8006L56.0026 71.2713L56.747 69.1845L56.3613 69.1693L52.9136 71.0249L52.3742 71.5207L52.3772 71.5238ZM48.1942 73.7657L47.4137 75.7034L47.706 75.7612L50.8191 74.1612L51.3586 73.6684L52.124 71.6607L51.7925 71.6303L48.6915 73.2972L48.1942 73.7657ZM44.4151 75.7886L43.6285 77.6594L43.8817 77.7263L46.6934 76.2814L47.1907 75.819L47.9712 73.8843L47.6849 73.8387L44.8822 75.3475L44.4211 75.7886H44.4151ZM41.4105 77.2153L40.9825 77.629L40.1899 79.4329L40.413 79.5059L42.9625 78.1978L43.4236 77.7659L44.2132 75.9012L43.9661 75.8434L41.4165 77.2153H41.4105ZM79.7804 62.3706L80.6755 61.6222L81.2029 59.0457L80.4615 59.1248L74.7356 62.0542L73.9369 62.7447L73.3191 65.2148L73.9611 65.1996L79.7804 62.3736V62.3706ZM72.9033 65.4186L73.5241 62.9516L72.9033 62.9911L67.9126 65.5433L67.1954 66.176L66.5052 68.5427L67.0477 68.5548L72.1016 66.1L72.9002 65.4186H72.9033ZM66.1436 68.7161L66.8367 66.3586L66.3094 66.3646L61.9215 68.6066L61.2705 69.1876L60.5322 71.4538L60.9933 71.4903L65.4264 69.3427L66.1436 68.7161ZM56.0237 71.8614L55.2492 74.0364L55.644 74.0912L59.5648 72.1869L60.2127 71.615L60.9541 69.3549L60.505 69.3366L56.6174 71.3291L56.0237 71.8645V71.8614ZM51.3435 74.2433L50.5479 76.3331L50.8824 76.4L54.3753 74.7057L54.9659 74.1764L55.7404 72.0075L55.3577 71.971L51.889 73.7475L51.3435 74.2463V74.2433ZM47.1425 76.3818L46.3348 78.3864L46.6241 78.4655L49.7523 76.9445L50.2948 76.4517L51.0904 74.3711L50.7589 74.3193L47.6427 75.9164L47.1394 76.3818H47.1425ZM43.3513 78.3104L42.5406 80.242L42.7877 80.3302L45.6085 78.9614L46.1088 78.502L46.9164 76.4974L46.6332 76.4335L43.8214 77.8693L43.3543 78.3073L43.3513 78.3104ZM39.9127 80.0595L39.099 81.9212L39.313 82.0155L41.8686 80.7744L42.3327 80.3394L43.1463 78.4138L42.8992 78.3438L40.3497 79.6488L39.9157 80.0595H39.9127ZM78.5599 68.1989L79.4851 67.4476L80.0577 64.652L79.2982 64.6764L73.4156 67.4202L72.5928 68.1107L71.9238 70.7785L72.5808 70.812L78.5629 68.1959L78.5599 68.1989ZM71.4959 70.9641L72.1679 68.3084L71.5351 68.2963L66.4329 70.6751L65.6976 71.3048L64.9562 73.8418L65.5047 73.9026L70.6731 71.6424L71.4959 70.961V70.9641ZM64.5886 74.0091L65.3299 71.4782L64.7995 71.4417L60.3363 73.5223L59.6703 74.1034L58.8807 76.5248L59.3418 76.6038L63.8502 74.6296L64.5886 74.0091ZM58.5552 76.6677L59.3448 74.2524L58.8957 74.1916L54.9569 76.032L54.3511 76.5673L53.5284 78.8823L53.9202 78.9735L57.8892 77.2366L58.5522 76.6647L58.5552 76.6677ZM49.6287 78.7575L48.7849 80.9721L49.1164 81.0786L52.6394 79.5363L53.2421 79.01L54.0648 76.7012L53.6821 76.6251L50.1802 78.2617L49.6257 78.7606L49.6287 78.7575ZM45.4006 80.7166L44.5447 82.8398L44.831 82.9524L47.9772 81.5774L48.5287 81.0846L49.3696 78.8762L49.0441 78.791L45.9099 80.2542L45.4006 80.7166ZM41.5943 82.4809L40.7354 84.519L40.9795 84.6376L43.8094 83.3996L44.3187 82.9433L45.1715 80.8261L44.8913 80.7318L42.0705 82.0489L41.5973 82.4839L41.5943 82.4809ZM41.1483 82.4779L38.5927 83.6673L38.1527 84.0779L37.2938 86.0369L37.5048 86.1586L40.0604 85.0422L40.5305 84.6133L41.3864 82.5813L41.1483 82.4809V82.4779ZM77.7342 72.1261L78.6804 71.3778L79.2832 68.4301L78.5117 68.418L72.5265 71.0249L71.6887 71.7154L70.9866 74.514L71.6496 74.5901L77.7342 72.1261ZM70.5526 74.6905L71.2608 71.901L70.6219 71.8554L65.4505 74.1064L64.7001 74.7361L63.9256 77.3948L64.4771 77.4891L69.7148 75.3719L70.5526 74.6935V74.6905ZM63.5488 77.5469L64.3294 74.8973L63.796 74.8273L59.2815 76.7924L58.6064 77.3704L57.7837 79.8983L58.2448 80.0108L62.8045 78.1674L63.5519 77.5469H63.5488ZM57.4522 80.0321L58.2779 77.5134L57.8289 77.4252L53.8569 79.156L53.2421 79.6914L52.3862 82.1007L52.775 82.2193L56.7771 80.601L57.4492 80.0321H57.4522ZM48.4896 81.7447L47.6156 84.0475L47.9471 84.1753L51.4882 82.7455L52.0999 82.2193L52.9558 79.8161L52.5761 79.7158L49.0531 81.2519L48.4896 81.7478V81.7447ZM44.2463 83.579L43.3603 85.7814L43.6436 85.9153L46.7989 84.6376L47.3564 84.1479L48.2334 81.8543L47.9109 81.7447L44.7617 83.1167L44.2463 83.579ZM40.434 85.2247L39.545 87.3328L39.7861 87.4727L42.6189 86.329L43.1313 85.8727L44.0143 83.6794L43.737 83.5608L40.9102 84.7958L40.434 85.2278V85.2247ZM37.4354 86.3077L36.9955 86.7153L36.1064 88.7382L36.3144 88.8781L38.8669 87.8469L39.3431 87.421L40.2321 85.316L39.9941 85.1943L37.4385 86.3077H37.4354ZM76.8632 76.2723L77.8306 75.5209L78.4665 72.412L77.6829 72.3573L71.5923 74.8091L70.7394 75.4996L70.0011 78.4442L70.6701 78.5598L76.8632 76.2753V76.2723ZM69.5611 78.6055L70.3055 75.673L69.6606 75.5878L64.4168 77.699L63.6543 78.3286L62.8406 81.112L63.3951 81.2459L68.7082 79.2838L69.5611 78.6055ZM62.4609 81.2519L63.2776 78.4746L62.7412 78.3712L58.1815 80.2086L57.4944 80.7865L56.6355 83.4269L57.0996 83.5699L61.7075 81.8695L62.4669 81.2519H62.4609ZM56.301 83.5486L57.1659 80.9143L56.7169 80.7987L52.7147 82.4109L52.0909 82.9433L51.1989 85.4529L51.5876 85.605L55.6199 84.1175L56.301 83.5517V83.5486ZM47.3112 84.8475L46.4011 87.2385L46.7296 87.3967L50.2887 86.0826L50.9065 85.5563L51.7986 83.0558L51.4188 82.9311L47.8778 84.3547L47.3082 84.8475H47.3112ZM46.1449 87.3328L47.0551 84.9479L46.7326 84.8171L43.5773 86.0856L43.0559 86.548L42.1368 88.8325L42.414 88.9907L45.5784 87.8226L46.1449 87.3358V87.3328ZM39.2376 88.069L38.3185 90.25L38.5535 90.4113L41.3864 89.3679L41.9047 88.9177L42.8239 86.6392L42.5496 86.4993L39.7228 87.64L39.2406 88.072L39.2376 88.069ZM36.2451 89.0363L35.802 89.4409L34.8829 91.5307L35.0848 91.695L37.6344 90.752L38.1135 90.3291L39.0327 88.1511L38.7976 88.0081L36.2451 89.0363ZM75.944 80.6527L76.9386 79.9044L77.6076 76.6191L76.812 76.5126L70.6099 78.791L69.7389 79.4754L68.9614 82.5782L69.6395 82.7425L75.944 80.6527ZM68.5184 82.7273L69.3019 79.6367L68.651 79.512L63.3349 81.4649L62.5573 82.0885L61.7045 85.0118L62.262 85.1852L67.6474 83.4026L68.5184 82.7303V82.7273ZM61.3217 85.1365L62.1746 82.2254L61.6382 82.0854L57.0303 83.7768L56.3311 84.3487L55.43 87.1138L55.8911 87.2933L60.5442 85.754L61.3187 85.1396L61.3217 85.1365ZM55.1015 87.2203L56.0026 84.4703L55.5536 84.3182L51.5213 85.7997L50.8915 86.329L49.9602 88.9481L50.349 89.1336L54.4084 87.7891L55.1015 87.2233V87.2203ZM49.6679 89.0424L50.5991 86.4324L50.2224 86.2712L46.6603 87.5792L46.0877 88.069L45.1414 90.5542L45.4638 90.7428L49.0411 89.5595L49.6679 89.0393V89.0424ZM44.8822 90.6485L45.8285 88.1663L45.5091 88.0051L42.3447 89.1671L41.8203 89.6234L40.868 91.9931L41.1423 92.1786L44.3126 91.1292L44.8852 90.6485H44.8822ZM40.636 92.0691L41.5883 89.7055L41.317 89.5413L38.4842 90.5786L37.999 91.0075L37.0467 93.2677L37.2757 93.4532L40.1086 92.5163L40.6329 92.0661L40.636 92.0691ZM36.8418 93.3407L37.7941 91.0866L37.565 90.9193L35.0155 91.8562L34.5664 92.2608L33.6202 94.4206L33.816 94.6092L36.3626 93.7635L36.8448 93.3407H36.8418ZM74.3799 88.1298L75.4106 87.3906L76.149 83.7889L75.3353 83.6003L68.9584 85.5472L68.0573 86.2255L67.2135 89.6021L67.9006 89.8485L74.386 88.1298H74.3799ZM66.7494 89.7268L67.6022 86.3624L66.9392 86.1617L61.5086 87.8195L60.71 88.437L59.7878 91.5976L60.3513 91.844L65.8513 90.3869L66.7494 89.7238V89.7268ZM59.396 91.7041L60.3242 88.5557L59.7848 88.3458L55.0985 89.7755L54.3843 90.3413L53.4169 93.3133L53.878 93.5627L58.6064 92.3094L59.399 91.7041H59.396ZM53.0764 93.4045L54.0468 90.4447L53.6007 90.2348L49.5202 91.479L48.8783 92.0022L47.8868 94.8069L48.2666 95.0502L52.3712 93.9612L53.0824 93.4045H53.0764ZM47.5885 94.886L48.586 92.0904L48.2123 91.8775L44.6291 92.9726L44.0444 93.4563L43.0348 96.1088L43.3513 96.3492L46.9466 95.394L47.5855 94.8829L47.5885 94.886ZM42.7757 96.1818L43.7822 93.5353L43.4688 93.3255L40.2924 94.2958L39.759 94.746L38.7464 97.2648L39.0116 97.499L42.188 96.6564L42.7726 96.1818H42.7757ZM38.5174 97.3256L39.533 94.816L39.2678 94.6061L36.4379 95.47L35.9467 95.8929L34.9371 98.2869L35.1571 98.515L37.987 97.7697L38.5174 97.3226V97.3256ZM34.7292 98.3477L35.7388 95.9598L35.5188 95.756L32.9782 96.5317L32.5232 96.9302L31.5226 99.2116L31.7095 99.4367L34.244 98.7645L34.7322 98.3477H34.7292ZM73.3131 93.2251L74.3679 92.492L75.1515 88.6652L74.3227 88.4127L67.8313 90.1162L66.9091 90.7915L66.014 94.3597L66.7072 94.67L73.3101 93.2281L73.3131 93.2251ZM65.5529 94.4631L66.451 90.9132L65.785 90.6577L60.279 92.0995L59.4653 92.711L58.4949 96.0389L59.0585 96.34L64.6338 95.1202L65.5529 94.4631ZM58.1001 96.1271L59.0736 92.8144L58.5311 92.5558L53.7996 93.7969L53.0764 94.3597L52.0608 97.4716L52.5158 97.7637L57.2864 96.7233L58.0971 96.121L58.1001 96.1271ZM51.7202 97.5538L52.7388 94.4479L52.2928 94.1924L48.1882 95.2693L47.5342 95.7864L46.4945 98.7158L46.8712 99.0017L51 98.0983L51.7202 97.5507V97.5538ZM46.1962 98.7858L47.2389 95.8655L46.8682 95.616L43.2699 96.559L42.6792 97.0397L41.6275 99.8078L41.9409 100.085L45.5482 99.2968L46.1962 98.7888V98.7858ZM41.3683 99.8626L42.4201 97.1096L42.1127 96.8663L38.9363 97.6998L38.3938 98.1469L37.342 100.766L37.6012 101.031L40.7806 100.337L41.3713 99.8626H41.3683ZM37.113 100.815L38.1648 98.2078L37.9086 97.9675L35.0818 98.7097L34.5845 99.1295L33.5388 101.615L33.7558 101.873L36.5796 101.256L37.116 100.815H37.113ZM33.3308 101.66L34.3766 99.1812L34.1626 98.95L31.6311 99.6162L31.1731 100.009L30.1364 102.372L30.3172 102.622L32.8426 102.068L33.3369 101.657L33.3308 101.66ZM72.18 98.6428L73.2619 97.9218L74.0967 93.8547L73.2528 93.5293L66.6409 94.9559L65.7006 95.6252L64.7543 99.4002L65.4565 99.7774L72.18 98.6458V98.6428ZM63.3439 100.13L64.2842 99.4824L65.2365 95.7225L64.5644 95.4061L58.9831 96.6108L58.1544 97.2161L57.1328 100.723L57.6963 101.085L63.3439 100.136V100.13ZM56.7319 100.79L57.7566 97.2982L57.2141 96.988L52.4435 98.0192L51.7051 98.5728L50.6383 101.843L51.0934 102.187L55.9092 101.377L56.7319 100.787V100.79ZM50.2978 101.907L51.3646 98.6458L50.9216 98.3477L46.7929 99.239L46.1329 99.75L45.045 102.816L45.4186 103.148L49.5685 102.448L50.3038 101.907H50.2978ZM44.7436 102.871L45.8315 99.8139L45.4669 99.5219L41.8625 100.301L41.2628 100.778L40.1658 103.662L40.4732 103.978L44.0866 103.37L44.7466 102.868L44.7436 102.871ZM39.9036 103.711L40.9976 100.836L40.6962 100.556L37.5168 101.244L36.9713 101.688L35.8774 104.413L36.1275 104.715L39.3039 104.179L39.9006 103.714L39.9036 103.711ZM35.6483 104.447L36.7423 101.733L36.4892 101.463L33.6654 102.074L33.1651 102.491L32.0772 105.07L32.2881 105.359L35.1059 104.888L35.6453 104.45L35.6483 104.447ZM31.8783 105.101L32.9632 102.527L32.7522 102.266L30.2268 102.81L29.7687 103.203L28.6928 105.654L28.8676 105.931L31.375 105.508L31.8752 105.101H31.8783ZM64.4168 100.733L63.4132 104.736L64.1184 105.186L70.9655 104.41L72.0745 103.702L72.9605 99.3607L72.1077 98.9591L65.3751 100.072L64.4138 100.73L64.4168 100.733ZM56.7681 101.955L55.6922 105.658L56.2528 106.08L61.9757 105.429L62.931 104.794L63.9406 100.806L63.2625 100.422L57.6089 101.356L56.7681 101.952V101.955ZM50.2586 102.999L49.1375 106.439L49.5896 106.838L54.4446 106.29L55.2824 105.709L56.3643 102.022L55.8218 101.657L51.006 102.451L50.2586 102.999ZM44.6532 103.896L43.514 107.109L43.8787 107.483L48.0466 107.011L48.7909 106.476L49.912 103.051L49.469 102.701L45.3162 103.388L44.6471 103.893L44.6532 103.896ZM39.7741 104.675L38.6258 107.686L38.9272 108.045L42.5466 107.632L43.2126 107.139L44.3548 103.939L43.9932 103.604L40.3768 104.2L39.771 104.669L39.7741 104.675ZM35.4886 105.359L34.3464 108.198L34.5906 108.538L37.7609 108.176L38.3637 107.717L39.5089 104.715L39.2135 104.395L36.0371 104.918L35.4886 105.356V105.359ZM31.6944 105.965L30.5643 108.645L30.7662 108.97L33.5689 108.651L34.1174 108.222L35.2566 105.393L35.0125 105.089L32.1977 105.557L31.6944 105.965ZM28.3161 106.506L27.201 109.049L27.3638 109.353L29.8591 109.071L30.3594 108.669L31.4895 105.995L31.2876 105.703L28.7802 106.12L28.3161 106.506Z" fill="#007A94"/>
<path opacity="0.4" d="M85.0182 47.6444L42.634 72.6857L26.0438 110.22L85.0182 47.6444Z" fill="white"/>
<path d="M113.332 87.1472H104.435V119.824H113.332V87.1472Z" fill="#5C666E"/>
<path opacity="0.3" d="M106.952 87.1472H105.589V119.824H106.952V87.1472Z" fill="white"/>
<path opacity="0.5" d="M112.153 87.1472H110.065V119.824H112.153V87.1472Z" fill="black"/>
<path d="M144.42 100.541L66.6348 106.02L65.9326 104.851L143.956 89.6691L145.418 97.6603L144.42 100.541Z" fill="#131A1D"/>
<path d="M163.5 2.35895L161.692 2L93.134 43.3553L65.9326 104.851L145.418 97.6602L163.5 2.35895Z" fill="#424D54"/>
<path d="M92.5071 42.8777L161.692 2L157.22 25.204L85.0272 59.7971L92.5071 42.8747V42.8777ZM75.9892 80.2481L151.295 55.9459L156.972 26.4786L84.6354 60.6883L75.9892 80.2481ZM65.4233 104.146L143.525 96.2487L150.978 57.5856L75.5281 81.2793L65.4203 104.146H65.4233Z" fill="#E5E6EC"/>
<path d="M147.479 15.0682L146.464 15.2324L147.347 11.7068L148.579 10.5904L157.473 5.38259L158.627 5.12402L157.88 8.7622L156.505 9.97593L147.476 15.0682H147.479ZM145.819 15.5975L146.708 12.081L145.725 12.2665L137.908 16.8477L136.79 17.8728L135.798 21.2707L136.663 21.1703L144.583 16.7047L145.819 15.5975ZM135.226 21.5962L136.223 18.2014L135.383 18.323L128.451 22.3871L127.432 23.3331L126.366 26.6154L127.107 26.5576L134.108 22.6092L135.223 21.5962H135.226ZM125.859 26.9013L126.932 23.6252L126.212 23.7012L120.028 27.3242L119.097 28.2003L117.97 31.373L118.611 31.3548L124.847 27.8383L125.862 26.9013H125.859ZM117.515 31.6316L118.642 28.468L118.021 28.5045L112.467 31.7593L111.608 32.5715L110.441 35.6348L110.999 35.647L116.586 32.4955L117.518 31.6316H117.515ZM110.035 35.866L111.201 32.8119L110.655 32.821L105.644 35.7565L104.845 36.52L103.655 39.4798L104.137 39.5163L109.173 36.6751L110.032 35.866H110.035ZM103.29 39.6867L104.483 36.7299L104.007 36.7116L99.4597 39.3764L98.7213 40.0943L97.5128 42.9568L97.9287 43.0146L102.494 40.4411L103.287 39.6867H103.29ZM97.1783 43.1484L98.3868 40.292L97.9709 40.2494L93.8271 42.6799L93.134 43.3553L91.9165 46.1265L92.2841 46.1995L96.44 43.8572L97.1783 43.1484ZM155.444 15.0742L156.846 13.8575L157.623 10.0429L156.454 10.2588L147.416 15.345L146.159 16.4644L145.237 20.1482L146.265 20.0235L155.448 15.0712L155.444 15.0742ZM135.289 25.9431L143.318 21.6144L144.571 20.5072L145.502 16.8325L144.511 16.9785L136.588 21.438L135.455 22.4631L134.418 26.0101L135.292 25.9431H135.289ZM125.992 27.7622L124.877 31.1783L125.621 31.157L132.703 27.3363L133.837 26.3234L134.873 22.7856L134.026 22.8768L127.02 26.8162L125.986 27.7622H125.992ZM117.575 32.4803L116.409 35.7686L117.047 35.7838L123.34 32.3921L124.368 31.4582L125.483 28.0512L124.756 28.0968L118.521 31.6072L117.575 32.4833V32.4803ZM110.035 36.7056L108.829 39.8783L109.381 39.9209L115.007 36.8881L115.95 36.0211L117.12 32.7388L116.49 32.748L110.903 35.8903L110.032 36.7086L110.035 36.7056ZM103.242 40.511L102.012 43.5712L102.491 43.6351L107.554 40.9065L108.419 40.1004L109.628 36.9367L109.085 36.9154L104.046 39.7505L103.242 40.5141V40.511ZM97.0909 43.9576L95.8463 46.9113L96.2622 46.9934L100.84 44.5264L101.645 43.772L102.877 40.7179L102.407 40.6723L97.8413 43.2397L97.097 43.9576H97.0909ZM92.1937 46.4185L91.4946 47.0908L90.2439 49.9472L90.6085 50.0445L94.7674 47.8026L95.5118 47.0908L96.7564 44.1431L96.3466 44.0792L92.1937 46.4185ZM154.32 20.422L155.752 19.1991L156.572 15.199L155.381 15.3754L146.19 20.3186L144.906 21.4441L143.941 25.2952L144.981 25.2161L154.317 20.422H154.32ZM143.275 25.6389L144.249 21.797L143.248 21.9004L135.214 26.223L134.057 27.2512L132.978 30.9502L133.858 30.9258L141.995 26.7492L143.272 25.6389H143.275ZM124.494 32.3738L123.334 35.9268L124.081 35.9451L131.239 32.2734L132.393 31.2574L133.475 27.5675L132.625 27.6192L125.54 31.4308L124.491 32.3769L124.494 32.3738ZM116.002 36.9215L114.79 40.3346L115.429 40.3833L121.773 37.1284L122.819 36.1915L123.979 32.6476L123.253 32.6567L116.96 36.0424L116.002 36.9215ZM108.413 40.9856L107.163 44.2709L107.714 44.3469L113.377 41.4419L114.329 40.5719L115.547 37.1679L114.92 37.1436L109.293 40.1703L108.413 40.9856ZM101.587 44.642L100.316 47.8056L100.792 47.903L105.873 45.293L106.753 44.4869L108.003 41.2076L107.464 41.1559L102.398 43.8815L101.587 44.645V44.642ZM95.4153 47.9425L94.1315 50.9936L94.5414 51.1061L99.1312 48.7517L99.9419 47.9973L101.211 44.8397L100.743 44.7667L96.1687 47.2277L95.4123 47.9425H95.4153ZM90.5121 50.2696L89.8099 50.9449L88.5171 53.8895L88.8787 54.0112L93.0436 51.8727L93.794 51.167L95.0838 48.122L94.68 48.0307L90.5181 50.2696H90.5121ZM153.145 26.0466L154.607 24.8207L155.469 20.6136L154.257 20.7444L144.915 25.5233L143.61 26.6519L142.597 30.6886L143.649 30.6582L153.145 26.0496V26.0466ZM141.916 31.0141L142.935 26.9926L141.922 27.0534L133.776 31.2209L132.607 32.2491L131.48 36.1093L132.363 36.1306L140.614 32.1274L141.916 31.0141ZM130.886 36.4014L132.013 32.5502L131.157 32.5624L123.994 36.2249L122.93 37.174L121.725 40.873L122.475 40.9339L129.711 37.4235L130.883 36.4044L130.886 36.4014ZM114.365 41.5331L113.106 45.0831L113.747 45.1683L120.145 42.0624L121.203 41.1316L122.415 37.4417L121.685 37.4143L115.339 40.6601L114.368 41.5362L114.365 41.5331ZM106.726 45.4207L105.43 48.8277L105.978 48.9403L111.677 46.1751L112.641 45.3082L113.904 41.7674L113.28 41.7065L107.618 44.6055L106.726 45.4207ZM99.8695 48.9099L98.5495 52.186L99.0227 52.3138L104.128 49.8346L105.017 49.0315L106.313 45.6337L105.773 45.5485L100.689 48.1494L99.8695 48.9099ZM93.6795 52.0613L92.3534 55.2128L92.7573 55.3527L97.3622 53.1199L98.1819 52.3655L99.4988 49.0985L99.0317 48.995L94.4419 51.3434L93.6795 52.0583V52.0613ZM88.068 54.9177L86.736 57.9536L87.0886 58.1087L91.2565 56.0828L92.0159 55.377L93.3449 52.2317L92.9411 52.113L88.7762 54.2454L88.068 54.9177ZM151.15 35.5557L152.66 34.3298L153.594 29.7699L152.355 29.8095L142.754 34.2902L141.41 35.4158L140.319 39.7688L141.389 39.8266L151.15 35.5557ZM139.623 40.076L140.72 35.7352L139.686 35.7169L131.362 39.6045L130.16 40.6327L128.948 44.7789L129.84 44.8762L138.276 41.1863L139.62 40.076H139.623ZM128.349 45.0435L129.56 40.9126L128.695 40.8517L121.408 44.2526L120.32 45.1987L119.033 49.1532L119.787 49.281L127.149 46.0626L128.352 45.0466L128.349 45.0435ZM118.5 49.3814L119.79 45.439L119.058 45.3447L112.629 48.3441L111.638 49.2201L110.294 52.9952L110.936 53.1473L117.418 50.3152L118.503 49.3814H118.5ZM103.923 52.7944L102.549 56.4083L103.091 56.5786L108.841 54.0629L109.827 53.199L111.171 49.4331L110.55 49.3114L104.83 51.9792L103.923 52.7914V52.7944ZM97.0216 55.9946L95.6263 59.4593L96.0934 59.6388L101.229 57.3939L102.133 56.5908L103.507 52.9861L102.974 52.8461L97.8564 55.2341L97.0216 55.9915V55.9946ZM90.8074 58.8722L89.4091 62.2001L89.8039 62.3918L94.4208 60.3719L95.2526 59.6236L96.6479 56.171L96.1868 56.0159L91.5789 58.1635L90.8044 58.8753L90.8074 58.8722ZM90.0781 58.8601L85.9102 60.8069L85.193 61.4731L83.7886 64.6702L84.1352 64.871L88.3061 63.0458L89.0746 62.3462L90.4729 59.0274L90.0811 58.8601H90.0781ZM149.803 41.9681L151.349 40.7422L152.331 35.9329L151.072 35.9116L141.301 40.1673L139.933 41.2959L138.788 45.8649L139.87 45.9865L149.803 41.9651V41.9681ZM138.08 46.1508L139.234 41.597L138.188 41.524L129.75 45.2017L128.523 46.2299L127.258 50.5647L128.159 50.7198L136.712 47.2642L138.08 46.1508ZM126.646 50.8141L127.918 46.4915L127.047 46.379L119.675 49.5852L118.578 50.5282L117.231 54.6531L117.985 54.8356L125.425 51.824L126.646 50.8141ZM116.695 54.8751L118.045 50.7594L117.313 50.6194L110.827 53.4454L109.827 54.3184L108.431 58.2486L109.067 58.4464L115.598 55.8029L116.695 54.8751ZM102.063 57.6707L100.635 61.4275L101.174 61.6374L106.955 59.2981L107.955 58.4403L109.354 54.5162L108.73 54.3519L102.98 56.8585L102.063 57.6676V57.6707ZM95.1381 60.667L93.6945 64.2565L94.1526 64.4755L99.306 62.3918L100.219 61.5948L101.648 57.8502L101.117 57.6707L95.9819 59.9095L95.1381 60.664V60.667ZM88.9179 63.3591L87.4683 66.7965L87.8601 67.0247L92.48 65.1539L93.3208 64.4086L94.7644 60.8282L94.3093 60.6366L89.6984 62.6503L88.9209 63.3591H88.9179ZM84.0207 65.1235L83.3004 65.7866L81.8538 69.0871L82.1914 69.3183L86.3563 67.6331L87.1308 66.9365L88.5834 63.5051L88.1946 63.3074L84.0237 65.1265L84.0207 65.1235ZM148.377 48.7395L149.96 47.5136L150.996 42.4366L149.719 42.3423L139.776 46.3485L138.381 47.471L137.176 52.2743L138.27 52.4629L148.377 48.7304V48.7395ZM136.458 52.5511L137.67 47.76L136.615 47.6231L128.059 51.0696L126.812 52.0948L125.486 56.6425L126.393 56.8585L135.063 53.6583L136.458 52.5541V52.5511ZM124.868 56.8706L126.2 52.3412L125.32 52.1708L117.876 55.1671L116.758 56.1102L115.354 60.4206L116.107 60.6548L123.626 57.8806L124.868 56.8706ZM114.811 60.6183L116.219 56.3231L115.486 56.1314L108.953 58.7597L107.937 59.6297L106.482 63.7272L107.114 63.9766L113.693 61.5461L114.811 60.6183ZM100.135 62.7416L98.649 66.6444L99.1854 66.9L104.993 64.7584L106.005 63.9067L107.464 59.8213L106.846 59.6114L101.063 61.9385L100.138 62.7446L100.135 62.7416ZM98.2301 66.8026L99.7128 62.912L99.1884 62.6899L94.0351 64.7645L93.1852 65.5159L91.6904 69.2423L92.1425 69.5039L97.3079 67.5966L98.2331 66.8026H98.2301ZM86.956 68.0042L85.4552 71.5663L85.8409 71.8279L90.4639 70.1214L91.3137 69.3822L92.8115 65.6649L92.3625 65.4368L87.7425 67.2985L86.956 68.0011V68.0042ZM82.0678 69.583L81.3415 70.2461L79.8437 73.6561L80.1722 73.9208L84.3341 72.3815L85.1176 71.688L86.6215 68.135L86.2357 67.9008L82.0708 69.5799L82.0678 69.583ZM146.874 55.8972L148.495 54.6774L149.592 49.3114L148.293 49.141L138.17 52.8583L136.745 53.9777L135.476 59.0396L136.582 59.3042L146.871 55.8972H146.874ZM134.747 59.2829L136.027 54.2394L134.964 54.0355L126.287 57.2205L125.019 58.2426L123.629 63.0093L124.539 63.2952L133.33 60.3841L134.75 59.2829H134.747ZM122.999 63.2192L124.395 58.4646L123.518 58.2334L115.996 60.9925L114.859 61.9294L113.389 66.4376L114.139 66.7357L121.737 64.22L122.999 63.2192ZM112.84 66.6231L114.314 62.1271L113.582 61.8777L106.997 64.296L105.966 65.16L104.444 69.4339L105.077 69.732L111.707 67.5388L112.84 66.6201V66.6231ZM103.971 69.5951L105.487 65.3364L104.875 65.0778L99.0619 67.2102L98.1246 68.0133L96.5816 72.0743L97.109 72.3815L102.943 70.4469L103.971 69.5982V69.5951ZM96.1597 72.2142L97.7057 68.1654L97.1844 67.8977L92.0189 69.7989L91.163 70.5442L89.605 74.4105L90.051 74.7147L95.2255 73.0021L96.1567 72.2142H96.1597ZM89.2283 74.5383L90.7833 70.6841L90.3463 70.4134L85.7234 72.1108L84.9308 72.8105L83.3757 76.5004L83.7525 76.8045L88.3754 75.2744L89.2313 74.5383H89.2283ZM83.0352 76.6129L84.5903 72.9321L84.2135 72.6584L80.0517 74.1885L79.3194 74.8455L77.7703 78.3742L78.0928 78.6784L82.2456 77.3004L83.0352 76.6099V76.6129ZM144.309 68.1106L145.988 66.903L147.193 61.0229L145.861 60.7126L135.452 63.8915L133.981 65.0018L132.598 70.5138L133.722 70.9153L144.309 68.1106ZM131.851 70.7146L133.243 65.2269L132.164 64.8983L123.298 67.6057L121.996 68.6126L120.489 73.7717L121.408 74.1793L130.386 71.8005L131.854 70.7115L131.851 70.7146ZM119.847 73.9451L121.36 68.8073L120.477 68.4666L112.831 70.7997L111.665 71.7275L110.089 76.5764L110.839 76.984L118.554 74.9398L119.85 73.9482L119.847 73.9451ZM109.534 76.7254L111.117 71.8948L110.387 71.5481L103.727 73.5801L102.675 74.4379L101.054 79.013L101.672 79.4115L108.371 77.638L109.531 76.7285L109.534 76.7254ZM100.572 79.1408L102.196 74.5778L101.584 74.2341L95.7378 76.0197L94.7825 76.8106L93.137 81.1393L93.6553 81.5317L99.5229 79.9773L100.572 79.1408ZM92.7151 81.2549L94.3605 76.9384L93.8512 76.5947L88.6708 78.1765L87.7998 78.9157L86.1453 83.0223L86.5793 83.4025L91.7658 82.0306L92.7151 81.2519V81.2549ZM85.7656 83.1288L87.4201 79.0312L86.9921 78.6936L82.3692 80.102L81.5675 80.7956L79.9221 84.7045L80.2837 85.0787L84.9007 83.8558L85.7656 83.1318V83.1288ZM79.5846 84.7927L81.23 80.896L80.8684 80.5614L76.7216 81.8298L75.9772 82.4808L74.3438 86.2072L74.6482 86.5723L78.7829 85.4741L79.5815 84.7927H79.5846ZM142.57 76.4304L144.291 75.2379L145.569 68.9898L144.216 68.5761L133.62 71.3595L132.116 72.4606L130.654 78.2799L131.79 78.7849L142.57 76.4273V76.4304ZM129.895 78.4533L131.362 72.6553L130.274 72.2386L121.288 74.5961L119.962 75.5969L118.376 81.0298L119.293 81.5226L128.394 79.5332L129.892 78.4563L129.895 78.4533ZM117.732 81.1697L119.323 75.7642L118.437 75.3444L110.719 77.3703L109.537 78.289L107.88 83.3782L108.627 83.8558L116.415 82.1553L117.738 81.1728L117.732 81.1697ZM107.319 83.4968L108.983 78.4289L108.254 78.0152L101.554 79.7735L100.49 80.6192L98.7936 85.4011L99.4054 85.8665L106.147 84.3942L107.322 83.4968H107.319ZM98.3054 85.5106L100.005 80.7439L99.4024 80.3393L93.5288 81.8785L92.5644 82.6633L90.8466 87.1776L91.3589 87.6278L97.2446 86.3411L98.3054 85.5106ZM90.4247 87.2719L92.1425 82.7729L91.6392 82.3774L86.4527 83.7402L85.5697 84.4703L83.8519 88.7412L84.2738 89.1792L89.4633 88.0445L90.4247 87.2749V87.2719ZM83.4752 88.8263L85.19 84.5676L84.7711 84.1782L80.1572 85.3889L79.3465 86.0734L77.6377 90.1283L77.9903 90.5481L82.5982 89.5412L83.4752 88.8233V88.8263ZM77.3032 90.2074L79.0089 86.1616L78.6594 85.7844L74.5246 86.8734L73.7772 87.5153L72.0866 91.3755L72.3819 91.7831L76.5016 90.8827L77.3062 90.2104L77.3032 90.2074ZM140.717 85.2764L142.48 84.1022L143.842 77.4555L142.468 76.9262L131.676 79.2564L130.142 80.3454L128.596 86.5114L129.738 87.1228L140.714 85.2764H140.717ZM126.293 87.7038L127.827 86.6453L129.379 80.5066L128.285 79.9895L119.175 81.9546L117.825 82.9462L116.158 88.6712L117.075 89.2583L126.296 87.7069L126.293 87.7038ZM115.504 88.7807L117.177 83.0801L116.291 82.5782L108.498 84.2604L107.298 85.1669L105.556 90.5085L106.301 91.0683L114.157 89.745L115.504 88.7807ZM104.996 90.6059L106.741 85.2825L106.014 84.7927L99.2728 86.2468L98.1909 87.0833L96.4159 92.0873L97.0246 92.6257L103.799 91.485L104.996 90.6028V90.6059ZM95.9337 92.1786L97.7117 87.1898L97.115 86.7183L91.2263 87.9898L90.2499 88.7655L88.4598 93.4775L88.9601 93.9916L94.8578 92.9969L95.9337 92.1786ZM88.0319 93.5505L89.825 88.8537L89.3307 88.3974L84.1382 89.5169L83.2492 90.2408L81.4621 94.6912L81.8749 95.181L87.0615 94.3079L88.0319 93.5505ZM81.0884 94.7521L82.8785 90.3199L82.4686 89.8789L77.8607 90.8736L77.041 91.5489L75.269 95.765L75.6095 96.2365L80.2024 95.4608L81.0884 94.7521ZM74.9345 95.8198L76.7095 91.6219L76.369 91.196L72.2493 92.0843L71.4989 92.7231L69.7449 96.7232L70.0282 97.1765L74.1238 96.489L74.9375 95.8228L74.9345 95.8198ZM128.053 88.6895L126.414 95.2236L127.568 95.9628L138.749 94.6943L140.557 93.5414L142.007 86.4567L140.614 85.7996L129.626 87.6156L128.056 88.6895H128.053ZM115.571 90.685L113.811 96.7263L114.727 97.4198L124.069 96.3582L125.633 95.3179L127.282 88.8111L126.176 88.1845L116.948 89.7115L115.574 90.685H115.571ZM104.948 92.3854L103.121 98.0009L103.86 98.6518L111.783 97.7545L113.151 96.8054L114.917 90.7884L114.031 90.1891L106.168 91.485L104.951 92.3824L104.948 92.3854ZM95.7981 93.8516L93.9356 99.096L94.5353 99.7104L101.34 98.9378L102.558 98.0678L104.39 92.4767L103.667 91.9078L96.892 93.0273L95.8011 93.8516H95.7981ZM87.836 95.1262L85.9615 100.045L86.4527 100.629L92.3625 99.9568L93.4504 99.1538L95.3159 93.9277L94.7282 93.3832L88.8244 94.3566L87.839 95.1262H87.836ZM80.8413 96.2457L78.9788 100.879L79.3796 101.432L84.5541 100.842L85.5365 100.094L87.408 95.1931L86.9258 94.6699L81.7363 95.5277L80.8382 96.2426L80.8413 96.2457ZM74.6512 97.2373L72.8038 101.615L73.1353 102.141L77.7101 101.621L78.6021 100.924L80.4676 96.3065L80.0667 95.8076L75.4739 96.5681L74.6512 97.2373ZM69.1302 98.1195L67.3099 102.266L67.5781 102.771L71.6496 102.308L72.4693 101.651L74.3106 97.289L73.9822 96.8115L69.8836 97.4898L69.1241 98.1195H69.1302Z" fill="#007A94"/>
<path opacity="0.4" d="M161.692 2L92.5071 42.8777L65.4233 104.146L161.692 2Z" fill="white"/>
<path d="M46.38 112.164C45.6296 111.462 44.5598 111.328 43.6647 111.729C43.1494 109.84 41.5883 108.42 39.6837 108.152C40.2743 107.3 40.6149 106.251 40.5847 105.119C40.5094 102.375 38.2944 100.209 35.6393 100.285C33.1319 100.355 31.1309 102.397 30.9772 104.933C30.4317 104.733 29.844 104.626 29.2293 104.641C26.5742 104.718 24.4827 107.002 24.5581 109.749C24.5731 110.312 24.6847 110.847 24.8655 111.346C24.4496 112.109 24.2145 112.992 24.2386 113.932C24.317 116.675 26.532 118.841 29.1871 118.765C30.0218 118.741 30.7994 118.495 31.4714 118.09C31.5136 118.133 31.5468 118.178 31.589 118.221C32.8095 119.365 34.7292 119.276 35.8774 118.029C36.1004 117.786 36.2752 117.512 36.4048 117.229C37.2004 117.771 38.1557 118.075 39.1774 118.047C39.7801 118.032 40.3527 117.895 40.8771 117.67C40.9554 118.011 41.1242 118.333 41.3954 118.586C42.1338 119.276 43.297 119.218 43.9962 118.461C44.4724 117.941 44.611 117.226 44.4181 116.608C45.1565 116.654 45.9159 116.377 46.4674 115.778C47.4288 114.735 47.3896 113.119 46.38 112.173V112.164Z" fill="#8BC444"/>
<path d="M34.7171 120.058C34.687 120.426 34.6779 120.718 34.6749 120.995H37.7248C40.1658 119.121 42.8269 116.143 42.8269 116.143C42.2061 116.837 39.5691 118.516 39.0417 119.048C38.8006 118.908 39.316 117.384 39.3491 116.24C39.3491 116.24 38.1527 118.364 38.5264 119.447C37.987 119.842 37.0075 120.435 36.3656 120.74C36.227 118.987 36.1185 117.777 36.0311 116.943C36.01 116.733 38.0623 113.031 37.9568 113.165C37.113 114.239 36.7242 114.434 36.013 115.705C35.787 116.11 35.2445 112.453 35.2445 112.453C34.9552 112.687 35.2837 115.188 35.1752 115.742C35.1059 116.094 35.0697 116.52 35.0426 116.974C35.0095 117.485 34.9341 118.698 34.8738 119.209C34.3344 119.082 33.2947 117.865 31.9958 115.486C31.9958 115.486 32.9963 119.553 34.7201 120.058H34.7171Z" fill="#504943"/>
<path d="M34.3284 120.995H35.7026C34.1476 120.259 29.1388 118.969 27.3156 117.445C27.3156 117.445 28.0328 119.285 34.3314 120.995H34.3284Z" fill="#504943"/>
<path opacity="0.5" d="M37.2456 103.315C37.2456 103.814 36.8448 104.219 36.3505 104.219C35.8563 104.219 35.4555 103.814 35.4555 103.315C35.4555 102.816 35.8563 102.412 36.3505 102.412C36.8448 102.412 37.2456 102.816 37.2456 103.315Z" fill="#F9FD6F"/>
<path opacity="0.5" d="M35.1451 102.889C35.1451 103.124 34.9582 103.315 34.7262 103.315C34.4941 103.315 34.3043 103.124 34.3043 102.889C34.3043 102.655 34.4941 102.467 34.7262 102.467C34.9582 102.467 35.1451 102.655 35.1451 102.889Z" fill="#F9FD6F"/>
<path opacity="0.5" d="M44.9817 112.447C44.9817 112.681 44.7918 112.873 44.5628 112.873C44.3337 112.873 44.1409 112.684 44.1409 112.447C44.1409 112.21 44.3277 112.021 44.5628 112.021C44.7979 112.021 44.9817 112.21 44.9817 112.447Z" fill="#F9FD6F"/>
<g opacity="0.5">
<path d="M29.184 118.765C30.0188 118.741 30.7964 118.495 31.4684 118.09C31.5106 118.133 31.5437 118.178 31.5859 118.221C32.8065 119.365 34.7262 119.276 35.8744 118.029C36.0974 117.786 36.2722 117.512 36.4018 117.229C37.1974 117.771 38.1527 118.075 39.1743 118.047C39.7771 118.032 40.3497 117.895 40.874 117.67C40.9524 118.011 41.1212 118.333 41.3924 118.586C42.1307 119.276 43.294 119.219 43.9932 118.461C44.4693 117.941 44.608 117.226 44.4151 116.609C45.1534 116.654 45.9129 116.377 46.4644 115.778C47.2901 114.881 47.3745 113.567 46.7447 112.611C46.4312 113.378 45.9762 114.321 45.503 114.719C44.6441 115.437 43.6978 113.825 42.8239 112.958C41.9499 112.088 41.5491 113.043 40.3436 113.658C39.1412 114.275 37.9568 113.168 36.1305 112.584C34.3043 112 31.1429 114.604 30.1123 114.954C29.0816 115.304 27.5326 116.253 25.64 115.383C25.0372 115.106 24.5912 114.723 24.2657 114.327C24.5309 116.882 26.6556 118.841 29.184 118.768V118.765Z" fill="#34651C"/>
<path d="M39.8584 112.265C39.8584 112.84 39.3973 113.305 38.8278 113.305C38.2582 113.305 37.7971 112.84 37.7971 112.265C37.7971 111.69 38.2582 111.224 38.8278 111.224C39.3973 111.224 39.8584 111.69 39.8584 112.265Z" fill="#34651C"/>
<path d="M28.1775 111.081C28.1775 111.565 27.7887 111.954 27.3126 111.954C26.8364 111.954 26.4446 111.565 26.4446 111.081C26.4446 110.598 26.8334 110.208 27.3126 110.208C27.7917 110.208 28.1775 110.601 28.1775 111.081Z" fill="#34651C"/>
<path d="M41.1121 111.954C41.1121 112.219 40.9012 112.429 40.639 112.429C40.3768 112.429 40.1658 112.216 40.1658 111.954C40.1658 111.693 40.3768 111.477 40.639 111.477C40.9012 111.477 41.1121 111.69 41.1121 111.954Z" fill="#34651C"/>
<path d="M26.0529 111.002C26.0529 111.267 25.8419 111.48 25.5797 111.48C25.3175 111.48 25.1066 111.267 25.1066 111.002C25.1066 110.737 25.3175 110.525 25.5797 110.525C25.8419 110.525 26.0529 110.737 26.0529 111.002Z" fill="#34651C"/>
<path d="M28.6717 109.664C28.6717 109.934 28.4577 110.15 28.1895 110.15C27.9213 110.15 27.7043 109.931 27.7043 109.664C27.7043 109.396 27.9213 109.177 28.1895 109.177C28.4577 109.177 28.6717 109.396 28.6717 109.664Z" fill="#34651C"/>
</g>
<path opacity="0.5" d="M35.6363 100.289C33.1289 100.358 31.1279 102.4 30.9742 104.937C30.4287 104.736 29.841 104.629 29.2262 104.645C27.3819 104.696 25.8087 105.819 25.0463 107.419C27.1227 105.858 30.3624 106.302 31.9385 106.649C32.0651 106.677 32.1977 106.619 32.264 106.506C32.3303 106.394 32.3183 106.251 32.2339 106.15L31.7457 105.578C31.595 105.402 31.5709 105.147 31.6914 104.943C32.3876 103.762 35.0064 100.115 39.6897 102.381C38.7916 101.076 37.2998 100.24 35.6303 100.289H35.6363Z" fill="#F9FD6F"/>
<path opacity="0.5" d="M39.6927 108.14C37.0377 108.429 35.1451 109.913 35.1451 109.913C35.1451 109.913 38.1979 109.025 40.9494 109.317C41.3382 109.357 41.971 109.512 42.5918 109.737C41.8475 108.891 40.8289 108.313 39.6837 108.152C39.6837 108.146 39.6897 108.143 39.6927 108.14Z" fill="#F9FD6F"/>
<path d="M34.4489 114.951C34.4489 115.45 34.0481 115.854 33.5539 115.854C33.0596 115.854 32.6588 115.45 32.6588 114.951C32.6588 114.452 33.0596 114.047 33.5539 114.047C34.0481 114.047 34.4489 114.452 34.4489 114.951Z" fill="#8BC444"/>
<path d="M34.7232 113.427C34.7232 113.661 34.5333 113.852 34.3012 113.852C34.0692 113.852 33.8793 113.661 33.8793 113.427C33.8793 113.192 34.0692 113.004 34.3012 113.004C34.5333 113.004 34.7232 113.192 34.7232 113.427Z" fill="#8BC444"/>
<path d="M80.3138 102.178C81.9683 100.939 83.0442 98.9561 83.0442 96.7112C83.0442 94.2624 81.7664 92.1239 79.8558 90.9284C79.7834 86.2864 76.2002 82.487 71.6646 82.3592C70.5888 82.3288 69.5551 82.5144 68.5967 82.8703C68.3255 78.4169 64.8146 74.8365 60.4146 74.7118C55.7525 74.581 51.8679 78.3773 51.7323 83.1988C51.678 85.173 52.2717 87.0043 53.2994 88.4979C53.2964 88.507 53.2903 88.5162 53.2843 88.5283C49.2701 89.1033 46.1208 92.5954 46.0003 96.9241C45.9822 97.5812 46.0425 98.22 46.157 98.8405C45.3132 100.167 45.4367 101.968 46.5729 103.2C47.1786 103.86 47.9652 104.234 48.7759 104.331C49.1767 107.693 51.9884 110.3 55.4059 110.3C58.4527 110.3 61.0174 108.231 61.822 105.402C63.2565 105.88 64.8929 105.737 66.2943 104.879C67.7318 106.242 69.6304 107.099 71.737 107.157C73.1835 107.197 74.5547 106.859 75.7632 106.229C76.3177 106.908 77.1525 107.34 78.0928 107.34C79.7684 107.34 81.1275 105.968 81.1275 104.27C81.1275 103.461 80.8171 102.728 80.3108 102.184L80.3138 102.178Z" fill="#8BC444"/>
<path d="M65.0135 110.801C65.0406 109.937 65.0436 109.262 64.9713 108.179C67.3702 107.349 68.7595 100.647 68.7595 100.647C66.9543 104.562 65.5047 106.57 64.7573 106.78C64.673 105.937 64.5675 103.936 64.5223 103.099C64.4831 102.354 64.4349 101.654 64.3384 101.073C64.1847 100.158 64.6458 96.0418 64.239 95.6555C64.239 95.6555 63.4856 101.676 63.1691 101.006C62.1807 98.9165 61.6412 98.5971 60.4659 96.8236C60.3182 96.6016 63.1721 102.698 63.142 103.041C63.0215 104.416 62.8708 106.409 62.6779 109.296C61.7889 108.794 60.4267 107.817 59.6733 107.166C60.1916 105.387 58.5281 101.888 58.5281 101.888C58.5763 103.774 59.2936 106.281 58.956 106.515C58.2237 105.639 54.5561 102.871 53.6912 101.733C53.6912 101.733 58.8204 108.529 62.5423 111.151C62.3705 113.357 62.3012 116.989 62.2108 117.694C62.0209 119.167 61.7316 120.867 61.4363 122.154H65.782C65.7097 121.515 65.5499 120.907 65.5379 120.225C65.5077 118.869 65.4716 114.09 65.3149 113.138C70.7274 110.421 75.275 103.875 75.275 103.875C71.3844 107.717 66.6348 110.674 65.0165 110.801H65.0135Z" fill="#493B34"/>
<path opacity="0.5" d="M59.1248 77.2914C63.0154 76.4001 64.5765 77.1788 67.0929 78.4321C65.6132 76.248 63.1902 74.7909 60.4146 74.7118C55.7525 74.581 51.8679 78.3773 51.7323 83.1988C51.678 85.173 52.2717 87.0043 53.2994 88.4979C53.2964 88.507 53.2903 88.5162 53.2843 88.5283C49.2701 89.1033 46.1208 92.5954 46.0003 96.9241C45.9882 97.353 46.0123 97.7759 46.0606 98.1865C46.7929 96.5469 50.2104 90.4569 55.1136 91.5824C58.1032 92.273 58.73 92.1634 60.3514 91.0714C60.9451 90.6729 60.3755 90.4447 57.9013 89.666C52.5339 87.9777 51.7715 78.9796 59.1278 77.2914H59.1248Z" fill="#F9FD6F"/>
<path opacity="0.5" d="M65.0286 84.4916C64.1365 85.7297 65.1551 85.8088 67.5389 85.1669C68.9162 84.7958 71.5531 84.1965 73.9189 84.3851C74.7868 84.4551 76.8301 84.9236 77.4177 84.9388C75.9471 83.4026 73.9249 82.4292 71.6677 82.3653C70.5918 82.3349 69.5581 82.5204 68.5998 82.8763C68.5998 82.8763 65.9236 83.2596 65.0316 84.4977L65.0286 84.4916Z" fill="#F9FD6F"/>
<g opacity="0.5">
<path d="M83.0442 96.7111C83.0442 94.2623 81.7664 92.1238 79.8558 90.9283C79.8437 90.1252 79.7202 89.3496 79.5092 88.6134C79.0903 89.3131 78.4273 90.0249 77.3966 90.3382C75.055 91.053 76.5046 92.2881 76.5046 92.2881C76.5046 92.2881 79.6207 97.718 74.4975 100.836C72.3367 102.153 69.1181 102.418 66.3998 101.773C63.1631 101.003 60.4598 96.8206 60.4598 96.8206C60.4598 96.8206 60.9782 102.746 55.1076 104.359C52.329 105.122 49.4931 102.33 49.4931 102.33C49.4931 102.33 49.0893 102.485 47.5282 102.527C46.9737 102.542 46.4975 102.546 46.1028 102.546C46.2354 102.774 46.383 102.993 46.5669 103.19C47.1726 103.851 47.9592 104.225 48.7698 104.322C49.1707 107.683 51.9824 110.29 55.3999 110.29C58.4467 110.29 61.0113 108.222 61.816 105.393C63.2505 105.87 64.8869 105.727 66.2883 104.87C67.7258 106.232 69.6244 107.09 71.7309 107.148C73.1775 107.188 74.5487 106.85 75.7572 106.22C76.3117 106.899 77.1465 107.331 78.0868 107.331C79.7624 107.331 81.1215 105.959 81.1215 104.261C81.1215 103.452 80.8111 102.719 80.3048 102.174C81.9593 100.936 83.0352 98.953 83.0352 96.708L83.0442 96.7111Z" fill="#34651C"/>
<path d="M75.7451 97.721C75.7451 98.737 74.9254 99.5644 73.9158 99.5644C72.9063 99.5644 72.0865 98.737 72.0865 97.721C72.0865 96.705 72.9063 95.8745 73.9158 95.8745C74.9254 95.8745 75.7451 96.7019 75.7451 97.721Z" fill="#34651C"/>
<path d="M72.0233 99.5645C72.0233 100.209 71.5049 100.736 70.866 100.736C70.2271 100.736 69.7057 100.209 69.7057 99.5645C69.7057 98.9196 70.2241 98.3933 70.866 98.3933C71.5079 98.3933 72.0233 98.9165 72.0233 99.5645Z" fill="#34651C"/>
<path d="M53.6881 101.523C53.6881 102.171 53.1698 102.695 52.5279 102.695C51.886 102.695 51.3676 102.171 51.3676 101.523C51.3676 100.876 51.886 100.352 52.5279 100.352C53.1698 100.352 53.6881 100.876 53.6881 101.523Z" fill="#34651C"/>
<path d="M75.0761 94.746C75.0761 95.2206 74.6964 95.6069 74.2232 95.6069C73.7501 95.6069 73.3704 95.2206 73.3704 94.746C73.3704 94.2715 73.7501 93.8882 74.2232 93.8882C74.6964 93.8882 75.0761 94.2745 75.0761 94.746Z" fill="#34651C"/>
<path d="M55.3939 99.4549C55.3939 99.9294 55.0111 100.316 54.541 100.316C54.0709 100.316 53.6881 99.9294 53.6881 99.4549C53.6881 98.9803 54.0679 98.594 54.541 98.594C55.0142 98.594 55.3939 98.9803 55.3939 99.4549Z" fill="#34651C"/>
</g>
<path d="M78.5599 103.504C78.5599 104.149 78.0415 104.672 77.3996 104.672C76.7577 104.672 76.2394 104.149 76.2394 103.504C76.2394 102.859 76.7577 102.333 77.3996 102.333C78.0415 102.333 78.5599 102.856 78.5599 103.504Z" fill="#87AD54"/>
<path d="M79.6237 101.618C79.6237 102.035 79.2892 102.369 78.8794 102.369C78.4695 102.369 78.135 102.035 78.135 101.618C78.135 101.201 78.4695 100.866 78.8794 100.866C79.2892 100.866 79.6237 101.204 79.6237 101.618Z" fill="#87AD54"/>
<path opacity="0.5" d="M58.2508 81.1851C58.2508 81.83 57.7325 82.3562 57.0906 82.3562C56.4486 82.3562 55.9303 81.833 55.9303 81.1851C55.9303 80.5371 56.4486 80.0139 57.0906 80.0139C57.7325 80.0139 58.2508 80.5371 58.2508 81.1851Z" fill="#F9FD6F"/>
<path opacity="0.5" d="M55.1558 93.8852C55.1558 94.9408 54.3059 95.7955 53.2632 95.7955C52.2205 95.7955 51.3706 94.9408 51.3706 93.8852C51.3706 92.8296 52.2175 91.9749 53.2632 91.9749C54.309 91.9749 55.1558 92.8296 55.1558 93.8852Z" fill="#F9FD6F"/>
<path opacity="0.5" d="M58.8747 79.0587C58.8747 79.3628 58.6306 79.6092 58.3292 79.6092C58.0278 79.6092 57.7837 79.3628 57.7837 79.0587C57.7837 78.7545 58.0278 78.5081 58.3292 78.5081C58.6306 78.5081 58.8747 78.7545 58.8747 79.0587Z" fill="#F9FD6F"/>
<path opacity="0.5" d="M64.8718 86.4475C64.8718 86.7517 64.6277 86.9982 64.3264 86.9982C64.025 86.9982 63.7809 86.7517 63.7809 86.4475C63.7809 86.1434 64.025 85.8939 64.3264 85.8939C64.6277 85.8939 64.8718 86.1403 64.8718 86.4475Z" fill="#F9FD6F"/>
<path opacity="0.5" d="M62.9371 112.049V111.224L62.5272 111.331C62.3645 113.548 62.2982 117.01 62.2108 117.698C62.0209 119.17 61.7316 120.87 61.4363 122.157H62.3916L62.9371 119.03V112.052V112.049Z" fill="#A86F41"/>
<path d="M107.389 111.48C106.475 110.622 105.171 110.461 104.077 110.947C103.447 108.645 101.542 106.911 99.2186 106.585C99.9388 105.545 100.355 104.267 100.316 102.886C100.225 99.5401 97.5249 96.8997 94.2852 96.994C91.2294 97.0792 88.7883 99.5675 88.6014 102.661C87.9354 102.415 87.2182 102.284 86.4708 102.305C83.2311 102.397 80.6815 105.186 80.775 108.532C80.793 109.22 80.9256 109.871 81.1486 110.479C80.6393 111.41 80.356 112.487 80.3862 113.633C80.4796 116.98 83.1799 119.62 86.4195 119.529C87.4382 119.498 88.3845 119.2 89.2072 118.704C89.2584 118.756 89.2976 118.814 89.3488 118.863C90.8406 120.256 93.1822 120.152 94.5775 118.628C94.8518 118.333 95.0627 117.999 95.2225 117.652C96.1929 118.312 97.3591 118.683 98.6038 118.65C99.3391 118.628 100.035 118.464 100.677 118.19C100.774 118.607 100.982 118.999 101.31 119.307C102.208 120.149 103.631 120.079 104.483 119.155C105.065 118.519 105.234 117.649 104.996 116.894C105.897 116.952 106.822 116.612 107.494 115.881C108.666 114.607 108.618 112.639 107.389 111.483V111.48Z" fill="#8BC444"/>
<path d="M93.1641 121.108C93.128 121.558 93.1159 121.914 93.1129 122.248H96.8317C99.8092 119.964 103.052 116.332 103.052 116.332C102.292 117.174 99.0799 119.225 98.438 119.876C98.1427 119.705 98.7725 117.847 98.8147 116.45C98.8147 116.45 97.3561 119.039 97.8112 120.359C97.1512 120.843 95.9578 121.564 95.1772 121.935C95.0115 119.8 94.8759 118.324 94.7704 117.305C94.7433 117.05 97.2476 112.535 97.118 112.7C96.0874 114.011 95.6142 114.248 94.7463 115.796C94.469 116.292 93.806 111.833 93.806 111.833C93.4504 112.119 93.8542 115.167 93.7216 115.845C93.6373 116.277 93.5951 116.794 93.5589 117.348C93.5197 117.968 93.4293 119.45 93.354 120.073C92.697 119.918 91.4282 118.431 89.8461 115.532C89.8461 115.532 91.0666 120.493 93.1671 121.108H93.1641Z" fill="#504943"/>
<path d="M92.691 122.248H94.3666C92.471 121.351 86.3623 119.778 84.1382 117.92C84.1382 117.92 85.0122 120.161 92.694 122.248H92.691Z" fill="#504943"/>
<path opacity="0.5" d="M96.2471 100.687C96.2471 101.295 95.7589 101.788 95.1562 101.788C94.5534 101.788 94.0622 101.295 94.0622 100.687C94.0622 100.079 94.5504 99.5828 95.1562 99.5828C95.7619 99.5828 96.2471 100.076 96.2471 100.687Z" fill="#F9FD6F"/>
<path opacity="0.5" d="M93.6855 100.167C93.6855 100.453 93.4564 100.687 93.1731 100.687C92.8899 100.687 92.6578 100.456 92.6578 100.167C92.6578 99.8778 92.8869 99.6497 93.1731 99.6497C93.4594 99.6497 93.6855 99.8808 93.6855 100.167Z" fill="#F9FD6F"/>
<path opacity="0.5" d="M105.683 111.824C105.683 112.109 105.454 112.344 105.171 112.344C104.887 112.344 104.658 112.113 104.658 111.824C104.658 111.535 104.887 111.306 105.171 111.306C105.454 111.306 105.683 111.538 105.683 111.824Z" fill="#F9FD6F"/>
<g opacity="0.5">
<path d="M86.4165 119.529C87.4351 119.498 88.3814 119.2 89.2042 118.704C89.2554 118.756 89.2946 118.814 89.3458 118.863C90.8376 120.256 93.1792 120.152 94.5745 118.628C94.8488 118.333 95.0597 117.999 95.2194 117.652C96.1898 118.312 97.3561 118.683 98.6008 118.65C99.3361 118.628 100.032 118.464 100.674 118.19C100.771 118.607 100.979 119 101.307 119.307C102.205 120.149 103.628 120.079 104.48 119.155C105.062 118.519 105.231 117.649 104.993 116.895C105.894 116.952 106.819 116.612 107.491 115.882C108.498 114.789 108.603 113.186 107.835 112.021C107.452 112.958 106.897 114.108 106.319 114.592C105.27 115.468 104.116 113.503 103.052 112.444C101.985 111.386 101.497 112.551 100.026 113.299C98.5586 114.053 97.115 112.703 94.8879 111.991C92.6608 111.279 88.8064 114.455 87.5467 114.884C86.29 115.31 84.4034 116.469 82.0949 115.407C81.3596 115.069 80.8171 114.601 80.4193 114.117C80.7418 117.232 83.3335 119.62 86.4135 119.535L86.4165 119.529Z" fill="#34651C"/>
<path d="M99.4356 111.601C99.4356 112.301 98.872 112.87 98.1789 112.87C97.4857 112.87 96.9222 112.301 96.9222 111.601C96.9222 110.902 97.4827 110.333 98.1789 110.333C98.875 110.333 99.4356 110.902 99.4356 111.601Z" fill="#34651C"/>
<path d="M85.19 110.157C85.19 110.747 84.7168 111.224 84.1352 111.224C83.5536 111.224 83.0804 110.75 83.0804 110.157C83.0804 109.563 83.5536 109.089 84.1352 109.089C84.7168 109.089 85.19 109.566 85.19 110.157Z" fill="#34651C"/>
<path d="M100.963 111.221C100.963 111.544 100.704 111.802 100.388 111.802C100.071 111.802 99.8123 111.544 99.8123 111.221C99.8123 110.899 100.071 110.64 100.388 110.64C100.704 110.64 100.963 110.902 100.963 111.221Z" fill="#34651C"/>
<path d="M82.5952 110.059C82.5952 110.382 82.336 110.64 82.0196 110.64C81.7032 110.64 81.444 110.382 81.444 110.059C81.444 109.737 81.7032 109.478 82.0196 109.478C82.336 109.478 82.5952 109.74 82.5952 110.059Z" fill="#34651C"/>
<path d="M85.7927 108.429C85.7927 108.757 85.5305 109.025 85.205 109.025C84.8796 109.025 84.6143 108.76 84.6143 108.429C84.6143 108.097 84.8765 107.836 85.205 107.836C85.5335 107.836 85.7927 108.1 85.7927 108.429Z" fill="#34651C"/>
</g>
<path opacity="0.5" d="M94.2882 96.994C91.2324 97.0792 88.7913 99.5675 88.6045 102.661C87.9384 102.415 87.2212 102.287 86.4738 102.305C84.2226 102.369 82.3059 103.738 81.3777 105.688C83.9122 103.784 87.8631 104.325 89.7828 104.748C89.9395 104.781 90.0962 104.711 90.1776 104.575C90.259 104.438 90.2439 104.261 90.1414 104.14L89.5477 103.443C89.3639 103.227 89.3368 102.914 89.4814 102.67C90.3313 101.231 93.5228 96.7842 99.2367 99.5462C98.1427 97.9523 96.3224 96.9362 94.2882 96.991V96.994Z" fill="#F9FD6F"/>
<path opacity="0.5" d="M99.2306 106.57C95.994 106.92 93.6855 108.733 93.6855 108.733C93.6855 108.733 97.4104 107.65 100.765 108.003C101.238 108.051 102.009 108.24 102.769 108.517C101.859 107.486 100.617 106.78 99.2216 106.585C99.2246 106.579 99.2276 106.573 99.2306 106.57Z" fill="#F9FD6F"/>
<path d="M92.8386 114.878C92.8386 115.486 92.3504 115.979 91.7477 115.979C91.145 115.979 90.6567 115.486 90.6567 114.878C90.6567 114.269 91.145 113.776 91.7477 113.776C92.3504 113.776 92.8386 114.269 92.8386 114.878Z" fill="#8BC444"/>
<path d="M93.1732 113.019C93.1732 113.305 92.9441 113.539 92.6578 113.539C92.3715 113.539 92.1425 113.308 92.1425 113.019C92.1425 112.73 92.3715 112.502 92.6578 112.502C92.9441 112.502 93.1732 112.733 93.1732 113.019Z" fill="#8BC444"/>
</g>
<defs>
<clipPath id="clip0_2_2972">
<rect width="163" height="133" fill="white" transform="translate(0.5)"/>
</clipPath>
</defs>
</svg>
