<svg width="152" height="133" viewBox="0 0 152 133" fill="none" xmlns="http://www.w3.org/2000/svg">
<g clip-path="url(#clip0_2_3053)">
<path d="M3.21257 122.76C3.21257 122.76 12.9123 108.183 16.2929 104.879C20.2906 100.973 26.5971 96.9609 31.0266 93.5501C35.4536 90.1394 40.9499 89.713 40.9499 89.713L38.0036 126.082H1.1756L3.21257 122.762V122.76Z" fill="#ABC283"/>
<path d="M42.7888 126.082H113.948L129.284 25.4032C129.284 25.4032 115.787 48.3193 89.4105 59.7799C64.0855 70.7812 47.772 71.8877 47.772 71.8877L47.6958 76.2247L48.3079 78.392L42.7888 126.082Z" fill="#F0F1F7"/>
<path d="M42.7888 126.082H113.948L128.557 37.2953L127.834 34.9427C127.834 34.9427 115.79 54.0877 89.413 64.6982C64.0881 74.8848 47.6983 76.2248 47.6983 76.2248L48.3104 78.3921L42.7913 126.082H42.7888Z" fill="#AEB4BE"/>
<path d="M49.5346 126.082H15.1829L16.4097 111.629L36.0403 108.018L40.9473 78.2524L48.3078 78.392L49.5346 126.082Z" fill="#AEB4BE"/>
<path d="M42.7888 126.082H113.948L129.284 37.2064C129.284 37.2064 115.787 57.4376 89.4105 67.5532C64.0855 77.2678 48.3079 78.392 48.3079 78.392L42.7888 126.082Z" fill="#EAEBF1"/>
<path d="M40.9473 78.2524L37.2493 80.2928L31.5244 108.848L36.0403 108.018L40.9473 78.2524Z" fill="#F0F1F7"/>
<path d="M128.557 37.2952L127.831 34.9427L129.284 25.4032L133.172 27.2862L135.341 126.082H130.615L128.557 37.2952Z" fill="#BAC0CB"/>
<path opacity="0.1" d="M48.3079 78.392L42.7888 126.082H43.4567L76.0026 72.2252C58.64 77.651 48.3053 78.392 48.3053 78.392H48.3079Z" fill="#070041"/>
<path d="M41.7194 126.082V93.7862L87.8027 84.8938V126.082H41.7194Z" fill="#CBD2DE"/>
<path d="M87.8027 84.8938L98.4041 86.0992L93.1034 126.082H87.8027V84.8938Z" fill="#A8B2BE"/>
<path d="M45.1331 96.8163L83.7669 89.713V103.704L45.1331 108.018V96.8163Z" fill="#3B3A3C"/>
<path d="M45.1331 96.8163L57.1161 97.9024L83.7669 94.0069V89.713L45.1331 96.8163Z" fill="#434345"/>
<path d="M57.1161 97.9025V106.678L45.1331 108.018V96.8163L57.1161 97.9025Z" fill="url(#paint0_linear_2_3053)"/>
<path opacity="0.3" d="M83.7669 100.999L87.8028 105.846V126.082H73.6379L83.7669 100.999Z" fill="#070041"/>
<path d="M57.1161 100.308L83.7669 96.093V103.704C83.7669 103.704 80.8867 108.259 79.599 113.555C78.3113 118.854 78.0522 126.079 78.0522 126.079H34.7628C34.7628 126.079 37.5972 114.494 43.5227 108.845C49.4508 103.196 57.1161 100.308 57.1161 100.308Z" fill="url(#paint1_linear_2_3053)"/>
<path opacity="0.2" d="M70.6434 100.973C70.6434 100.973 70.359 101.235 69.8637 101.691C69.6173 101.92 69.3227 102.196 68.9849 102.511C68.6497 102.826 68.2738 103.184 67.8623 103.569C67.4534 103.958 67.0216 104.381 66.5644 104.828C66.1149 105.28 65.6399 105.752 65.1675 106.252C64.9237 106.498 64.6875 106.754 64.4487 107.013C64.2074 107.272 63.9636 107.531 63.7299 107.802C63.2474 108.335 62.7851 108.891 62.3203 109.444C61.8733 110.01 61.4187 110.574 61.0072 111.147L60.8497 111.36L60.7685 111.464L60.7278 111.515L60.7075 111.543L60.6973 111.556L60.6923 111.561C60.7151 111.525 60.6973 111.556 60.6999 111.548C60.5957 111.7 60.4967 111.85 60.3951 111.997C60.1919 112.294 59.9913 112.586 59.7931 112.873C59.4147 113.444 59.049 113.994 58.7035 114.515C58.348 115.048 58.0127 115.55 57.7028 116.015C57.0755 116.943 56.5345 117.715 56.1383 118.253C55.9478 118.524 55.7802 118.73 55.676 118.875C55.5643 119.017 55.5059 119.093 55.5059 119.093C55.5059 119.093 55.5236 118.999 55.5567 118.826C55.5973 118.656 55.6405 118.398 55.7268 118.083C55.8132 117.768 55.9021 117.377 56.0392 116.946C56.1713 116.509 56.3237 116.017 56.5167 115.492C56.7047 114.961 56.9206 114.395 57.1745 113.799C57.4133 113.205 57.7181 112.576 58.0381 111.929C58.1956 111.606 58.3683 111.304 58.5435 110.99C58.6299 110.832 58.7188 110.675 58.8077 110.518L58.9728 110.256L59.1302 110.018C59.3436 109.701 59.5417 109.368 59.7754 109.058C60.0116 108.749 60.2478 108.439 60.4815 108.132C60.9869 107.536 61.4898 106.939 62.046 106.404C62.1806 106.267 62.3152 106.13 62.4498 105.995C62.5921 105.866 62.7343 105.739 62.8715 105.61C63.1559 105.358 63.4226 105.1 63.7147 104.876C64.2785 104.404 64.8551 103.983 65.4062 103.592C65.6907 103.407 65.965 103.224 66.2317 103.049C66.5035 102.887 66.7702 102.727 67.0241 102.574C67.5397 102.283 68.0223 102.029 68.4592 101.823C68.8935 101.613 69.2872 101.455 69.6123 101.326C69.9323 101.194 70.199 101.113 70.3742 101.052C70.5545 100.996 70.6511 100.971 70.6511 100.971L70.6434 100.973Z" fill="white"/>
<path opacity="0.2" d="M63.2346 103.922C63.2346 103.922 62.9807 104.161 62.5387 104.579C62.1069 104.99 61.4898 105.577 60.7507 106.28C60.0192 106.977 59.1886 107.792 58.3302 108.68C57.8984 109.122 57.4641 109.584 57.0348 110.061C56.6005 110.533 56.1789 111.025 55.7547 111.518C55.3509 112.02 54.9344 112.515 54.561 113.025L54.2715 113.401L54.2613 113.411L54.2562 113.418C54.2435 113.436 54.2689 113.398 54.2638 113.403L54.2461 113.429L54.2105 113.479L54.1394 113.578L53.9997 113.779C53.8118 114.043 53.6263 114.302 53.4435 114.558C53.1082 115.063 52.7577 115.532 52.4402 116.012C52.11 116.484 51.8002 116.928 51.5106 117.342C50.9265 118.164 50.4185 118.847 50.0451 119.319C49.8673 119.56 49.7099 119.74 49.6108 119.869C49.5067 119.994 49.4508 120.062 49.4508 120.062C49.4508 120.062 49.466 119.979 49.4914 119.821C49.527 119.666 49.56 119.435 49.6337 119.149C49.7073 118.864 49.7835 118.512 49.9004 118.118C50.0172 117.725 50.1518 117.281 50.322 116.806C50.4871 116.329 50.6826 115.817 50.9112 115.281C51.1246 114.748 51.404 114.177 51.691 113.596C51.8357 113.309 51.9907 113.038 52.1507 112.753L52.2701 112.543L52.331 112.436L52.3615 112.383L52.3767 112.358L52.4072 112.309C52.5012 112.167 52.5952 112.023 52.6891 111.878C52.8847 111.594 53.0625 111.292 53.2809 111.02C53.4968 110.744 53.7127 110.467 53.9286 110.188C54.3934 109.66 54.8556 109.124 55.3636 108.647C55.6074 108.399 55.8614 108.168 56.1205 107.944C56.3796 107.721 56.6259 107.493 56.8951 107.295C57.4107 106.876 57.939 106.508 58.4445 106.165C58.7035 106.003 58.955 105.846 59.1963 105.693C59.4477 105.551 59.689 105.414 59.9227 105.282C60.8624 104.772 61.693 104.427 62.2873 104.216C62.5794 104.105 62.8232 104.041 62.9832 103.991C63.1458 103.942 63.2346 103.925 63.2346 103.925V103.922Z" fill="white"/>
<path style="mix-blend-mode:multiply" opacity="0.6" d="M76.7645 110.787C74.857 114.086 71.8676 120.131 69.7011 126.082H78.0522C78.0522 126.082 78.3087 118.857 79.599 113.558C80.8867 108.259 83.7669 103.706 83.7669 103.706V101.001C81.1432 103.564 79.3399 106.333 76.7645 110.789V110.787Z" fill="url(#paint2_linear_2_3053)"/>
<path d="M122.236 36.303L118.345 40.64L112.615 93.8953L117.118 92.3219L122.236 36.303Z" fill="#F0F1F7"/>
<path d="M111.7 126.082C111.7 126.082 116.925 111.089 121.474 102.689C126.02 94.2886 127.874 80.4095 127.79 74.0346C127.707 67.6597 128.41 49.8521 128.41 49.8521C128.41 49.8521 135.697 49.5501 140.533 58.1608C142.037 60.8382 145.356 68.7966 145.501 83.2493C145.656 98.7044 151.497 126.084 151.497 126.084H111.698L111.7 126.082Z" fill="#ABC283"/>
<path opacity="0.5" d="M45.1331 96.8163L50.6319 103.544L83.7669 98.8642V89.713L45.1331 96.8163Z" fill="#121B21"/>
<path d="M59.1175 114.088C59.3868 114.088 59.6026 113.865 59.6026 113.604C59.6026 113.342 59.3868 113.119 59.1175 113.119C58.8483 113.119 58.6426 113.345 58.6426 113.604C58.6426 113.863 58.8559 114.088 59.1175 114.088Z" fill="white"/>
<path d="M50.9569 113.005C51.2236 113.005 51.4395 112.789 51.4395 112.523C51.4395 112.256 51.2236 112.048 50.9569 112.048C50.6902 112.048 50.4794 112.264 50.4794 112.523C50.4794 112.781 50.6953 113.005 50.9569 113.005Z" fill="white"/>
<path d="M79.5075 121.367C79.7691 121.367 79.9825 121.151 79.9825 120.882C79.9825 120.613 79.7691 120.407 79.5075 120.407C79.2459 120.407 79.025 120.623 79.025 120.882C79.025 121.141 79.2409 121.367 79.5075 121.367Z" fill="white"/>
<path d="M53.2886 117.476C53.6924 117.476 54.0226 117.144 54.0226 116.74C54.0226 116.337 53.6898 116.007 53.2886 116.007C52.8873 116.007 52.5444 116.337 52.5444 116.74C52.5444 117.144 52.8771 117.476 53.2886 117.476Z" fill="white"/>
<path d="M70.0618 119.001C70.0948 119.001 70.1278 118.996 70.1609 118.991C70.1939 118.996 70.2244 119.001 70.2574 119.001C70.6714 119.001 71.0041 118.669 71.0041 118.266C71.0041 117.862 70.6714 117.532 70.2574 117.532C70.2244 117.532 70.1913 117.532 70.1609 117.537C70.1278 117.535 70.0948 117.532 70.0618 117.532C69.6554 117.532 69.3253 117.862 69.3253 118.266C69.3253 118.669 69.6554 119.001 70.0618 119.001Z" fill="white"/>
<path d="M65.424 116.74C65.683 116.74 65.8989 116.525 65.8989 116.258C65.8989 115.992 65.683 115.784 65.424 115.784C65.1649 115.784 64.9414 115.999 64.9414 116.258C64.9414 116.517 65.1649 116.74 65.424 116.74Z" fill="white"/>
<path d="M60.931 118.758C61.8733 118.758 62.6454 117.986 62.6454 117.045C62.6454 116.103 61.8758 115.324 60.931 115.324C59.9862 115.324 59.2191 116.093 59.2191 117.045C59.2191 117.997 59.9912 118.758 60.931 118.758Z" fill="white"/>
<path d="M57.5123 117.377C57.9161 117.377 58.2489 117.045 58.2489 116.641C58.2489 116.238 57.9161 115.908 57.5123 115.908C57.1085 115.908 56.7681 116.238 56.7681 116.641C56.7681 117.045 57.1009 117.377 57.5123 117.377Z" fill="white"/>
<path d="M37.968 117.862C38.5065 117.862 38.9535 117.423 38.9535 116.877C38.9535 116.332 38.504 115.9 37.968 115.9C37.4321 115.9 36.98 116.337 36.98 116.877C36.98 117.418 37.4194 117.862 37.968 117.862Z" fill="white"/>
<path d="M50.9569 118.068C51.2236 118.068 51.4395 117.855 51.4395 117.593C51.4395 117.332 51.2236 117.108 50.9569 117.108C50.6902 117.108 50.4794 117.324 50.4794 117.593C50.4794 117.862 50.6953 118.068 50.9569 118.068Z" fill="white"/>
<path d="M30.3535 125.265C30.3815 125.265 30.4069 125.262 30.4348 125.26C30.3586 125.526 30.3027 125.8 30.2697 126.079H83.6196C84.3358 125.643 84.8158 124.856 84.8158 123.963C84.8158 122.592 83.6932 121.471 82.3319 121.471C81.4099 121.471 80.6047 121.976 80.173 122.722C79.5837 122.164 78.8167 121.793 77.9684 121.704C77.5671 120.872 76.7188 120.293 75.7308 120.293C75.2837 120.293 74.8672 120.412 74.504 120.621C73.836 120.029 72.9598 119.669 71.9997 119.669C71.3342 119.669 70.7044 119.844 70.1634 120.149C69.7722 119.93 69.3404 119.781 68.8833 119.71C68.8934 119.641 68.8985 119.57 68.8985 119.499C68.8985 118.557 68.1264 117.788 67.1866 117.788C66.8666 117.788 66.5669 117.877 66.3104 118.032C66.2266 117.545 65.7999 117.169 65.2843 117.169C64.7204 117.169 64.2531 117.634 64.2531 118.21C64.2531 118.786 64.7204 119.25 65.2843 119.25C65.3579 119.25 65.4291 119.243 65.4976 119.227C65.4824 119.319 65.4722 119.408 65.4722 119.501C65.4722 119.913 65.6221 120.296 65.8685 120.59C65.7288 120.712 65.5992 120.844 65.4748 120.983C64.568 121.263 63.7654 121.785 63.1457 122.478C62.9933 122.402 62.8359 122.336 62.6733 122.28C63.0898 122.049 63.3743 121.605 63.3743 121.095C63.3743 120.344 62.7647 119.743 62.0206 119.743C61.4618 119.743 60.9767 120.083 60.771 120.57C60.3824 120.324 59.9277 120.182 59.435 120.182C59.3842 120.182 59.3308 120.187 59.28 120.189C59.3766 120.065 59.435 119.91 59.435 119.743C59.435 119.331 59.1048 118.999 58.6908 118.999C58.2768 118.999 57.9568 119.329 57.9568 119.743C57.9568 120.042 58.1371 120.298 58.3936 120.412C57.9238 120.628 57.5301 120.986 57.271 121.43C56.6919 121.133 56.0519 120.945 55.3737 120.892C55.7598 120.626 56.0138 120.182 56.0138 119.679C56.0138 118.864 55.3585 118.202 54.5432 118.202C53.9159 118.202 53.385 118.593 53.1717 119.146C52.618 118.824 51.9754 118.641 51.2871 118.641C50.7004 118.641 50.1416 118.776 49.6463 119.019C49.6514 118.966 49.6565 118.913 49.6565 118.854C49.6565 118.131 49.3441 117.479 48.8488 117.019C49.5625 116.923 50.1213 116.304 50.1213 115.555C50.1213 114.741 49.4584 114.086 48.6507 114.086C47.843 114.086 47.17 114.741 47.17 115.555C47.17 115.852 47.2589 116.126 47.4087 116.36C47.3198 116.35 47.2309 116.347 47.142 116.347C45.7604 116.347 44.6301 117.476 44.6301 118.854C44.6301 119.045 44.653 119.227 44.6936 119.405C44.625 119.397 44.559 119.392 44.4879 119.392C43.6167 119.392 42.8903 120.004 42.7049 120.816C42.0115 120.027 40.9981 119.529 39.8679 119.529C39.3624 119.529 38.8773 119.631 38.4328 119.814C38.3414 118.958 37.6099 118.283 36.7286 118.283C35.7787 118.283 35.0066 119.055 35.0066 119.994C35.0066 120.709 35.4561 121.326 36.0886 121.582C35.8676 121.552 35.6415 121.534 35.4104 121.534C34.4529 121.534 33.5563 121.798 32.7867 122.25C32.5429 121.133 31.5498 120.296 30.3586 120.296C28.9871 120.296 27.8746 121.407 27.8746 122.778C27.8746 124.148 28.9871 125.262 30.3586 125.262L30.3535 125.265Z" fill="white"/>
<path d="M32.3524 118.068C32.6141 118.068 32.8274 117.855 32.8274 117.593C32.8274 117.332 32.6141 117.108 32.3524 117.108C32.0908 117.108 31.8699 117.324 31.8699 117.593C31.8699 117.862 32.0832 118.068 32.3524 118.068Z" fill="white"/>
<path d="M40.2286 115.809C40.4876 115.809 40.7111 115.593 40.7111 115.327C40.7111 115.06 40.4876 114.852 40.2286 114.852C39.9695 114.852 39.7536 115.068 39.7536 115.327C39.7536 115.586 39.9695 115.809 40.2286 115.809Z" fill="white"/>
<path d="M45.1152 115.558C45.6537 115.558 46.0931 115.119 46.0931 114.573C46.0931 114.027 45.6537 113.596 45.1152 113.596C44.5768 113.596 44.1298 114.035 44.1298 114.573C44.1298 115.111 44.5692 115.558 45.1152 115.558Z" fill="white"/>
<path d="M42.4535 119.494C43.2688 119.494 43.9317 118.831 43.9317 118.024C43.9317 117.217 43.2688 116.545 42.4535 116.545C41.6382 116.545 40.9803 117.207 40.9803 118.024C40.9803 118.842 41.6458 119.494 42.4535 119.494Z" fill="white"/>
<path fill-rule="evenodd" clip-rule="evenodd" d="M73.4601 118.131C72.7668 118.131 72.2054 118.697 72.2054 119.382C72.2054 120.067 72.7642 120.636 73.4601 120.636C74.1561 120.636 74.7148 120.078 74.7148 119.382C74.7148 118.687 74.1561 118.131 73.4601 118.131Z" fill="white"/>
<path fill-rule="evenodd" clip-rule="evenodd" d="M67.8191 111.985C67.1232 111.985 66.5619 112.553 66.5619 113.238C66.5619 113.923 67.1207 114.489 67.8191 114.489C68.5176 114.489 69.0713 113.931 69.0713 113.238C69.0713 112.545 68.5125 111.985 67.8191 111.985Z" fill="white"/>
<path fill-rule="evenodd" clip-rule="evenodd" d="M74.5269 113.984C73.831 113.984 73.2722 114.553 73.2722 115.238C73.2722 115.923 73.831 116.492 74.5269 116.492C75.2228 116.492 75.7816 115.933 75.7816 115.238C75.7816 114.543 75.2228 113.984 74.5269 113.984Z" fill="white"/>
<path fill-rule="evenodd" clip-rule="evenodd" d="M76.2921 119.392C75.5962 119.392 75.0374 119.961 75.0374 120.646C75.0374 121.331 75.5962 121.9 76.2921 121.9C76.988 121.9 77.5468 121.341 77.5468 120.646C77.5468 119.951 76.988 119.392 76.2921 119.392Z" fill="white"/>
<path fill-rule="evenodd" clip-rule="evenodd" d="M63.1077 102.818C62.8867 102.818 62.7013 102.996 62.7013 103.227C62.7013 103.458 62.8867 103.633 63.1077 103.633C63.3286 103.633 63.5141 103.447 63.5141 103.227C63.5141 103.006 63.3363 102.818 63.1077 102.818Z" fill="white"/>
<path fill-rule="evenodd" clip-rule="evenodd" d="M48.2698 103.407C48.0488 103.407 47.8634 103.585 47.8634 103.813C47.8634 104.041 48.0488 104.219 48.2698 104.219C48.4908 104.219 48.6762 104.031 48.6762 103.813C48.6762 103.595 48.4984 103.407 48.2698 103.407Z" fill="white"/>
<path fill-rule="evenodd" clip-rule="evenodd" d="M52.3336 106.056C52.1126 106.056 51.9272 106.234 51.9272 106.462C51.9272 106.691 52.1126 106.868 52.3336 106.868C52.5545 106.868 52.7425 106.683 52.7425 106.462C52.7425 106.242 52.5647 106.056 52.3336 106.056Z" fill="white"/>
<path fill-rule="evenodd" clip-rule="evenodd" d="M42.1258 105.833C41.8642 105.833 41.6432 106.044 41.6432 106.315C41.6432 106.587 41.8642 106.797 42.1258 106.797C42.3874 106.797 42.6084 106.574 42.6084 106.315C42.6084 106.041 42.3976 105.833 42.1258 105.833Z" fill="white"/>
<path fill-rule="evenodd" clip-rule="evenodd" d="M46.7027 108.505C46.4411 108.505 46.2201 108.716 46.2201 108.987C46.2201 109.259 46.4411 109.47 46.7027 109.47C46.9643 109.47 47.1852 109.249 47.1852 108.987C47.1852 108.726 46.9744 108.505 46.7027 108.505Z" fill="white"/>
<path fill-rule="evenodd" clip-rule="evenodd" d="M46.0118 110.863C45.8797 110.863 45.7705 110.97 45.7705 111.104C45.7705 111.239 45.8823 111.345 46.0118 111.345C46.1413 111.345 46.2531 111.236 46.2531 111.104C46.2531 110.972 46.1464 110.863 46.0118 110.863Z" fill="white"/>
<path fill-rule="evenodd" clip-rule="evenodd" d="M59.3918 110.7C59.115 110.7 58.8839 110.924 58.8839 111.208C58.8839 111.492 59.115 111.716 59.3918 111.716C59.6687 111.716 59.8998 111.482 59.8998 111.208C59.8998 110.934 59.6763 110.7 59.3918 110.7Z" fill="white"/>
<path fill-rule="evenodd" clip-rule="evenodd" d="M68.3423 108.878C68.1188 108.878 67.9359 109.056 67.9359 109.284C67.9359 109.513 68.1213 109.693 68.3423 109.693C68.5633 109.693 68.7487 109.505 68.7487 109.284C68.7487 109.064 68.5709 108.878 68.3423 108.878Z" fill="white"/>
<path fill-rule="evenodd" clip-rule="evenodd" d="M72.5229 111.804C72.909 111.804 73.2265 111.487 73.2265 111.101C73.2265 110.716 72.909 110.401 72.5229 110.401C72.1369 110.401 71.8194 110.711 71.8194 111.101C71.8194 111.492 72.1369 111.804 72.5229 111.804Z" fill="white"/>
<path fill-rule="evenodd" clip-rule="evenodd" d="M41.7398 110.277C42.1259 110.277 42.4433 109.959 42.4433 109.576C42.4433 109.193 42.1259 108.873 41.7398 108.873C41.3537 108.873 41.0363 109.183 41.0363 109.576C41.0363 109.97 41.3537 110.277 41.7398 110.277Z" fill="white"/>
<path fill-rule="evenodd" clip-rule="evenodd" d="M54.4492 111.571C54.8353 111.571 55.1528 111.254 55.1528 110.868C55.1528 110.482 54.8353 110.165 54.4492 110.165C54.0632 110.165 53.7482 110.475 53.7482 110.868C53.7482 111.261 54.0657 111.571 54.4492 111.571Z" fill="white"/>
<path fill-rule="evenodd" clip-rule="evenodd" d="M61.5101 113.215C61.8961 113.215 62.2136 112.898 62.2136 112.512C62.2136 112.127 61.8987 111.809 61.5101 111.809C61.1215 111.809 60.8091 112.119 60.8091 112.512C60.8091 112.906 61.124 113.215 61.5101 113.215Z" fill="white"/>
<path fill-rule="evenodd" clip-rule="evenodd" d="M56.5675 108.396C56.9536 108.396 57.2685 108.079 57.2685 107.693C57.2685 107.307 56.9536 106.99 56.5675 106.99C56.1815 106.99 55.8665 107.297 55.8665 107.693C55.8665 108.089 56.184 108.396 56.5675 108.396Z" fill="white"/>
<path fill-rule="evenodd" clip-rule="evenodd" d="M42.6947 112.393C42.8675 112.393 43.0122 112.256 43.0122 112.076C43.0122 111.896 42.8675 111.759 42.6947 111.759C42.522 111.759 42.3773 111.903 42.3773 112.076C42.3773 112.248 42.5195 112.393 42.6947 112.393Z" fill="white"/>
<path fill-rule="evenodd" clip-rule="evenodd" d="M60.6618 110.355C60.8345 110.355 60.9793 110.218 60.9793 110.038C60.9793 109.858 60.8345 109.721 60.6618 109.721C60.4891 109.721 60.3443 109.865 60.3443 110.038C60.3443 110.211 60.4865 110.355 60.6618 110.355Z" fill="white"/>
<path fill-rule="evenodd" clip-rule="evenodd" d="M44.0968 104.049C44.2695 104.049 44.4143 103.912 44.4143 103.732C44.4143 103.552 44.2695 103.415 44.0968 103.415C43.9241 103.415 43.7793 103.559 43.7793 103.732C43.7793 103.904 43.9241 104.049 44.0968 104.049Z" fill="white"/>
<path fill-rule="evenodd" clip-rule="evenodd" d="M47.104 110.772C47.2767 110.772 47.4215 110.635 47.4215 110.457C47.4215 110.279 47.2767 110.14 47.104 110.14C46.9313 110.14 46.7865 110.284 46.7865 110.457C46.7865 110.629 46.9313 110.772 47.104 110.772Z" fill="white"/>
<path fill-rule="evenodd" clip-rule="evenodd" d="M63.5979 107.965C63.8087 107.965 63.9865 107.795 63.9865 107.577C63.9865 107.358 63.8087 107.188 63.5979 107.188C63.3871 107.188 63.2067 107.366 63.2067 107.577C63.2067 107.787 63.3845 107.965 63.5979 107.965Z" fill="white"/>
<path fill-rule="evenodd" clip-rule="evenodd" d="M57.0425 104.239C57.2558 104.239 57.4336 104.069 57.4336 103.848C57.4336 103.628 57.2558 103.46 57.0425 103.46C56.8291 103.46 56.6539 103.638 56.6539 103.848C56.6539 104.059 56.8317 104.239 57.0425 104.239Z" fill="white"/>
<path d="M6.5601 115.507C5.09459 115.078 3.8399 113.984 3.26843 112.436C2.64617 110.749 2.99413 108.947 4.02277 107.632C2.89253 104.414 4.42407 100.874 7.55064 99.6231C8.29482 99.3261 9.05932 99.1891 9.8162 99.1891C8.87391 96.0499 10.4105 92.6797 13.4431 91.4666C16.6586 90.18 20.3312 91.8016 21.6494 95.0931C22.1879 96.4407 22.2412 97.8542 21.9034 99.1485C21.911 99.1536 21.9136 99.1586 21.9212 99.1637C24.8649 98.5318 27.9457 100.133 29.1293 103.085C29.3071 103.531 29.429 103.988 29.5052 104.445C30.4323 105.14 30.8006 106.417 30.3231 107.556C30.0691 108.165 29.617 108.627 29.076 108.904C29.65 111.325 28.3547 113.842 25.9723 114.718C23.8515 115.499 21.5377 114.728 20.2576 112.987C19.3788 113.682 18.2028 114.002 17.0116 113.774C16.3538 115.081 15.2515 116.157 13.7987 116.74C12.8005 117.139 11.7592 117.258 10.7585 117.134C10.5426 117.743 10.0727 118.258 9.41744 118.497C8.24911 118.928 6.95124 118.326 6.51946 117.157C6.31373 116.598 6.34421 116.015 6.55756 115.507H6.5601Z" fill="#8BC444"/>
<path d="M16.2903 117.74C16.2725 117.106 16.27 116.608 16.3233 115.812C14.5429 115.2 13.5117 110.277 13.5117 110.277C14.8528 113.154 15.9271 114.629 16.4833 114.784C16.5468 114.165 16.6256 112.695 16.6586 112.078C16.6891 111.53 16.7246 111.015 16.7958 110.586C16.91 109.914 16.5697 106.889 16.8694 106.604C16.8694 106.604 17.4282 111.03 17.6644 110.538C18.3984 109 18.7997 108.767 19.6709 107.465C19.7801 107.302 17.6618 111.782 17.6847 112.035C17.7736 113.045 17.8879 114.51 18.0276 116.631C18.6905 116.261 19.7014 115.545 20.2576 115.065C19.8741 113.756 21.1084 111.188 21.1084 111.188C21.0729 112.573 20.5395 114.416 20.791 114.588C21.3345 113.944 24.0572 111.911 24.6998 111.074C24.6998 111.074 20.8926 116.065 18.1292 117.994C18.2587 119.613 18.3095 122.283 18.3755 122.803C18.5152 123.884 18.7286 125.135 18.9496 126.079H15.7239C15.7773 125.612 15.8966 125.163 15.9068 124.663C15.9271 123.666 15.9551 120.154 16.0719 119.453C12.0538 117.456 8.67834 112.647 8.67834 112.647C11.5662 115.469 15.094 117.641 16.2929 117.735L16.2903 117.74Z" fill="#493B34"/>
<path opacity="0.5" d="M14.995 92.9132C12.0589 93.2964 11.1674 94.2328 9.73492 95.7428C10.2124 93.8572 11.5255 92.2331 13.4431 91.4666C16.6586 90.18 20.3312 91.8016 21.6494 95.0931C22.1879 96.4407 22.2412 97.8542 21.9034 99.1485C21.911 99.1536 21.9136 99.1586 21.9212 99.1637C24.8649 98.5318 27.9457 100.133 29.1293 103.085C29.2462 103.376 29.3376 103.673 29.4087 103.97C25.4338 99.4378 17.4688 102.303 18.9978 101.13C22.3073 98.5927 20.5522 92.1924 14.9975 92.9132H14.995Z" fill="#F9FD6F"/>
<path opacity="0.5" d="M11.137 100.499C10.0804 100.595 8.09167 100.859 6.4941 101.595C5.90739 101.864 4.6019 102.712 4.19806 102.871C4.83303 101.435 5.99374 100.245 7.55068 99.623C8.29486 99.3261 9.05936 99.1891 9.81624 99.1891C9.81624 99.1891 12.9606 100.334 11.1395 100.501L11.137 100.499Z" fill="#F9FD6F"/>
<path opacity="0.5" d="M22.3378 103.425C22.3378 103.899 22.7238 104.285 23.1988 104.285C23.6737 104.285 24.0598 103.899 24.0598 103.425C24.0598 102.95 23.6737 102.564 23.1988 102.564C22.7238 102.564 22.3378 102.95 22.3378 103.425Z" fill="#F9FD6F"/>
<path opacity="0.5" d="M23.6102 105.31C23.6102 106.084 24.2376 106.714 25.0148 106.714C25.792 106.714 26.4193 106.084 26.4193 105.31C26.4193 104.536 25.7894 103.907 25.0148 103.907C24.2401 103.907 23.6102 104.536 23.6102 105.31Z" fill="#F9FD6F"/>
<path opacity="0.5" d="M24.6109 102.871C24.6109 103.095 24.7912 103.275 25.0173 103.275C25.2433 103.275 25.4211 103.095 25.4211 102.871C25.4211 102.648 25.2408 102.465 25.0173 102.465C24.7938 102.465 24.6109 102.648 24.6109 102.871Z" fill="#F9FD6F"/>
<g opacity="0.5">
<path d="M3.26593 112.436C2.64366 110.749 2.99162 108.947 4.02027 107.632C5.47053 108.183 6.69729 107.711 6.69729 107.711C6.69729 107.711 5.95819 112.018 10.2683 113.091C14.2407 114.081 16.6866 108.767 16.6866 108.767C16.6866 108.767 20.1738 110.942 24.6719 110.551C26.8003 110.363 26.8282 108.003 27.7629 106.605C28.695 105.209 28.3877 107.714 29.4849 107.343C29.8761 107.211 30.2088 107.092 30.4831 106.99C30.4501 107.181 30.4018 107.371 30.3231 107.554C30.0691 108.163 29.617 108.625 29.076 108.901C29.65 111.322 28.3547 113.84 25.9723 114.715C23.8515 115.497 21.5377 114.725 20.2576 112.984C19.3788 113.68 18.2029 114 17.0117 113.771C16.3538 115.078 15.2515 116.154 13.7987 116.738C12.8006 117.136 11.7592 117.256 10.7585 117.131C10.5426 117.74 10.0728 118.255 9.41748 118.494C8.24914 118.925 6.95127 118.324 6.5195 117.154C6.31377 116.596 6.34425 116.012 6.55759 115.504C5.09209 115.076 3.8374 113.982 3.26593 112.434V112.436Z" fill="#34651C"/>
<path d="M7.31702 108.855C7.31702 109.604 7.92404 110.211 8.6733 110.211C9.42256 110.211 10.0321 109.604 10.0321 108.855C10.0321 108.107 9.4251 107.5 8.6733 107.5C7.9215 107.5 7.31702 108.107 7.31702 108.855Z" fill="#34651C"/>
<path d="M6.09277 105.495C6.09277 105.97 6.47883 106.356 6.95379 106.356C7.42874 106.356 7.8148 105.97 7.8148 105.495C7.8148 105.021 7.43128 104.635 6.95379 104.635C6.47629 104.635 6.09277 105.021 6.09277 105.495Z" fill="#34651C"/>
<path d="M7.81482 106.67C7.81482 107.018 8.09928 107.302 8.44725 107.302C8.79521 107.302 9.07967 107.018 9.07967 106.67C9.07967 106.323 8.79521 106.039 8.44725 106.039C8.09928 106.039 7.81482 106.323 7.81482 106.67Z" fill="#34651C"/>
<path d="M15.7748 94.819C15.7748 95.3215 16.1837 95.7275 16.6866 95.7275C17.1895 95.7275 17.5984 95.319 17.5984 94.819C17.5984 94.3191 17.1895 93.908 16.6866 93.908C16.1837 93.908 15.7748 94.3165 15.7748 94.819Z" fill="#34651C"/>
<path d="M17.6542 96.659C17.6542 97.065 17.9844 97.3924 18.3883 97.3924C18.7921 97.3924 19.1223 97.065 19.1223 96.659C19.1223 96.2529 18.7946 95.9255 18.3883 95.9255C17.9819 95.9255 17.6542 96.2554 17.6542 96.659Z" fill="#34651C"/>
</g>
<path opacity="0.5" d="M17.832 118.656V118.05L18.1368 118.126C18.2587 119.755 18.307 122.298 18.373 122.803C18.5127 123.884 18.7261 125.135 18.947 126.079H18.2384L17.8346 123.783V118.654L17.832 118.656Z" fill="#A86F41"/>
<path d="M21.4767 112.83C21.4767 113.304 21.8628 113.69 22.3378 113.69C22.8127 113.69 23.1988 113.304 23.1988 112.83C23.1988 112.355 22.8127 111.969 22.3378 111.969C21.8628 111.969 21.4767 112.355 21.4767 112.83Z" fill="#87AD54"/>
<path d="M20.6843 111.444C20.6843 111.751 20.9332 111.997 21.238 111.997C21.5428 111.997 21.7917 111.751 21.7917 111.444C21.7917 111.137 21.5453 110.891 21.238 110.891C20.9307 110.891 20.6843 111.139 20.6843 111.444Z" fill="#87AD54"/>
<path d="M16.5596 119.743C16.016 119.238 15.2388 119.141 14.5912 119.428C14.2178 118.073 13.0825 117.053 11.7033 116.86C12.1326 116.248 12.3789 115.494 12.3561 114.682C12.3002 112.713 10.695 111.16 8.76726 111.213C6.95126 111.264 5.49845 112.728 5.3867 114.55C4.99048 114.406 4.56378 114.33 4.11931 114.34C2.19409 114.393 0.677793 116.035 0.73113 118.007C0.743829 118.41 0.822565 118.796 0.954638 119.154C0.649854 119.702 0.482223 120.334 0.500002 121.011C0.555879 122.981 2.16361 124.536 4.08883 124.481C4.69332 124.463 5.25717 124.288 5.74482 123.996C5.7753 124.026 5.79816 124.059 5.83118 124.09C6.71759 124.91 8.10943 124.849 8.94251 123.95C9.10252 123.775 9.22951 123.582 9.32603 123.377C9.90258 123.765 10.596 123.983 11.3376 123.963C11.777 123.95 12.191 123.854 12.572 123.691C12.6279 123.938 12.7498 124.166 12.9479 124.349C13.4838 124.846 14.327 124.805 14.835 124.26C15.1804 123.887 15.282 123.374 15.1398 122.93C15.6757 122.963 16.2268 122.763 16.6256 122.334C17.3215 121.585 17.2936 120.425 16.5621 119.745L16.5596 119.743Z" fill="#8BC444"/>
<path d="M8.10181 125.409C8.08149 125.673 8.07133 125.884 8.07133 126.082H10.2836C12.0538 124.737 13.9816 122.6 13.9816 122.6C13.532 123.095 11.6195 124.303 11.236 124.684C11.0607 124.582 11.4341 123.488 11.4595 122.666C11.4595 122.666 10.5934 124.191 10.8626 124.968C10.4715 125.252 9.76288 125.676 9.29808 125.897C9.19649 124.638 9.11775 123.77 9.05426 123.169C9.03902 123.019 10.5274 120.362 10.4486 120.458C9.83653 121.23 9.55461 121.369 9.03902 122.28C8.87393 122.572 8.48025 119.946 8.48025 119.946C8.26944 120.116 8.50819 121.91 8.42945 122.308C8.38119 122.562 8.35325 122.867 8.33294 123.191C8.31008 123.557 8.2542 124.43 8.21102 124.795C7.82242 124.704 7.06554 123.828 6.12579 122.12C6.12579 122.12 6.84965 125.041 8.09927 125.404L8.10181 125.409Z" fill="#504943"/>
<path d="M7.81989 126.082H8.81552C7.68782 125.554 4.05581 124.628 2.73254 123.534C2.73254 123.534 3.25322 124.854 7.81989 126.082Z" fill="#504943"/>
<path opacity="0.5" d="M9.93557 113.391C9.93557 113.748 9.64602 114.038 9.2879 114.038C8.92978 114.038 8.6377 113.748 8.6377 113.391C8.6377 113.033 8.92724 112.741 9.2879 112.741C9.64856 112.741 9.93557 113.03 9.93557 113.391Z" fill="#F9FD6F"/>
<path opacity="0.5" d="M8.41169 113.083C8.41169 113.253 8.27454 113.388 8.10691 113.388C7.93928 113.388 7.80212 113.251 7.80212 113.083C7.80212 112.916 7.93928 112.779 8.10691 112.779C8.27454 112.779 8.41169 112.913 8.41169 113.083Z" fill="#F9FD6F"/>
<g opacity="0.5">
<path d="M4.08882 124.481C4.69331 124.463 5.25716 124.288 5.74481 123.996C5.77529 124.026 5.79815 124.059 5.83117 124.09C6.71758 124.909 8.10943 124.849 8.9425 123.95C9.10251 123.775 9.2295 123.582 9.32602 123.377C9.90257 123.765 10.596 123.983 11.3376 123.963C11.777 123.95 12.191 123.854 12.572 123.691C12.6278 123.937 12.7498 124.166 12.9479 124.349C13.4838 124.846 14.327 124.805 14.835 124.26C15.1804 123.887 15.282 123.374 15.1398 122.93C15.6757 122.963 16.2268 122.762 16.6256 122.334C17.2225 121.689 17.286 120.745 16.8288 120.06C16.6027 120.61 16.2725 121.288 15.9271 121.572C15.3049 122.09 14.6166 120.93 13.9841 120.308C13.3517 119.684 13.0596 120.369 12.1859 120.811C11.3122 121.253 10.4537 120.458 9.13045 120.039C7.80718 119.618 5.51368 121.489 4.76442 121.74C4.0177 121.991 2.89508 122.674 1.52102 122.049C1.08416 121.851 0.761598 121.575 0.525391 121.291C0.71842 123.125 2.25758 124.529 4.09136 124.478L4.08882 124.481Z" fill="#34651C"/>
<path d="M11.8304 119.814C11.8304 120.225 11.4951 120.56 11.0836 120.56C10.6722 120.56 10.3369 120.227 10.3369 119.814C10.3369 119.4 10.6722 119.068 11.0836 119.068C11.4951 119.068 11.8304 119.402 11.8304 119.814Z" fill="#34651C"/>
<path d="M12.7396 119.593C12.7396 119.781 12.5847 119.935 12.3967 119.935C12.2088 119.935 12.0538 119.783 12.0538 119.593C12.0538 119.403 12.2062 119.25 12.3967 119.25C12.5872 119.25 12.7396 119.403 12.7396 119.593Z" fill="#34651C"/>
</g>
<path opacity="0.5" d="M8.76724 111.216C6.9487 111.266 5.49844 112.731 5.38668 114.55C4.99046 114.406 4.56631 114.33 4.11929 114.342C2.78078 114.38 1.64038 115.185 1.08923 116.334C2.59537 115.215 4.94475 115.532 6.08769 115.781C6.17912 115.801 6.27564 115.761 6.32389 115.68C6.37215 115.598 6.36453 115.494 6.30103 115.423L5.94799 115.012C5.83878 114.885 5.82354 114.703 5.90736 114.558C6.41279 113.71 8.31007 111.091 11.7084 112.721C11.0557 111.782 9.97368 111.183 8.7647 111.216H8.76724Z" fill="#F9FD6F"/>
<path opacity="0.5" d="M11.7084 116.852C9.78321 117.058 8.41168 118.126 8.41168 118.126C8.41168 118.126 10.6264 117.489 12.6202 117.697C12.9022 117.728 13.3619 117.837 13.8114 117.999C13.273 117.393 12.5339 116.976 11.7033 116.862C11.7033 116.86 11.7084 116.855 11.711 116.852H11.7084Z" fill="#F9FD6F"/>
<path opacity="0.1" d="M98.4041 86.0992L107.708 95.3951V126.082H93.1035L98.4041 86.0992Z" fill="#070041"/>
<path d="M97.4873 99.1841L96.2605 126.082H91.9681L93.3981 100.595L97.4873 99.1841Z" fill="#F0F1F7"/>
<path d="M130.615 126.082H96.2605L97.4872 99.1841L117.118 92.3219L122.236 36.303L129.152 37.4069L130.615 126.082Z" fill="#A8B2BE"/>
<path d="M99.7706 122.76C99.7706 122.76 109.948 110.967 114.682 108.257C119.416 105.546 115.939 97.867 121.352 94.4562C126.762 91.0454 140.396 99.2247 141.595 103.559C142.796 107.894 145.023 126.079 145.023 126.079H97.2841L99.7731 122.76H99.7706Z" fill="#449555"/>
<path d="M125.304 70.5477L120.841 79.1939L122.002 78.9249L121.517 80.4933L116.79 85.5358L119.394 85.5562L117.029 89.3171L114.278 91.8701L116.739 93.6567L112.975 100.851H116.16L109.79 108.122L113.554 109.858L106.75 113.182L111.078 114.545L113.265 115.23L120.938 117.811L134.112 116.799L144.099 113.474L137.584 111.302L140.482 109.858L133.967 102.483L136.571 101.943L132.809 94.5932L136.428 93.0781L132.809 90.619L131.674 88.5837L133.701 87.8706L130.081 84.1096L131.941 83.2417L127.762 78.9021L129.624 78.0342L125.304 70.5477Z" fill="#33884D"/>
<path d="M127.018 126.082H121.951L123.254 116.365H126.15L126.607 123.019L127.018 126.082Z" fill="#493B34"/>
<path opacity="0.5" d="M120.938 117.811L134.112 116.799L144.099 113.474L137.584 111.302L140.482 109.858L133.967 102.483L136.571 101.943L132.809 94.5932L136.428 93.0781L132.809 90.619L131.674 88.5837L133.701 87.8706L130.081 84.1096L131.94 83.2417L127.762 78.9021L129.624 78.0342L125.624 71.101L126.005 77.4555L123.978 78.7574L127.018 80.0669L126.729 84.2543L123.447 85.4115L127.018 89.1725L123.833 94.4587L131.554 99.4961L127.018 101.696L121.951 102.191L131.844 110.193L126.632 113.073L113.085 115.175L113.265 115.23L120.938 117.811Z" fill="#334F2C"/>
<g opacity="0.2">
<path opacity="0.5" d="M116.16 100.851L109.79 108.122L121.324 100.851H116.16Z" fill="#F9FD6F"/>
<path opacity="0.5" d="M116.739 93.6567L112.975 100.851H114.631L119.371 94.1795L116.739 93.6567Z" fill="#F9FD6F"/>
<path opacity="0.5" d="M114.278 91.8702L115.241 92.5681L118.235 89.6547L118.367 87.1854L117.029 89.3172L114.278 91.8702Z" fill="#F9FD6F"/>
<path opacity="0.5" d="M113.554 109.858L106.75 113.182L125.426 109.858H113.554Z" fill="#F9FD6F"/>
<path opacity="0.5" d="M121.626 80.1405L121.517 80.4933L116.79 85.5358L117.578 85.5409L123.663 80.1405H121.626Z" fill="#F9FD6F"/>
<path opacity="0.5" d="M121.578 79.0239L124.026 76.8617L125.304 70.5477L120.841 79.1939L121.578 79.0239Z" fill="#F9FD6F"/>
</g>
<path opacity="0.5" d="M122.82 126.082L123.663 116.365H123.254L121.951 126.082H122.82Z" fill="#A86F41"/>
<g opacity="0.2">
<path opacity="0.5" d="M116.79 92.1138L118.367 90.7637V91.9311L116.79 92.1138Z" fill="#F9FD6F"/>
<path opacity="0.5" d="M124.483 80.1405V81.3612L125.304 80.7496L124.483 80.1405Z" fill="#F9FD6F"/>
<path opacity="0.5" d="M117.58 99.4962H119.371V97.938L117.58 99.4962Z" fill="#F9FD6F"/>
<path opacity="0.5" d="M125.426 109.005L123.663 107.3L122.807 108.553L125.426 109.005Z" fill="#F9FD6F"/>
<path opacity="0.5" d="M130.932 114.347L129.17 112.642L128.314 113.896L130.932 114.347Z" fill="#F9FD6F"/>
<path opacity="0.5" d="M137.399 110.711L135.636 109.005L134.78 110.259L137.399 110.711Z" fill="#F9FD6F"/>
<path opacity="0.5" d="M122.289 107.3L121.324 109.005H119.876L122.289 107.3Z" fill="#F9FD6F"/>
<path opacity="0.5" d="M125.426 88.9796L124.483 89.878L123.663 88.9796H125.426Z" fill="#F9FD6F"/>
<path opacity="0.5" d="M128.778 92.7583L127.839 93.6567L127.018 92.7583H128.778Z" fill="#F9FD6F"/>
<path opacity="0.5" d="M135.232 92.7583L134.292 93.6567L133.472 92.7583H135.232Z" fill="#F9FD6F"/>
<path opacity="0.5" d="M130.505 83.0767L129.563 83.975L128.743 83.0767H130.505Z" fill="#F9FD6F"/>
<path opacity="0.5" d="M127.018 100.07L128.593 99.6179L126.632 98.717L127.018 100.07Z" fill="#F9FD6F"/>
</g>
<g opacity="0.5">
<path opacity="0.5" d="M136.091 111.52H134.353L136.091 112.7V111.52Z" fill="#334F2C"/>
<path opacity="0.5" d="M132.809 102.963L130.686 103.557L132.809 104.485V102.963Z" fill="#334F2C"/>
<path opacity="0.5" d="M126.632 94.5931L128.593 95.1921L127.018 96.2122L126.632 94.5931Z" fill="#334F2C"/>
<path opacity="0.5" d="M129.624 84.4471H128.593L129.624 85.5409V84.4471Z" fill="#334F2C"/>
</g>
<path d="M126.767 110.604C128.062 109.645 128.903 108.107 128.903 106.366C128.903 104.47 127.902 102.813 126.406 101.887C126.35 98.2908 123.544 95.3444 119.996 95.248C119.152 95.2226 118.345 95.3698 117.595 95.6413C117.382 92.1925 114.634 89.4161 111.19 89.3223C107.54 89.2207 104.497 92.1646 104.393 95.8976C104.35 97.4279 104.815 98.8491 105.62 100.004C105.615 100.011 105.612 100.019 105.61 100.027C102.468 100.473 100.004 103.181 99.9103 106.531C99.895 107.038 99.9408 107.536 100.032 108.016C99.3718 109.043 99.4709 110.439 100.36 111.393C100.832 111.903 101.449 112.195 102.084 112.271C102.397 114.878 104.601 116.895 107.276 116.895C109.658 116.895 111.667 115.291 112.3 113.099C113.422 113.469 114.702 113.358 115.8 112.693C116.925 113.748 118.411 114.411 120.062 114.456C121.194 114.487 122.266 114.225 123.211 113.738C123.645 114.264 124.298 114.599 125.035 114.599C126.348 114.599 127.412 113.533 127.412 112.221C127.412 111.594 127.168 111.025 126.772 110.602L126.767 110.604Z" fill="#8BC444"/>
<path d="M114.789 117.286C114.809 116.616 114.812 116.093 114.756 115.253C116.633 114.609 117.72 109.419 117.72 109.419C116.308 112.451 115.172 114.01 114.588 114.172C114.522 113.517 114.438 111.969 114.403 111.32C114.372 110.744 114.334 110.2 114.258 109.749C114.139 109.041 114.499 105.851 114.182 105.551C114.182 105.551 113.593 110.216 113.344 109.698C112.569 108.079 112.147 107.83 111.228 106.457C111.111 106.287 113.346 111.01 113.323 111.276C113.229 112.342 113.11 113.885 112.96 116.121C112.264 115.733 111.197 114.977 110.608 114.474C111.015 113.094 109.712 110.383 109.712 110.383C109.75 111.845 110.311 113.789 110.047 113.967C109.473 113.286 106.603 111.142 105.927 110.261C105.927 110.261 109.94 115.525 112.856 117.56C112.721 119.268 112.668 122.082 112.597 122.628C112.45 123.77 112.224 125.087 111.992 126.084H115.393C115.337 125.592 115.213 125.118 115.2 124.59C115.177 123.539 115.147 119.836 115.025 119.098C119.262 116.994 122.82 111.921 122.82 111.921C119.777 114.898 116.056 117.19 114.791 117.288L114.789 117.286Z" fill="#493B34"/>
<path opacity="0.5" d="M110.179 91.3195C113.224 90.6267 114.446 91.2332 116.417 92.2026C115.261 90.5125 113.364 89.3832 111.19 89.3223C107.54 89.2207 104.497 92.1646 104.393 95.8976C104.35 97.4279 104.815 98.8491 105.62 100.004C105.615 100.011 105.612 100.019 105.61 100.027C102.468 100.473 100.004 103.181 99.9103 106.531C99.9001 106.863 99.9179 107.188 99.956 107.508C100.53 106.237 103.204 101.519 107.042 102.392C109.381 102.925 109.874 102.841 111.142 101.996C111.606 101.686 111.159 101.511 109.224 100.907C105.02 99.6003 104.426 92.6264 110.184 91.3195H110.179Z" fill="#F9FD6F"/>
<path opacity="0.5" d="M114.801 96.8975C114.103 97.8568 114.901 97.9177 116.765 97.4203C117.844 97.1335 119.907 96.6666 121.758 96.8137C122.436 96.867 124.039 97.2299 124.496 97.2426C123.346 96.0524 121.763 95.2962 119.996 95.2479C119.152 95.2226 118.345 95.3697 117.595 95.6413C117.595 95.6413 115.5 95.9382 114.801 96.8975Z" fill="#F9FD6F"/>
<g opacity="0.5">
<path d="M128.903 106.366C128.903 104.47 127.902 102.813 126.406 101.887C126.396 101.265 126.299 100.666 126.137 100.093C125.809 100.633 125.291 101.186 124.483 101.43C122.65 101.983 123.785 102.942 123.785 102.942C123.785 102.942 126.226 107.15 122.215 109.566C120.524 110.586 118.004 110.792 115.876 110.292C113.341 109.695 111.225 106.455 111.225 106.455C111.225 106.455 111.629 111.048 107.037 112.297C104.863 112.888 102.643 110.726 102.643 110.726C102.643 110.726 102.326 110.845 101.107 110.878C100.672 110.888 100.299 110.893 99.9916 110.891C100.096 111.066 100.21 111.238 100.357 111.391C100.83 111.901 101.447 112.193 102.082 112.269C102.394 114.875 104.599 116.893 107.273 116.893C109.656 116.893 111.665 115.289 112.297 113.096C113.42 113.467 114.7 113.355 115.797 112.69C116.922 113.746 118.408 114.408 120.059 114.454C121.192 114.484 122.264 114.223 123.208 113.736C123.643 114.261 124.296 114.596 125.032 114.596C126.345 114.596 127.409 113.53 127.409 112.218C127.409 111.591 127.166 111.023 126.769 110.599C128.065 109.64 128.905 108.102 128.905 106.361L128.903 106.366Z" fill="#34651C"/>
<path d="M123.191 107.148C123.191 107.937 122.551 108.579 121.758 108.579C120.966 108.579 120.326 107.937 120.326 107.148C120.326 106.358 120.966 105.719 121.758 105.719C122.551 105.719 123.191 106.358 123.191 107.148Z" fill="#34651C"/>
<path d="M120.275 108.579C120.275 109.079 119.869 109.485 119.368 109.485C118.868 109.485 118.461 109.079 118.461 108.579C118.461 108.079 118.868 107.67 119.368 107.67C119.869 107.67 120.275 108.079 120.275 108.579Z" fill="#34651C"/>
<path d="M105.925 110.096C105.925 110.599 105.518 111.002 105.018 111.002C104.518 111.002 104.109 110.596 104.109 110.096C104.109 109.596 104.515 109.19 105.018 109.19C105.521 109.19 105.925 109.596 105.925 110.096Z" fill="#34651C"/>
<path d="M122.667 104.843C122.667 105.211 122.368 105.511 121.999 105.511C121.631 105.511 121.334 105.211 121.334 104.843C121.334 104.475 121.631 104.176 121.999 104.176C122.368 104.176 122.667 104.475 122.667 104.843Z" fill="#34651C"/>
<path d="M107.261 108.493C107.261 108.861 106.961 109.16 106.593 109.16C106.224 109.16 105.925 108.861 105.925 108.493C105.925 108.125 106.224 107.825 106.593 107.825C106.961 107.825 107.261 108.125 107.261 108.493Z" fill="#34651C"/>
</g>
<path d="M125.393 111.629C125.393 112.129 124.986 112.535 124.483 112.535C123.981 112.535 123.574 112.127 123.574 111.629C123.574 111.132 123.983 110.723 124.483 110.723C124.984 110.723 125.393 111.129 125.393 111.629Z" fill="#87AD54"/>
<path d="M126.228 110.17C126.228 110.492 125.967 110.751 125.644 110.751C125.322 110.751 125.06 110.492 125.06 110.17C125.06 109.848 125.322 109.586 125.644 109.586C125.967 109.586 126.228 109.848 126.228 110.17Z" fill="#87AD54"/>
<path opacity="0.5" d="M109.493 94.3369C109.493 94.8394 109.087 95.2429 108.584 95.2429C108.081 95.2429 107.677 94.8394 107.677 94.3369C107.677 93.8344 108.084 93.4309 108.584 93.4309C109.084 93.4309 109.493 93.837 109.493 94.3369Z" fill="#F9FD6F"/>
<path opacity="0.5" d="M107.073 104.176C107.073 104.993 106.41 105.655 105.592 105.655C104.774 105.655 104.111 104.993 104.111 104.176C104.111 103.359 104.774 102.696 105.592 102.696C106.41 102.696 107.073 103.359 107.073 104.176Z" fill="#F9FD6F"/>
<path opacity="0.5" d="M109.983 92.6899C109.983 92.9259 109.793 93.1162 109.557 93.1162C109.32 93.1162 109.13 92.9259 109.13 92.6899C109.13 92.4539 109.32 92.261 109.557 92.261C109.793 92.261 109.983 92.4513 109.983 92.6899Z" fill="#F9FD6F"/>
<path opacity="0.5" d="M114.68 98.4126C114.68 98.6486 114.489 98.8389 114.253 98.8389C114.017 98.8389 113.826 98.6486 113.826 98.4126C113.826 98.1765 114.019 97.9862 114.253 97.9862C114.487 97.9862 114.68 98.1765 114.68 98.4126Z" fill="#F9FD6F"/>
<path opacity="0.5" d="M113.166 118.25V117.611L112.846 117.692C112.719 119.41 112.665 122.093 112.597 122.623C112.45 123.765 112.224 125.082 111.992 126.079H112.739L113.166 123.658V118.25Z" fill="#A86F41"/>
<path d="M150.728 117.479C149.989 116.794 148.937 116.664 148.056 117.053C147.548 115.213 146.011 113.827 144.134 113.571C144.716 112.738 145.051 111.716 145.021 110.614C144.947 107.939 142.765 105.83 140.152 105.904C137.686 105.973 135.715 107.96 135.562 110.431C135.026 110.236 134.447 110.132 133.843 110.147C131.229 110.221 129.17 112.446 129.246 115.124C129.261 115.672 129.37 116.192 129.548 116.68C129.136 117.421 128.908 118.281 128.931 119.197C129.007 121.872 131.186 123.981 133.802 123.907C134.625 123.884 135.39 123.646 136.05 123.25C136.091 123.29 136.124 123.336 136.164 123.377C137.368 124.488 139.258 124.407 140.386 123.189C140.607 122.953 140.777 122.686 140.906 122.41C141.689 122.938 142.631 123.235 143.637 123.204C144.231 123.189 144.792 123.054 145.31 122.836C145.387 123.166 145.554 123.481 145.821 123.727C146.547 124.399 147.693 124.346 148.384 123.605C148.853 123.098 148.988 122.402 148.798 121.798C149.524 121.844 150.273 121.572 150.814 120.989C151.762 119.971 151.721 118.398 150.728 117.476V117.479Z" fill="#8BC444"/>
<path d="M139.248 125.171C139.22 125.529 139.21 125.813 139.207 126.082H142.209C144.612 124.257 147.231 121.357 147.231 121.357C146.618 122.032 144.025 123.669 143.505 124.186C143.266 124.049 143.774 122.565 143.809 121.451C143.809 121.451 142.633 123.519 142.999 124.572C142.468 124.955 141.506 125.534 140.873 125.831C140.739 124.125 140.632 122.945 140.546 122.131C140.525 121.928 142.544 118.319 142.44 118.451C141.607 119.499 141.226 119.687 140.528 120.925C140.304 121.321 139.771 117.758 139.771 117.758C139.484 117.986 139.809 120.423 139.702 120.963C139.634 121.308 139.601 121.722 139.57 122.161C139.537 122.659 139.464 123.841 139.405 124.341C138.874 124.217 137.851 123.029 136.573 120.712C136.573 120.712 137.559 124.676 139.253 125.168L139.248 125.171Z" fill="#504943"/>
<path d="M138.864 126.082H140.215C138.684 125.366 133.754 124.108 131.958 122.623C131.958 122.623 132.664 124.415 138.862 126.082H138.864Z" fill="#504943"/>
<path opacity="0.5" d="M141.737 108.853C141.737 109.338 141.343 109.734 140.855 109.734C140.368 109.734 139.974 109.34 139.974 108.853C139.974 108.366 140.368 107.972 140.855 107.972C141.343 107.972 141.737 108.366 141.737 108.853Z" fill="#F9FD6F"/>
<path opacity="0.5" d="M139.669 108.439C139.669 108.668 139.484 108.853 139.255 108.853C139.027 108.853 138.841 108.668 138.841 108.439C138.841 108.211 139.027 108.028 139.255 108.028C139.484 108.028 139.669 108.213 139.669 108.439Z" fill="#F9FD6F"/>
<path opacity="0.5" d="M149.351 117.75C149.351 117.979 149.166 118.164 148.937 118.164C148.709 118.164 148.523 117.979 148.523 117.75C148.523 117.522 148.709 117.337 148.937 117.337C149.166 117.337 149.351 117.522 149.351 117.75Z" fill="#F9FD6F"/>
<g opacity="0.5">
<path d="M133.802 123.91C134.625 123.887 135.39 123.648 136.05 123.252C136.091 123.293 136.124 123.339 136.164 123.379C137.368 124.491 139.258 124.41 140.386 123.191C140.607 122.955 140.777 122.689 140.906 122.412C141.689 122.94 142.631 123.237 143.637 123.207C144.231 123.191 144.792 123.057 145.31 122.839C145.387 123.169 145.554 123.483 145.821 123.73C146.547 124.402 147.693 124.349 148.384 123.608C148.853 123.1 148.988 122.405 148.798 121.801C149.524 121.846 150.273 121.575 150.814 120.991C151.627 120.118 151.711 118.837 151.091 117.908C150.784 118.656 150.334 119.573 149.867 119.961C149.021 120.661 148.089 119.09 147.231 118.245C146.372 117.4 145.973 118.329 144.79 118.928C143.606 119.529 142.44 118.451 140.642 117.882C138.844 117.314 135.733 119.852 134.717 120.194C133.701 120.534 132.179 121.458 130.318 120.613C129.723 120.344 129.286 119.971 128.964 119.583C129.225 122.072 131.316 123.981 133.802 123.91Z" fill="#34651C"/>
<path d="M144.31 117.575C144.31 118.136 143.855 118.588 143.296 118.588C142.737 118.588 142.28 118.134 142.28 117.575C142.28 117.017 142.735 116.563 143.296 116.563C143.858 116.563 144.31 117.017 144.31 117.575Z" fill="#34651C"/>
<path d="M132.812 116.421C132.812 116.893 132.431 117.273 131.961 117.273C131.491 117.273 131.107 116.893 131.107 116.421C131.107 115.949 131.488 115.568 131.961 115.568C132.433 115.568 132.812 115.951 132.812 116.421Z" fill="#34651C"/>
<path d="M145.541 117.273C145.541 117.53 145.333 117.735 145.077 117.735C144.82 117.735 144.612 117.53 144.612 117.273C144.612 117.017 144.82 116.809 145.077 116.809C145.333 116.809 145.541 117.017 145.541 117.273Z" fill="#34651C"/>
<path d="M130.719 116.342C130.719 116.598 130.511 116.806 130.254 116.806C129.998 116.806 129.789 116.598 129.789 116.342C129.789 116.086 129.998 115.878 130.254 115.878C130.511 115.878 130.719 116.086 130.719 116.342Z" fill="#34651C"/>
<path d="M133.297 115.04C133.297 115.304 133.086 115.515 132.822 115.515C132.558 115.515 132.347 115.302 132.347 115.04C132.347 114.779 132.56 114.566 132.822 114.566C133.083 114.566 133.297 114.779 133.297 115.04Z" fill="#34651C"/>
</g>
<path opacity="0.5" d="M140.154 105.904C137.688 105.973 135.717 107.96 135.565 110.431C135.026 110.233 134.45 110.132 133.845 110.147C132.029 110.198 130.483 111.292 129.733 112.85C131.778 111.327 134.968 111.761 136.52 112.101C136.644 112.129 136.774 112.073 136.84 111.962C136.906 111.853 136.893 111.71 136.809 111.614L136.329 111.056C136.18 110.883 136.159 110.634 136.276 110.436C136.962 109.287 139.537 105.731 144.15 107.942C143.266 106.668 141.795 105.856 140.154 105.901V105.904Z" fill="#F9FD6F"/>
<path opacity="0.5" d="M144.145 113.555C141.531 113.835 139.669 115.284 139.669 115.284C139.669 115.284 142.674 114.418 145.384 114.703C145.765 114.741 146.387 114.89 146.999 115.114C146.268 114.291 145.265 113.725 144.137 113.571C144.139 113.563 144.142 113.56 144.145 113.558V113.555Z" fill="#F9FD6F"/>
<path d="M138.984 120.192C138.984 120.676 138.59 121.072 138.102 121.072C137.615 121.072 137.221 120.679 137.221 120.192C137.221 119.705 137.617 119.311 138.102 119.311C138.587 119.311 138.984 119.705 138.984 120.192Z" fill="#8BC444"/>
<path d="M139.255 118.707C139.255 118.936 139.07 119.121 138.841 119.121C138.613 119.121 138.427 118.936 138.427 118.707C138.427 118.479 138.613 118.293 138.841 118.293C139.07 118.293 139.255 118.479 139.255 118.707Z" fill="#8BC444"/>
<g style="mix-blend-mode:multiply">
<path d="M23.9226 128.5C27.707 129.206 66.1555 134.051 78.1995 135.127C96.0827 136.723 122.233 131.056 132.446 128.79C142.656 126.521 135.308 125.914 128.867 124.963C122.429 124.014 74.0341 123.488 74.0341 123.488C74.0341 123.488 20.9002 124.508 19.7217 125.821C18.5407 127.133 20.1433 127.795 23.9252 128.498L23.9226 128.5Z" fill="#E7EBEE"/>
</g>
<g style="mix-blend-mode:multiply">
<path d="M25.5812 126.402C29.7999 127.237 57.5606 131.33 68.2052 132.388C78.8523 133.447 107.664 130.14 116.711 128.465C125.758 126.79 119.721 126.016 113.61 125.232C107.685 124.47 69.3202 123.542 69.3202 123.542C69.3202 123.542 18.34 122.737 17.2809 123.8C16.2192 124.864 21.3574 125.567 25.5812 126.402Z" fill="#E7EBEE"/>
</g>
</g>
<defs>
<linearGradient id="paint0_linear_2_3053" x1="45.1331" y1="102.417" x2="57.1161" y2="102.417" gradientUnits="userSpaceOnUse">
<stop stop-color="#5C5D60"/>
<stop offset="1" stop-color="#353435"/>
</linearGradient>
<linearGradient id="paint1_linear_2_3053" x1="60.6694" y1="125.63" x2="57.7938" y2="95.8185" gradientUnits="userSpaceOnUse">
<stop stop-color="#00548C"/>
<stop offset="0.08" stop-color="#05588F"/>
<stop offset="0.19" stop-color="#166599"/>
<stop offset="0.31" stop-color="#3079A9"/>
<stop offset="0.44" stop-color="#5696BF"/>
<stop offset="0.57" stop-color="#86BBDC"/>
<stop offset="0.62" stop-color="#99CAE8"/>
<stop offset="1" stop-color="#005A95"/>
</linearGradient>
<linearGradient id="paint2_linear_2_3053" x1="77.7779" y1="124.333" x2="75.3791" y2="99.4882" gradientUnits="userSpaceOnUse">
<stop offset="0.62" stop-color="#92C8E7"/>
<stop offset="1" stop-color="#00548C"/>
</linearGradient>
<clipPath id="clip0_2_3053">
<rect width="151" height="133" fill="white" transform="translate(0.5)"/>
</clipPath>
</defs>
</svg>
