<svg width="14" height="12" viewBox="0 0 14 12" fill="none" xmlns="http://www.w3.org/2000/svg">
<path fill-rule="evenodd" clip-rule="evenodd" d="M0.5 6C0.5 5.77271 0.585593 5.55473 0.737949 5.39402C0.890306 5.2333 1.09694 5.14301 1.31241 5.14301H10.725L7.2365 1.46482C7.08395 1.3039 6.99825 1.08565 6.99825 0.858071C6.99825 0.630497 7.08395 0.412243 7.2365 0.251323C7.38905 0.0904038 7.59595 0 7.81168 0C8.02742 0 8.23432 0.0904038 8.38687 0.251323L13.2613 5.39325C13.337 5.47286 13.397 5.56743 13.438 5.67154C13.4789 5.77566 13.5 5.88728 13.5 6C13.5 6.11272 13.4789 6.22434 13.438 6.32845C13.397 6.43257 13.337 6.52714 13.2613 6.60675L8.38687 11.7487C8.23432 11.9096 8.02742 12 7.81168 12C7.59595 12 7.38905 11.9096 7.2365 11.7487C7.08395 11.5878 6.99825 11.3695 6.99825 11.1419C6.99825 10.9144 7.08395 10.6961 7.2365 10.5352L10.725 6.85699H1.31241C1.09694 6.85699 0.890306 6.7667 0.737949 6.60598C0.585593 6.44527 0.5 6.22729 0.5 6Z" fill="white"/>
</svg>
