<svg width="303" height="263" viewBox="0 0 303 263" fill="none" xmlns="http://www.w3.org/2000/svg">
<g filter="url(#filter0_d_132_586)">
<path fill-rule="evenodd" clip-rule="evenodd" d="M164.411 0C162.123 0 159.846 0.0479039 157.582 0.142766C157.306 0.154323 157.091 0.387353 157.103 0.663253C157.114 0.939154 157.348 1.15345 157.623 1.14189C159.874 1.04761 162.137 1 164.411 1C166.685 1 168.948 1.04761 171.199 1.14189C171.475 1.15345 171.708 0.939154 171.719 0.663254C171.731 0.387353 171.516 0.154323 171.241 0.142767C168.976 0.0479041 166.699 0 164.411 0ZM121.625 6.80705C121.891 6.7331 122.047 6.45747 121.973 6.19142C121.899 5.92536 121.623 5.76963 121.357 5.84358C116.953 7.06779 112.625 8.4752 108.381 10.0571C108.123 10.1535 107.991 10.4415 108.088 10.7002C108.184 10.959 108.472 11.0906 108.731 10.9941C112.947 9.42214 117.248 8.02357 121.625 6.80705ZM207.465 5.84358C207.199 5.76963 206.923 5.92537 206.849 6.19142C206.775 6.45748 206.931 6.73311 207.197 6.80706C211.574 8.02358 215.875 9.42215 220.091 10.9941C220.35 11.0906 220.638 10.959 220.734 10.7003C220.831 10.4415 220.699 10.1536 220.441 10.0571C216.197 8.47521 211.869 7.0678 207.465 5.84358ZM76.2738 27.5607C76.5038 27.4078 76.5663 27.0975 76.4134 26.8675C76.2605 26.6375 75.9502 26.575 75.7202 26.7279C71.9257 29.2504 68.2448 31.9301 64.6867 34.7577C64.4705 34.9295 64.4345 35.244 64.6063 35.4602C64.7781 35.6764 65.0927 35.7124 65.3088 35.5406C68.8448 32.7305 72.5029 30.0675 76.2738 27.5607ZM253.102 26.7279C252.872 26.5751 252.562 26.6376 252.409 26.8675C252.256 27.0975 252.318 27.4078 252.548 27.5607C256.319 30.0675 259.977 32.7305 263.513 35.5406C263.729 35.7124 264.044 35.6764 264.216 35.4603C264.388 35.2441 264.352 34.9295 264.135 34.7577C260.577 31.9301 256.896 29.2504 253.102 26.7279ZM39.5406 61.3088C39.7124 61.0926 39.6764 60.7781 39.4603 60.6063C39.2441 60.4345 38.9295 60.4705 38.7577 60.6867C35.9301 64.2447 33.2504 67.9257 30.7279 71.7202C30.5751 71.9502 30.6376 72.2605 30.8675 72.4134C31.0975 72.5663 31.4078 72.5038 31.5607 72.2738C34.0675 68.5029 36.7305 64.8448 39.5406 61.3088ZM290.064 60.6867C289.893 60.4705 289.578 60.4345 289.362 60.6063C289.146 60.7781 289.11 61.0927 289.281 61.3088C292.092 64.8448 294.755 68.5029 297.261 72.2738C297.414 72.5038 297.725 72.5663 297.955 72.4134C298.185 72.2605 298.247 71.9502 298.094 71.7202C295.572 67.9257 292.892 64.2448 290.064 60.6867ZM14.9941 104.731C15.0906 104.472 14.959 104.184 14.7003 104.088C14.4415 103.991 14.1536 104.123 14.0571 104.381C12.4752 108.625 11.0678 112.953 9.84358 117.357C9.76963 117.623 9.92537 117.899 10.1914 117.973C10.4575 118.047 10.7331 117.891 10.8071 117.625C12.0236 113.248 13.4221 108.947 14.9941 104.731ZM5.14189 153.623C5.15345 153.347 4.93915 153.114 4.66325 153.103C4.38735 153.091 4.15432 153.306 4.14277 153.582C4.0479 155.846 4 158.123 4 160.411C4 162.699 4.0479 164.976 4.14277 167.241C4.15432 167.516 4.38735 167.731 4.66325 167.719C4.76825 167.715 4.86432 167.678 4.94241 167.62C4.9845 166.93 5.03083 166.241 5.08138 165.554C5.02726 163.846 5 162.132 5 160.411C5 158.137 5.04761 155.874 5.14189 153.623Z" fill="white"/>
<path fill-rule="evenodd" clip-rule="evenodd" d="M70.1888 154.145C70.0636 156.133 70 158.137 70 160.157C70 162.401 70.0786 164.628 70.2331 166.833C70.2524 167.109 70.4914 167.317 70.7668 167.297C71.0423 167.278 71.25 167.039 71.2307 166.764C71.0777 164.581 71 162.378 71 160.157C71 159.026 71.0201 157.9 71.0601 156.78C70.7574 155.907 70.4669 155.029 70.1888 154.145ZM258.08 153.48C258.061 153.204 257.822 152.997 257.546 153.016C257.271 153.035 257.063 153.274 257.083 153.55C257.235 155.732 257.313 157.935 257.313 160.157C257.313 162.378 257.235 164.581 257.083 166.764C257.063 167.039 257.271 167.278 257.546 167.297C257.822 167.317 258.061 167.109 258.08 166.833C258.235 164.628 258.313 162.401 258.313 160.157C258.313 157.912 258.235 155.685 258.08 153.48ZM80.3639 200.911C80.2429 200.662 79.9436 200.559 79.6954 200.68C79.4471 200.801 79.344 201.1 79.4649 201.349C81.4229 205.367 83.6583 209.225 86.1463 212.898C86.3011 213.126 86.612 213.186 86.8406 213.031C87.0693 212.876 87.1291 212.565 86.9742 212.337C84.5126 208.703 82.3009 204.886 80.3639 200.911ZM248.848 201.349C248.969 201.101 248.866 200.801 248.618 200.68C248.37 200.559 248.07 200.662 247.949 200.911C246.012 204.886 243.801 208.703 241.339 212.337C241.184 212.565 241.244 212.876 241.473 213.031C241.701 213.186 242.012 213.126 242.167 212.898C244.655 209.225 246.89 205.367 248.848 201.349ZM111.976 237.339C111.748 237.184 111.437 237.244 111.282 237.473C111.127 237.701 111.187 238.012 111.416 238.167C115.088 240.655 118.946 242.89 122.964 244.848C123.213 244.969 123.512 244.866 123.633 244.618C123.754 244.37 123.651 244.07 123.403 243.949C119.427 242.012 115.61 239.801 111.976 237.339ZM216.898 238.167C217.126 238.012 217.186 237.701 217.031 237.473C216.876 237.244 216.565 237.184 216.337 237.339C212.703 239.801 208.886 242.012 204.911 243.949C204.662 244.07 204.559 244.37 204.68 244.618C204.801 244.866 205.1 244.969 205.349 244.848C209.367 242.89 213.225 240.655 216.898 238.167ZM157.55 253.083C157.274 253.063 157.035 253.271 157.016 253.546C156.997 253.822 157.204 254.061 157.48 254.08C159.685 254.235 161.912 254.313 164.157 254.313C166.401 254.313 168.628 254.235 170.833 254.08C171.109 254.061 171.317 253.822 171.297 253.546C171.278 253.271 171.039 253.063 170.764 253.083C168.581 253.235 166.378 253.313 164.157 253.313C161.935 253.313 159.732 253.235 157.55 253.083Z" fill="white"/>
<path fill-rule="evenodd" clip-rule="evenodd" d="M254.911 244.743C255.413 244.205 255.91 243.662 256.402 243.115C256.587 242.91 256.57 242.594 256.364 242.409C256.348 242.394 256.331 242.381 256.314 242.369C255.853 243.165 255.385 243.957 254.911 244.743ZM247.115 68.6609C246.91 68.4762 246.594 68.493 246.409 68.6983C246.224 68.9036 246.241 69.2197 246.446 69.4044C249.677 72.3104 252.752 75.3857 255.658 78.6163C255.843 78.8216 256.159 78.8383 256.364 78.6537C256.57 78.469 256.587 78.1529 256.402 77.9476C253.472 74.6907 250.372 71.5905 247.115 68.6609ZM276.012 107.247C275.892 106.998 275.594 106.893 275.345 107.012C275.096 107.131 274.99 107.43 275.11 107.679C276.977 111.58 278.645 115.595 280.099 119.71C280.191 119.971 280.476 120.107 280.737 120.015C280.997 119.923 281.134 119.638 281.042 119.377C279.576 115.228 277.895 111.18 276.012 107.247ZM287.891 153.964C287.877 153.688 287.641 153.476 287.366 153.49C287.09 153.505 286.878 153.74 286.893 154.016C287.006 156.173 287.063 158.346 287.063 160.531C287.063 162.717 287.006 164.889 286.893 167.047C286.878 167.323 287.09 167.558 287.366 167.572C287.641 167.587 287.877 167.375 287.891 167.099C288.005 164.924 288.063 162.735 288.063 160.531C288.063 158.328 288.005 156.138 287.891 153.964ZM281.042 201.685C281.134 201.425 280.997 201.139 280.737 201.047C280.476 200.955 280.191 201.092 280.099 201.352C278.645 205.468 276.977 209.483 275.11 213.384C274.99 213.633 275.096 213.931 275.345 214.051C275.594 214.17 275.892 214.065 276.012 213.816C277.895 209.883 279.576 205.835 281.042 201.685Z" fill="white" fill-opacity="0.3"/>
</g>
<defs>
<filter id="filter0_d_132_586" x="0" y="0" width="302.178" height="262.313" filterUnits="userSpaceOnUse" color-interpolation-filters="sRGB">
<feFlood flood-opacity="0" result="BackgroundImageFix"/>
<feColorMatrix in="SourceAlpha" type="matrix" values="0 0 0 0 0 0 0 0 0 0 0 0 0 0 0 0 0 0 127 0" result="hardAlpha"/>
<feOffset dy="4"/>
<feGaussianBlur stdDeviation="2"/>
<feComposite in2="hardAlpha" operator="out"/>
<feColorMatrix type="matrix" values="0 0 0 0 0 0 0 0 0 0 0 0 0 0 0 0 0 0 0.25 0"/>
<feBlend mode="normal" in2="BackgroundImageFix" result="effect1_dropShadow_132_586"/>
<feBlend mode="normal" in="SourceGraphic" in2="effect1_dropShadow_132_586" result="shape"/>
</filter>
</defs>
</svg>
