<svg width="13" height="13" viewBox="0 0 13 13" xmlns="http://www.w3.org/2000/svg">
<path fill-rule="evenodd" clip-rule="evenodd" d="M0 6.5C0 6.27271 0.085593 6.05473 0.237949 5.89402C0.390306 5.7333 0.596945 5.64301 0.812409 5.64301H10.225L6.7365 1.96482C6.58395 1.8039 6.49825 1.58565 6.49825 1.35807C6.49825 1.1305 6.58395 0.912243 6.7365 0.751323C6.88905 0.590404 7.09595 0.5 7.31168 0.5C7.52742 0.5 7.73432 0.590404 7.88687 0.751323L12.7613 5.89325C12.837 5.97286 12.897 6.06743 12.938 6.17154C12.9789 6.27566 13 6.38728 13 6.5C13 6.61272 12.9789 6.72434 12.938 6.82845C12.897 6.93257 12.837 7.02714 12.7613 7.10675L7.88687 12.2487C7.73432 12.4096 7.52742 12.5 7.31168 12.5C7.09595 12.5 6.88905 12.4096 6.7365 12.2487C6.58395 12.0878 6.49825 11.8695 6.49825 11.6419C6.49825 11.4144 6.58395 11.1961 6.7365 11.0352L10.225 7.35699H0.812409C0.596945 7.35699 0.390306 7.2667 0.237949 7.10598C0.085593 6.94527 0 6.72729 0 6.5Z"/>
</svg>
