<svg width="35" height="35" viewBox="0 0 35 35" fill="none" xmlns="http://www.w3.org/2000/svg">
<path d="M17.5 35C20.9612 35 24.3446 33.9736 27.2225 32.0507C30.1003 30.1278 32.3434 27.3947 33.6679 24.197C34.9924 20.9993 35.339 17.4806 34.6637 14.0859C33.9885 10.6913 32.3218 7.57306 29.8744 5.12564C27.4269 2.67822 24.3087 1.0115 20.9141 0.336264C17.5194 -0.338976 14.0007 0.00758178 10.803 1.33211C7.60533 2.65664 4.87221 4.89967 2.94928 7.77752C1.02636 10.6554 1.83248e-06 14.0388 1.5299e-06 17.5C0.00544851 22.1396 1.85095 26.5876 5.13165 29.8683C8.41235 33.1491 12.8604 34.9945 17.5 35ZM17.5 2.05883C20.554 2.05883 23.5394 2.96444 26.0787 4.66114C28.6179 6.35784 30.5971 8.76942 31.7658 11.5909C32.9345 14.4124 33.2403 17.5171 32.6445 20.5124C32.0487 23.5077 30.578 26.2591 28.4186 28.4186C26.2591 30.578 23.5077 32.0487 20.5124 32.6445C17.5171 33.2403 14.4124 32.9345 11.5909 31.7658C8.76941 30.5971 6.35783 28.6179 4.66113 26.0787C2.96443 23.5394 2.05882 20.554 2.05882 17.5C2.06337 13.4061 3.69166 9.48126 6.58645 6.58646C9.48125 3.69166 13.4061 2.06337 17.5 2.05883ZM9.60784 17.5C9.60784 17.227 9.7163 16.9651 9.90935 16.7721C10.1024 16.579 10.3642 16.4706 10.6373 16.4706L21.8767 16.4706L18.1451 12.7373C18.044 12.643 17.9628 12.5294 17.9066 12.4031C17.8503 12.2768 17.8201 12.1405 17.8176 12.0023C17.8152 11.8641 17.8406 11.7268 17.8924 11.5986C17.9442 11.4704 18.0212 11.354 18.119 11.2562C18.2167 11.1585 18.3332 11.0814 18.4613 11.0296C18.5895 10.9779 18.7268 10.9524 18.865 10.9549C19.0032 10.9573 19.1396 10.9876 19.2658 11.0438C19.3921 11.1001 19.5058 11.1812 19.6 11.2824L25.0902 16.7726C25.283 16.9656 25.3912 17.2272 25.3912 17.5C25.3912 17.7728 25.283 18.0344 25.0902 18.2275L19.6 23.7176C19.4049 23.8995 19.1468 23.9985 18.8801 23.9938C18.6134 23.9891 18.3589 23.881 18.1703 23.6924C17.9817 23.5038 17.8737 23.2494 17.869 22.9827C17.8643 22.716 17.9633 22.4579 18.1451 22.2627L21.8767 18.5294L10.6373 18.5294C10.3642 18.5294 10.1024 18.421 9.90935 18.2279C9.7163 18.0349 9.60784 17.773 9.60784 17.5Z" fill="white" fill-opacity="0.6"/>
</svg>
