<svg width="122" height="134" viewBox="0 0 122 134" fill="none" xmlns="http://www.w3.org/2000/svg">
<g clip-path="url(#clip0_2_324)">
<path d="M91.6521 104.945L89.6733 107.455L90.1866 107.351L89.9721 107.974L87.8758 109.986L89.0299 109.993L87.9805 111.496L86.7626 112.514L87.8529 113.224L85.2434 115.345L87.595 116.096L84.2068 118.658L86.4409 119.689L83.4229 121.955L85.7183 121.932L86.3107 122.207L89.7142 122.861L95.5587 122.459L99.9886 121.13L97.1008 120.264L98.3826 119.689L95.4948 116.746L96.6515 116.532L94.9816 113.599L96.5851 112.995L94.4761 111.2L96.0514 110.717L93.7714 109.418L94.5961 109.072L93.1177 107.526L93.5671 106.994L91.6521 104.945Z" fill="#33884D"/>
<path d="M92.2241 124.646H90.3525L90.7432 122.222H92.0275L92.0428 123.291L92.2241 124.646Z" fill="#493B34"/>
<path opacity="0.5" d="M89.7142 122.861L95.5587 122.459L99.9886 121.13L97.1008 120.264L98.3826 119.689L95.4948 116.746L96.6515 116.532L94.9816 113.599L96.1944 113.143L94.4761 111.2L94.7467 110.717L93.7714 109.418L94.5961 109.072L93.1177 107.526L93.5671 106.994L91.7951 105.166L91.9636 106.763L91.0623 107.282L92.413 107.804L92.2828 109.474L90.8274 109.938L92.413 111.437L91.287 113.599L94.425 115.557L93.8173 116.168L91.3151 116.937L93.1101 119.35L94.9816 120.588L86.2315 122.184L86.3107 122.207L89.7142 122.861Z" fill="#334F2C"/>
<g opacity="0.2">
<path opacity="0.5" d="M87.595 116.096L84.2068 118.658L91.3151 116.937L88.2256 116.659L87.595 116.096Z" fill="#F9FD6F"/>
<path opacity="0.5" d="M87.8529 113.224L85.2434 115.345L87.595 116.096L89.0197 113.436L87.8529 113.224Z" fill="#F9FD6F"/>
<path opacity="0.5" d="M86.7626 112.514L87.189 112.792L90.3142 110.717L88.5754 110.645L87.9805 111.496L86.7626 112.514Z" fill="#F9FD6F"/>
<path opacity="0.5" d="M86.4409 119.689L83.4229 121.955L89.4001 119.862L86.4409 119.689Z" fill="#F9FD6F"/>
<path opacity="0.5" d="M90.0206 107.834L89.9721 107.975L87.8758 109.986L88.2256 109.988L90.9245 107.834H90.0206Z" fill="#F9FD6F"/>
<path opacity="0.5" d="M90.0002 107.389L91.0853 106.526L91.6521 104.945L89.6733 107.455L90.0002 107.389Z" fill="#F9FD6F"/>
</g>
<path opacity="0.5" d="M90.7381 124.646L90.9244 122.222H90.7432L90.3525 124.646H90.7381Z" fill="#A86F41"/>
<g opacity="0.2">
<path opacity="0.5" d="M88.6699 113.061L89.3695 112.522V112.988L88.6699 113.061Z" fill="#F9FD6F"/>
<path opacity="0.5" d="M92.3262 112.792L93.0258 112.252V112.718L92.3262 112.792Z" fill="#F9FD6F"/>
<path opacity="0.5" d="M90.4572 109.309V109.795L90.8198 109.55L90.4572 109.309Z" fill="#F9FD6F"/>
<path opacity="0.5" d="M88.2256 115.557H89.0197V114.935L88.2256 115.557Z" fill="#F9FD6F"/>
<path opacity="0.5" d="M92.1219 107.236H92.916V106.615L92.1219 107.236Z" fill="#F9FD6F"/>
<path opacity="0.5" d="M94.1135 114.556H94.9076V113.935L94.1135 114.556Z" fill="#F9FD6F"/>
<path opacity="0.5" d="M88.2716 119.376L87.4903 118.696L87.1098 119.195L88.2716 119.376Z" fill="#F9FD6F"/>
<path opacity="0.5" d="M88.7593 120.822L88.3329 121.501H87.6894L88.7593 120.822Z" fill="#F9FD6F"/>
<path opacity="0.5" d="M90.064 109.81L89.6453 110.169L89.2827 109.81H90.064Z" fill="#F9FD6F"/>
<path opacity="0.5" d="M90.3755 116.053L91.0725 115.875L90.2044 115.513L90.3755 116.053Z" fill="#F9FD6F"/>
</g>
<g opacity="0.5">
<path opacity="0.5" d="M97.2081 119.635H96.437L97.2081 120.106V119.635Z" fill="#334F2C"/>
<path opacity="0.5" d="M93.2888 117.377H92.5203L93.2888 117.848V117.377Z" fill="#334F2C"/>
<path opacity="0.5" d="M94.8948 121.606H94.1237L94.8948 122.077V121.606Z" fill="#334F2C"/>
<path opacity="0.5" d="M94.9816 116.096L94.0395 116.333L94.9816 116.705V116.096Z" fill="#334F2C"/>
<path opacity="0.5" d="M92.2394 113.599L93.1101 113.838L92.413 114.245L92.2394 113.599Z" fill="#334F2C"/>
<path opacity="0.5" d="M92.9032 108.069L93.7739 108.308L93.0743 108.715L92.9032 108.069Z" fill="#334F2C"/>
<path opacity="0.5" d="M93.7969 111.717H93.3399L93.7969 112.155V111.717Z" fill="#334F2C"/>
</g>
<path d="M53.8074 94.8955L50.9707 98.4956L51.7086 98.3428L51.3997 99.239L48.3945 102.124L50.0515 102.134L48.5451 104.285L46.7987 105.747L48.3613 106.765L44.6207 109.805L47.9936 110.882L43.1347 114.553L46.3365 116.03L42.0112 119.279L45.3024 119.248L46.1527 119.64L51.032 120.58L59.4068 119.999L65.7593 118.097L61.6153 116.858L63.4563 116.03L59.3148 111.814L60.9719 111.506L58.5795 107.302L60.88 106.437L57.8569 103.865L60.114 103.17L56.8458 101.306L58.028 100.812L55.9113 98.5974L56.5547 97.8336L53.8074 94.8955Z" fill="#33884D"/>
<path d="M54.627 123.139H51.9461L52.5027 119.661H54.3462L54.3666 121.193L54.627 123.139Z" fill="#493B34"/>
<path opacity="0.5" d="M51.032 120.58L59.4068 119.999L65.7593 118.098L61.6153 116.858L63.4563 116.03L59.3148 111.814L60.9719 111.506L58.5795 107.302L60.3208 106.646L57.8569 103.865L58.245 103.17L56.8458 101.307L58.028 100.813L55.9113 98.5975L56.5547 97.8337L54.0117 95.2139L54.2542 97.5027L52.9648 98.2487L54.8977 98.9973L54.7138 101.391L52.6278 102.052L54.8977 104.204L53.2865 107.302L57.7803 110.106L56.9122 110.984L53.3248 112.086L55.8985 115.544L58.5795 117.318L46.0403 119.61L46.1527 119.64L51.032 120.58Z" fill="#334F2C"/>
<g opacity="0.2">
<path opacity="0.5" d="M47.9936 110.882L43.1347 114.553L53.3248 112.086L48.8974 111.689L47.9936 110.882Z" fill="#F9FD6F"/>
<path opacity="0.5" d="M48.3613 106.765L44.6207 109.805L47.9936 110.882L50.0362 107.066L48.3613 106.765Z" fill="#F9FD6F"/>
<path opacity="0.5" d="M46.7987 105.747L47.4089 106.144L51.8899 103.17L49.3979 103.068L48.5451 104.285L46.7987 105.747Z" fill="#F9FD6F"/>
<path opacity="0.5" d="M46.3365 116.03L42.0112 119.279L50.5801 116.277L46.3365 116.03Z" fill="#F9FD6F"/>
<path opacity="0.5" d="M51.4686 99.0378L51.3997 99.239L48.3945 102.124L48.8949 102.126L52.7657 99.0378H51.4686Z" fill="#F9FD6F"/>
<path opacity="0.5" d="M51.438 98.3988L52.9955 97.164L53.8074 94.8955L50.9707 98.4956L51.438 98.3988Z" fill="#F9FD6F"/>
</g>
<path opacity="0.5" d="M52.4976 123.139L52.7657 119.661H52.5027L51.9461 123.139H52.4976Z" fill="#A86F41"/>
<g opacity="0.2">
<path opacity="0.5" d="M49.5332 106.531L50.5367 105.76V106.427L49.5332 106.531Z" fill="#F9FD6F"/>
<path opacity="0.5" d="M54.7725 106.144L55.7785 105.372V106.039L54.7725 106.144Z" fill="#F9FD6F"/>
<path opacity="0.5" d="M52.0942 101.151V101.851L52.615 101.5L52.0942 101.151Z" fill="#F9FD6F"/>
<path opacity="0.5" d="M48.8974 110.105H50.0362V109.217L48.8974 110.105Z" fill="#F9FD6F"/>
<path opacity="0.5" d="M54.4815 98.1825H55.6202V97.2914L54.4815 98.1825Z" fill="#F9FD6F"/>
<path opacity="0.5" d="M57.336 108.672H58.4723V107.781L57.336 108.672Z" fill="#F9FD6F"/>
<path opacity="0.5" d="M48.9613 115.582L47.8429 114.607L47.2965 115.322L48.9613 115.582Z" fill="#F9FD6F"/>
<path opacity="0.5" d="M49.6634 117.655L49.0506 118.627H48.1289L49.6634 117.655Z" fill="#F9FD6F"/>
<path opacity="0.5" d="M51.5324 101.869L50.9324 102.383L50.4115 101.869H51.5324Z" fill="#F9FD6F"/>
<path opacity="0.5" d="M51.9767 110.818L52.9776 110.561L51.7316 110.047L51.9767 110.818Z" fill="#F9FD6F"/>
</g>
<g opacity="0.5">
<path opacity="0.5" d="M61.7711 115.954H60.6655L61.7711 116.628V115.954Z" fill="#334F2C"/>
<path opacity="0.5" d="M56.1564 112.718H55.0509L56.1564 113.392V112.718Z" fill="#334F2C"/>
<path opacity="0.5" d="M58.4569 118.777H57.3514L58.4569 119.455V118.777Z" fill="#334F2C"/>
<path opacity="0.5" d="M58.5795 110.882L57.2288 111.221L58.5795 111.753V110.882Z" fill="#334F2C"/>
<path opacity="0.5" d="M54.6525 107.302L55.8985 107.644L54.8977 108.229L54.6525 107.302Z" fill="#334F2C"/>
<path opacity="0.5" d="M55.6024 99.3766L56.8509 99.7178L55.8475 100.301L55.6024 99.3766Z" fill="#334F2C"/>
<path opacity="0.5" d="M56.8816 104.606H56.2254L56.8816 105.232V104.606Z" fill="#334F2C"/>
</g>
<path d="M95.6863 90.5037L96.9272 90.7786L99.7409 91.6392L100.438 91.5908C100.438 91.5908 100.989 91.0052 101.046 90.2567C101.102 89.5107 100.382 89.2332 100.382 89.2332L96.0412 88.1868C96.0412 88.1868 95.4642 88.6272 95.4642 89.0702C95.4642 89.5132 95.6863 90.5011 95.6863 90.5011V90.5037Z" fill="#9299A2"/>
<path opacity="0.3" d="M101.046 90.2593C101.102 89.5133 100.382 89.2357 100.382 89.2357L96.0412 88.1893C96.0412 88.1893 95.4642 88.6298 95.4642 89.0728C96.8353 89.4904 99.2609 89.6431 101.046 90.2618V90.2593Z" fill="white"/>
<path d="M96.1561 89.4445C96.0719 89.997 95.7731 90.4095 95.4846 90.3662C95.1986 90.3229 95.0327 89.8392 95.1144 89.2867C95.1986 88.7342 95.4999 88.3192 95.7859 88.365C96.0719 88.4083 96.2353 88.8921 96.1536 89.4445H96.1561Z" fill="url(#paint0_linear_2_324)"/>
<path opacity="0.2" d="M95.6863 90.5036L96.9272 90.7786L99.7409 91.6391L100.438 91.5908C100.438 91.5908 100.042 90.4349 95.4667 89.0702C95.4667 89.5107 95.6889 90.5011 95.6889 90.5011L95.6863 90.5036Z" fill="black"/>
<path d="M95.5076 88.9353L92.5713 83.884L83.7727 77.7455L83.3974 78.1376L95.1297 89.3248L95.5076 88.9353Z" fill="#C9CCD4"/>
<path opacity="0.5" d="M83.7722 77.7388L83.3963 78.1307L95.1289 89.3186L95.5048 88.9266L83.7722 77.7388Z" fill="white"/>
<path d="M85.6468 79.0517L85.0315 79.6958L84.4774 79.1662L85.0136 78.6112L85.6468 79.0517Z" fill="#ED403B"/>
<path d="M84.4085 78.1885L83.9514 78.6646L83.3974 78.1376L83.7727 77.7455L84.4085 78.1885Z" fill="#ED403B"/>
<path d="M95.431 89.2383L101.286 89.2307L111.014 84.7038L110.86 84.1819L95.2778 88.7164L95.431 89.2383Z" fill="#C9CCD4"/>
<path opacity="0.5" d="M110.859 84.1909L95.2757 88.7261L95.428 89.2467L111.012 84.7115L110.859 84.1909Z" fill="white"/>
<path d="M108.94 85.6687L108.69 84.8132L109.426 84.5994L109.643 85.3428L108.94 85.6687Z" fill="#ED403B"/>
<path d="M110.312 85.0297L110.125 84.3958L110.86 84.1819L111.014 84.7038L110.312 85.0297Z" fill="#ED403B"/>
<path d="M95.2038 89.0219L92.2828 94.0834L91.3509 104.746L91.8794 104.876L95.7323 89.1517L95.2038 89.0219Z" fill="#C9CCD4"/>
<path opacity="0.5" d="M95.2102 89.0313L91.3545 104.756L91.8827 104.885L95.7385 89.1601L95.2102 89.0313Z" fill="white"/>
<path d="M91.55 102.475L92.4156 102.684L92.2343 103.427L91.4836 103.244L91.55 102.475Z" fill="#ED403B"/>
<path d="M91.4172 103.977L92.0607 104.133L91.8794 104.876L91.3509 104.746L91.4172 103.977Z" fill="#ED403B"/>
<path d="M95.7399 89.3401C95.8012 88.7723 95.6633 88.1613 95.2497 88.2733C94.8361 88.3828 94.088 88.9353 94.116 89.1262C94.1441 89.3197 94.6931 89.8366 95.1195 90.0122C95.5459 90.1879 95.6914 89.7933 95.7399 89.3426V89.3401Z" fill="#9299A2"/>
<path opacity="0.5" d="M95.2523 88.365C95.3544 88.3472 95.4667 88.4592 95.4642 88.5738C95.4616 88.6884 94.2488 89.0219 94.2488 89.0219C94.2488 89.0219 94.6063 88.7215 94.7314 88.6349C94.8846 88.528 95.1501 88.3803 95.2523 88.365Z" fill="white"/>
<path d="M99.8635 124.646L98.8958 91.606H98.8907C98.9137 91.3285 98.7937 91.0103 98.4311 90.8117C97.8745 90.5138 97.5477 90.5571 97.1749 90.6284C96.534 90.7506 96.2583 91.2445 96.2251 91.606H96.22L95.2523 124.646H99.8635Z" fill="#C9CCD4"/>
<path d="M97.5553 91.7359C98.9418 91.7359 98.929 92.2324 98.929 92.8434L98.8932 91.3209C98.8932 90.7277 98.9239 90.249 97.563 90.249C96.2021 90.249 96.2276 90.7277 96.2276 91.3209L96.1842 92.8434C96.1842 92.2324 96.1714 91.7359 97.5553 91.7359Z" fill="#AEB3BC"/>
<g opacity="0.5">
<path opacity="0.2" d="M99.1511 124.646H97.757L97.7979 91.6392C97.7979 91.0536 97.7902 90.5775 98.2013 90.5775C98.6124 90.5775 98.6047 91.0536 98.6047 91.6392L99.1511 124.646Z" fill="black"/>
</g>
<path opacity="0.5" d="M95.8829 124.646H96.6004L96.8353 91.8173C96.8353 91.2343 96.8378 90.7607 96.6285 90.7607C96.4191 90.7607 96.4217 91.2343 96.4217 91.8173L95.8855 124.646H95.8829Z" fill="white"/>
<path d="M101.107 123.065H93.9475V124.646H101.107V123.065Z" fill="#5C666E"/>
<path opacity="0.3" d="M95.9748 123.065H94.8795V124.646H95.9748V123.065Z" fill="white"/>
<path opacity="0.3" d="M100.162 123.065H98.4796V124.646H100.162V123.065Z" fill="black"/>
<path d="M38.8631 37.778L42.0189 38.4782L49.1758 40.6703L50.9528 40.5481C50.9528 40.5481 52.3597 39.0587 52.4976 37.1593C52.638 35.2574 50.8124 34.5547 50.8124 34.5547L39.7644 31.8916C39.7644 31.8916 38.2988 33.0119 38.2988 34.1321C38.2988 35.2524 38.8605 37.778 38.8605 37.778H38.8631Z" fill="#9299A2"/>
<path opacity="0.3" d="M52.4976 37.1593C52.638 35.2574 50.8124 34.5547 50.8124 34.5547L39.7644 31.8916C39.7644 31.8916 38.2988 33.0119 38.2988 34.1321C41.7891 35.1989 47.9629 35.5859 52.495 37.1568L52.4976 37.1593Z" fill="white"/>
<path d="M40.058 35.0869C39.8461 36.4923 39.0801 37.5438 38.3524 37.4343C37.6247 37.3248 37.2034 36.0951 37.4153 34.6871C37.6298 33.2817 38.3932 32.2277 39.1209 32.3397C39.8512 32.4492 40.2699 33.6789 40.058 35.0869Z" fill="url(#paint1_linear_2_324)"/>
<path opacity="0.2" d="M38.8631 37.778L42.0189 38.4782L49.1758 40.6703L50.9528 40.5481C50.9528 40.5481 49.9468 37.6074 38.3013 34.1346C38.3013 35.2574 38.8631 37.7806 38.8631 37.7806V37.778Z" fill="black"/>
<path d="M37.6477 34.0811L33.0569 19.9532L14.4639 0L13.3175 0.776539L36.5038 34.8577L37.6477 34.0811Z" fill="#C9CCD4"/>
<path opacity="0.5" d="M14.4635 0.000253544L13.3182 0.774902L36.5021 34.8559L37.6473 34.0813L14.4635 0.000253544Z" fill="white"/>
<path d="M18.4266 4.25184L16.5474 5.51976L15.452 3.91322L17.0836 2.81079L18.4266 4.25184Z" fill="#ED403B"/>
<path d="M15.8044 1.44105L14.4103 2.38308L13.3175 0.776538L14.4639 0L15.8044 1.44105Z" fill="#ED403B"/>
<path d="M37.303 34.7991L51.8695 37.8976L78.4925 31.8177L78.393 30.4403L37.2009 33.4217L37.303 34.7991Z" fill="#C9CCD4"/>
<path opacity="0.5" d="M78.3942 30.4414L37.2006 33.4219L37.3007 34.7982L78.4943 31.8178L78.3942 30.4414Z" fill="white"/>
<path d="M72.8191 33.1137L72.6583 30.8554L74.5988 30.7153L74.7392 32.6732L72.8191 33.1137Z" fill="#ED403B"/>
<path d="M76.5699 32.2582L76.4499 30.5803L78.3929 30.4403L78.4925 31.8177L76.5699 32.2582Z" fill="#ED403B"/>
<path d="M36.8536 34.1396L26.8754 45.1716L18.8428 71.2022L20.0888 71.8056L38.0971 34.7405L36.8536 34.1396Z" fill="#C9CCD4"/>
<path opacity="0.5" d="M36.8544 34.1374L18.8461 71.2009L20.0915 71.8026L38.0998 34.739L36.8544 34.1374Z" fill="white"/>
<path d="M20.5535 65.6544L22.5961 66.6397L21.7484 68.3914L19.9764 67.5334L20.5535 65.6544Z" fill="#ED403B"/>
<path d="M19.4224 69.3232L20.9416 70.0565L20.0888 71.8056L18.8428 71.2022L19.4224 69.3232Z" fill="#ED403B"/>
<path d="M39.0035 34.8169C39.1592 33.3708 38.8069 31.8203 37.7524 32.1003C36.6979 32.3829 34.7982 33.7832 34.8672 34.2746C34.9387 34.7635 36.3353 36.0772 37.4179 36.5279C38.503 36.9734 38.8758 35.9677 39.0035 34.8195V34.8169Z" fill="#9299A2"/>
<path opacity="0.5" d="M37.7626 32.3321C38.023 32.2888 38.3064 32.579 38.2988 32.8693C38.2911 33.1595 35.2067 34.0124 35.2067 34.0124C35.2067 34.0124 36.1157 33.2461 36.4323 33.0271C36.8255 32.7547 37.5021 32.3779 37.76 32.3321H37.7626Z" fill="white"/>
<path d="M49.4873 124.646L47.0259 40.5837H47.0157C47.077 39.881 46.7731 39.0663 45.8463 38.5647C44.4292 37.806 43.5968 37.9155 42.6419 38.0988C41.0129 38.4145 40.3108 39.6646 40.2316 40.5837H40.2188L37.76 124.646H49.4847H49.4873Z" fill="#C9CCD4"/>
<path d="M43.6198 40.9122C47.1459 40.9122 47.1127 42.1725 47.1127 43.7281L47.0182 39.853C47.0182 38.3483 47.0999 37.1288 43.6377 37.1288C40.1754 37.1288 40.2367 38.3483 40.2367 39.853L40.1295 43.7281C40.1295 42.1725 40.0963 40.9122 43.6224 40.9122H43.6198Z" fill="#AEB3BC"/>
<g opacity="0.5">
<path opacity="0.2" d="M47.677 124.646H44.133L44.2352 40.6651C44.2352 39.1731 44.2173 37.9663 45.2616 37.9663C46.3059 37.9663 46.2829 39.1757 46.2829 40.6651L47.6744 124.646H47.677Z" fill="black"/>
</g>
<path opacity="0.5" d="M39.3609 124.646H41.184L41.7789 41.1209C41.7789 39.6365 41.7891 38.4348 41.2478 38.4348C40.7065 38.4348 40.7218 39.6365 40.7218 41.1209L39.3584 124.646H39.3609Z" fill="white"/>
<path d="M52.6559 120.618H34.4433V124.646H52.6559V120.618Z" fill="#5C666E"/>
<path opacity="0.3" d="M39.5958 120.618H36.8102V124.646H39.5958V120.618Z" fill="white"/>
<path opacity="0.3" d="M50.2481 120.618H45.9714V124.646H50.2481V120.618Z" fill="black"/>
<path d="M73.8839 67.62L75.9546 68.0808L80.6526 69.5193L81.8195 69.4379C81.8195 69.4379 82.7437 68.4602 82.8357 67.2126C82.9276 65.9625 81.7275 65.5043 81.7275 65.5043L74.4762 63.7577C74.4762 63.7577 73.5162 64.4935 73.5162 65.2293C73.5162 65.9651 73.8839 67.6226 73.8839 67.6226V67.62Z" fill="#9299A2"/>
<path opacity="0.3" d="M82.8357 67.2126C82.9276 65.9625 81.7275 65.5043 81.7275 65.5043L74.4762 63.7577C74.4762 63.7577 73.5162 64.4935 73.5162 65.2293C75.8065 65.9295 79.8585 66.1841 82.8357 67.2152V67.2126Z" fill="white"/>
<path d="M74.6677 65.853C74.5273 66.7773 74.0268 67.4672 73.5494 67.3934C73.0719 67.3221 72.7962 66.5176 72.934 65.5908C73.0745 64.6666 73.5775 63.9766 74.0549 64.0505C74.5349 64.1217 74.8081 64.9288 74.6677 65.853Z" fill="url(#paint2_linear_2_324)"/>
<path opacity="0.2" d="M73.8839 67.6199L75.9546 68.0808L80.6526 69.5193L81.8195 69.4378C81.8195 69.4378 81.1607 67.5079 73.5162 65.2267C73.5162 65.9625 73.8839 67.6199 73.8839 67.6199Z" fill="black"/>
<path d="M80.8594 124.646L79.2432 69.4607H79.2355C79.2738 68.9999 79.0747 68.4627 78.467 68.1368C77.5376 67.6378 76.9912 67.7116 76.3631 67.8313C75.2933 68.0375 74.8311 68.8599 74.7826 69.4607H74.7749L73.1587 124.646H80.8569H80.8594Z" fill="#C9CCD4"/>
<path d="M77.0091 69.6772C79.3223 69.6772 79.2994 70.5047 79.2994 71.5256L79.2406 68.9847C79.2406 67.9968 79.2943 67.1948 77.0193 67.1948C74.7443 67.1948 74.7877 67.9968 74.7877 68.9847L74.7162 71.5256C74.7162 70.5047 74.6932 69.6772 77.0091 69.6772Z" fill="#AEB3BC"/>
<g opacity="0.5">
<path opacity="0.2" d="M79.6721 124.646H77.3461L77.4125 69.5142C77.4125 68.5365 77.3997 67.7422 78.0891 67.7422C78.7785 67.7422 78.7581 68.5365 78.7581 69.5142L79.6721 124.646Z" fill="black"/>
</g>
<path opacity="0.5" d="M74.2107 124.646H75.4082L75.7988 69.8147C75.7988 68.8396 75.8065 68.0503 75.4516 68.0503C75.0967 68.0503 75.1043 68.8396 75.1043 69.8147L74.2107 124.646Z" fill="white"/>
<path d="M82.9378 122.006H70.9833V124.648H82.9378V122.006Z" fill="#5C666E"/>
<path opacity="0.3" d="M74.3664 122.006H72.5357V124.648H74.3664V122.006Z" fill="white"/>
<path opacity="0.3" d="M81.3573 122.006H78.5487V124.648H81.3573V122.006Z" fill="black"/>
<path d="M73.0055 65.7079L81.6765 70.2195L99.5877 71.0342L99.7665 70.1456L73.1868 64.8219L73.0055 65.7079Z" fill="#C9CCD4"/>
<path opacity="0.5" d="M73.1847 64.8188L73.0057 65.7074L99.5878 71.0328L99.7668 70.1442L73.1847 64.8188Z" fill="white"/>
<path d="M95.7706 70.8584L96.0668 69.4047L97.3204 69.6567L97.0651 70.9195L95.7706 70.8584Z" fill="#ED403B"/>
<path d="M98.2958 70.9756L98.5128 69.8936L99.7665 70.1456L99.5877 71.0342L98.2958 70.9756Z" fill="#ED403B"/>
<path d="M72.8396 65.2114L64.5848 70.4435L54.9232 85.5033L55.6049 86.1016L73.5213 65.8123L72.8396 65.2114Z" fill="#C9CCD4"/>
<path opacity="0.5" d="M72.8391 65.2051L54.923 85.4978L55.6052 86.0967L73.5214 65.804L72.8391 65.2051Z" fill="white"/>
<path d="M56.9811 82.2953L58.0995 83.2781L57.2543 84.2328L56.2841 83.3799L56.9811 82.2953Z" fill="#ED403B"/>
<path d="M55.6202 84.4161L56.4501 85.1468L55.6049 86.1016L54.9232 85.5033L55.6202 84.4161Z" fill="#ED403B"/>
<path d="M73.3528 65.3158L72.9366 55.5721L64.6895 39.6976L63.829 39.9853L72.4923 65.6035L73.3528 65.3158Z" fill="#C9CCD4"/>
<path opacity="0.5" d="M64.6903 39.6964L63.829 39.986L72.4905 65.6056L73.3518 65.316L64.6903 39.6964Z" fill="white"/>
<path d="M66.4461 43.0788L65.0342 43.5549L64.6257 42.3456L65.8512 41.9357L66.4461 43.0788Z" fill="#ED403B"/>
<path d="M65.2844 40.8433L64.2376 41.1947L63.829 39.9853L64.6895 39.6976L65.2844 40.8433Z" fill="#ED403B"/>
<path d="M73.9758 65.6773C74.0779 64.7276 73.8481 63.7092 73.1562 63.8925C72.4642 64.0759 71.2157 64.9975 71.2616 65.3183C71.3076 65.6417 72.2242 66.5022 72.9366 66.7976C73.649 67.0904 73.8915 66.4309 73.9758 65.6773Z" fill="#9299A2"/>
<path opacity="0.5" d="M73.1613 64.0454C73.3323 64.0148 73.5187 64.2058 73.5162 64.3942C73.5085 64.5851 71.4863 65.1452 71.4863 65.1452C71.4863 65.1452 72.0812 64.6437 72.2906 64.4985C72.5485 64.3203 72.9928 64.0734 73.1613 64.0454Z" fill="white"/>
<path d="M114.818 117.55C114.177 116.957 113.261 116.842 112.495 117.181C112.053 115.585 110.715 114.383 109.083 114.156C109.589 113.436 109.88 112.547 109.854 111.592C109.791 109.27 107.894 107.44 105.619 107.506C103.471 107.565 101.758 109.291 101.628 111.437C101.161 111.266 100.658 111.175 100.132 111.19C97.8592 111.254 96.0668 113.189 96.1331 115.508C96.1459 115.984 96.2404 116.437 96.3936 116.86C96.0361 117.504 95.837 118.253 95.8574 119.047C95.9238 121.369 97.8209 123.2 100.093 123.136C100.808 123.116 101.472 122.907 102.049 122.563C102.085 122.599 102.113 122.64 102.149 122.673C103.196 123.64 104.84 123.566 105.82 122.51C106.012 122.304 106.16 122.074 106.272 121.833C106.954 122.291 107.771 122.548 108.647 122.522C109.163 122.51 109.653 122.393 110.102 122.204C110.171 122.492 110.314 122.764 110.546 122.978C111.177 123.561 112.175 123.515 112.773 122.871C113.181 122.431 113.299 121.827 113.133 121.303C113.766 121.341 114.415 121.107 114.887 120.6C115.712 119.717 115.676 118.352 114.813 117.55H114.818Z" fill="#8BC444"/>
<path d="M104.832 124.226C104.807 124.536 104.799 124.783 104.796 125.018H107.408C109.5 123.434 111.777 120.913 111.777 120.913C111.243 121.499 108.989 122.92 108.537 123.37C108.33 123.251 108.772 121.962 108.803 120.995C108.803 120.995 107.779 122.79 108.098 123.706C107.636 124.04 106.798 124.542 106.249 124.799C106.132 123.317 106.037 122.293 105.963 121.588C105.945 121.41 107.702 118.281 107.61 118.393C106.888 119.302 106.556 119.465 105.945 120.542C105.751 120.885 105.287 117.792 105.287 117.792C105.039 117.991 105.322 120.104 105.225 120.575C105.167 120.873 105.136 121.234 105.11 121.616C105.082 122.046 105.019 123.075 104.965 123.508C104.505 123.401 103.614 122.37 102.504 120.358C102.504 120.358 103.359 123.801 104.835 124.226H104.832Z" fill="#504943"/>
<path d="M104.498 125.018H105.672C104.339 124.394 100.052 123.304 98.4898 122.016C98.4898 122.016 99.1052 123.571 104.495 125.018H104.498Z" fill="#504943"/>
<path opacity="0.5" d="M106.997 110.065C106.997 110.485 106.655 110.829 106.231 110.829C105.808 110.829 105.465 110.485 105.465 110.065C105.465 109.645 105.808 109.298 106.231 109.298C106.655 109.298 106.997 109.642 106.997 110.065Z" fill="#F9FD6F"/>
<path opacity="0.5" d="M105.197 109.703C105.197 109.902 105.036 110.062 104.837 110.062C104.638 110.062 104.477 109.902 104.477 109.703C104.477 109.505 104.638 109.344 104.837 109.344C105.036 109.344 105.197 109.505 105.197 109.703Z" fill="#F9FD6F"/>
<path opacity="0.5" d="M113.618 117.787C113.618 117.985 113.457 118.146 113.258 118.146C113.059 118.146 112.898 117.985 112.898 117.787C112.898 117.588 113.059 117.428 113.258 117.428C113.457 117.428 113.618 117.588 113.618 117.787Z" fill="#F9FD6F"/>
<g opacity="0.5">
<path d="M100.096 123.134C100.811 123.113 101.475 122.904 102.052 122.561C102.087 122.596 102.115 122.637 102.151 122.67C103.198 123.638 104.842 123.564 105.823 122.507C106.014 122.301 106.162 122.072 106.275 121.83C106.957 122.288 107.774 122.545 108.649 122.52C109.165 122.507 109.655 122.39 110.105 122.202C110.174 122.489 110.317 122.762 110.549 122.976C111.18 123.559 112.178 123.513 112.775 122.869C113.184 122.428 113.301 121.825 113.135 121.3C113.769 121.339 114.417 121.104 114.89 120.598C115.597 119.839 115.671 118.729 115.13 117.919C114.861 118.569 114.471 119.365 114.065 119.701C113.329 120.31 112.518 118.945 111.772 118.212C111.024 117.476 110.679 118.286 109.648 118.805C108.616 119.327 107.602 118.39 106.04 117.896C104.477 117.402 101.771 119.605 100.885 119.903C100.001 120.198 98.6788 121 97.0574 120.267C96.5417 120.032 96.1612 119.707 95.8804 119.373C96.1076 121.535 97.9281 123.19 100.091 123.131L100.096 123.134Z" fill="#34651C"/>
<path d="M109.234 117.634C109.234 118.12 108.838 118.515 108.351 118.515C107.863 118.515 107.467 118.123 107.467 117.634C107.467 117.145 107.863 116.756 108.351 116.756C108.838 116.756 109.234 117.15 109.234 117.634Z" fill="#34651C"/>
<path d="M99.2328 116.631C99.2328 117.041 98.9009 117.372 98.4898 117.372C98.0787 117.372 97.7494 117.041 97.7494 116.631C97.7494 116.221 98.0813 115.89 98.4898 115.89C98.8984 115.89 99.2328 116.221 99.2328 116.631Z" fill="#34651C"/>
<path d="M110.306 117.372C110.306 117.593 110.125 117.774 109.903 117.774C109.681 117.774 109.5 117.596 109.5 117.372C109.5 117.148 109.681 116.967 109.903 116.967C110.125 116.967 110.306 117.148 110.306 117.372Z" fill="#34651C"/>
<path d="M97.4123 116.565C97.4123 116.786 97.2311 116.967 97.0089 116.967C96.7868 116.967 96.603 116.786 96.603 116.565C96.603 116.343 96.7842 116.162 97.0089 116.162C97.2336 116.162 97.4123 116.343 97.4123 116.565Z" fill="#34651C"/>
<path d="M99.6567 115.434C99.6567 115.661 99.4728 115.847 99.243 115.847C99.0133 115.847 98.8294 115.663 98.8294 115.434C98.8294 115.205 99.0158 115.022 99.243 115.022C99.4703 115.022 99.6567 115.205 99.6567 115.434Z" fill="#34651C"/>
</g>
<path opacity="0.5" d="M105.619 107.504C103.474 107.562 101.761 109.288 101.628 111.432C101.161 111.261 100.658 111.172 100.132 111.185C98.5511 111.228 97.2055 112.178 96.5545 113.533C98.3315 112.211 101.107 112.588 102.455 112.881C102.565 112.904 102.677 112.855 102.733 112.761C102.79 112.667 102.779 112.545 102.708 112.461L102.292 111.977C102.161 111.827 102.144 111.61 102.246 111.44C102.841 110.442 105.082 107.356 109.094 109.273C108.325 108.168 107.046 107.463 105.619 107.501V107.504Z" fill="#F9FD6F"/>
<path opacity="0.5" d="M109.091 114.146C106.819 114.388 105.197 115.646 105.197 115.646C105.197 115.646 107.812 114.895 110.166 115.142C110.498 115.175 111.039 115.305 111.573 115.498C110.935 114.783 110.064 114.294 109.083 114.156C109.086 114.151 109.088 114.149 109.091 114.146Z" fill="#F9FD6F"/>
<path d="M104.602 119.905C104.602 120.328 104.26 120.669 103.836 120.669C103.413 120.669 103.07 120.328 103.07 119.905C103.07 119.483 103.415 119.141 103.836 119.141C104.258 119.141 104.602 119.483 104.602 119.905Z" fill="#8BC444"/>
<path d="M104.837 118.617C104.837 118.816 104.676 118.976 104.477 118.976C104.278 118.976 104.117 118.816 104.117 118.617C104.117 118.418 104.278 118.258 104.477 118.258C104.676 118.258 104.837 118.418 104.837 118.617Z" fill="#8BC444"/>
<path d="M14.5252 116.771C15.2682 116.084 16.3303 115.951 17.2163 116.343C17.727 114.492 19.2794 113.1 21.1663 112.84C20.579 112.005 20.242 110.976 20.2726 109.869C20.3467 107.178 22.545 105.059 25.1775 105.133C27.6644 105.202 29.6483 107.2 29.8015 109.688C30.3428 109.489 30.9249 109.385 31.5351 109.403C34.1676 109.477 36.2434 111.717 36.1693 114.406C36.154 114.958 36.0442 115.483 35.8655 115.972C36.2791 116.718 36.5115 117.583 36.486 118.505C36.4094 121.193 34.2135 123.314 31.5785 123.243C30.7487 123.22 29.9802 122.978 29.3138 122.581C29.2729 122.624 29.2397 122.668 29.1963 122.708C27.9835 123.829 26.0788 123.745 24.9426 122.52C24.7204 122.283 24.5494 122.016 24.4191 121.736C23.6302 122.265 22.6829 122.566 21.6693 122.535C21.0718 122.52 20.505 122.385 19.9815 122.166C19.9024 122.5 19.7364 122.815 19.4683 123.065C18.7381 123.739 17.5815 123.686 16.887 122.94C16.4146 122.431 16.2767 121.731 16.4682 121.125C15.7354 121.171 14.9822 120.898 14.4358 120.31C13.4834 119.286 13.5217 117.705 14.5226 116.776L14.5252 116.771Z" fill="#8BC444"/>
<path d="M26.0915 124.506C26.1196 124.867 26.1324 125.153 26.1324 125.422H23.1068C20.6837 123.587 18.0462 120.669 18.0462 120.669C18.664 121.346 21.2786 122.994 21.7995 123.515C22.0395 123.378 21.5288 121.883 21.4931 120.763C21.4931 120.763 22.6778 122.843 22.3101 123.902C22.8463 124.289 23.814 124.87 24.4523 125.168C24.5902 123.452 24.6974 122.265 24.7843 121.448C24.8047 121.242 22.7697 117.616 22.8744 117.746C23.7119 118.8 24.0974 118.989 24.8021 120.234C25.0268 120.631 25.5656 117.049 25.5656 117.049C25.8541 117.278 25.5273 119.727 25.6345 120.272C25.7009 120.618 25.7366 121.036 25.7673 121.479C25.7979 121.978 25.8745 123.167 25.9358 123.668C26.4694 123.544 27.501 122.349 28.7904 120.02C28.7904 120.02 27.7971 124.007 26.089 124.501L26.0915 124.506Z" fill="#504943"/>
<path d="M26.4796 125.422H25.1187C26.6609 124.699 31.6296 123.437 33.4399 121.945C33.4399 121.945 32.7275 123.747 26.4822 125.422H26.4796Z" fill="#504943"/>
<path opacity="0.5" d="M23.5842 108.099C23.5842 108.588 23.98 108.985 24.4728 108.985C24.9655 108.985 25.3613 108.588 25.3613 108.099C25.3613 107.61 24.9655 107.213 24.4728 107.213C23.98 107.213 23.5842 107.61 23.5842 108.099Z" fill="#F9FD6F"/>
<path opacity="0.5" d="M25.6702 107.682C25.6702 107.913 25.8566 108.099 26.0864 108.099C26.3162 108.099 26.5052 107.913 26.5052 107.682C26.5052 107.45 26.3162 107.267 26.0864 107.267C25.8566 107.267 25.6702 107.453 25.6702 107.682Z" fill="#F9FD6F"/>
<path opacity="0.5" d="M15.9116 117.046C15.9116 117.275 16.1005 117.464 16.3303 117.464C16.5601 117.464 16.7491 117.278 16.7491 117.046C16.7491 116.814 16.5627 116.631 16.3303 116.631C16.098 116.631 15.9116 116.817 15.9116 117.046Z" fill="#F9FD6F"/>
<g opacity="0.5">
<path d="M31.5811 123.24C30.7513 123.218 29.9827 122.976 29.3163 122.579C29.2755 122.622 29.2423 122.665 29.1989 122.706C27.9861 123.826 26.0813 123.742 24.9451 122.517C24.723 122.281 24.5519 122.013 24.4217 121.733C23.6327 122.263 22.6855 122.563 21.6718 122.533C21.0743 122.517 20.5075 122.382 19.9841 122.164C19.9049 122.497 19.739 122.813 19.4709 123.062C18.7406 123.737 17.584 123.683 16.8895 122.937C16.4172 122.428 16.2793 121.728 16.4708 121.122C15.738 121.168 14.9848 120.896 14.4384 120.307C13.6213 119.429 13.5345 118.141 14.1601 117.206C14.4716 117.957 14.9209 118.882 15.3933 119.271C16.2461 119.976 17.1831 118.395 18.0487 117.545C18.9168 116.695 19.3151 117.629 20.5101 118.232C21.7024 118.836 22.877 117.754 24.6872 117.181C26.4975 116.608 29.6355 119.162 30.6594 119.505C31.6832 119.849 33.2177 120.778 35.0944 119.928C35.6919 119.658 36.1336 119.281 36.4579 118.892C36.1949 121.395 34.0884 123.314 31.5811 123.246V123.24Z" fill="#34651C"/>
<path d="M20.9926 116.868C20.9926 117.43 21.4522 117.886 22.0165 117.886C22.5808 117.886 23.0404 117.43 23.0404 116.868C23.0404 116.305 22.5833 115.849 22.0165 115.849C21.4497 115.849 20.9926 116.305 20.9926 116.868Z" fill="#34651C"/>
<path d="M32.5769 115.707C32.5769 116.18 32.9624 116.565 33.4348 116.565C33.9071 116.565 34.2952 116.183 34.2952 115.707C34.2952 115.231 33.9122 114.849 33.4348 114.849C32.9573 114.849 32.5769 115.233 32.5769 115.707Z" fill="#34651C"/>
<path d="M19.7492 116.565C19.7492 116.822 19.9586 117.031 20.2164 117.031C20.4743 117.031 20.6862 116.822 20.6862 116.565C20.6862 116.308 20.4769 116.096 20.2164 116.096C19.956 116.096 19.7492 116.305 19.7492 116.565Z" fill="#34651C"/>
<path d="M34.6884 115.63C34.6884 115.888 34.8978 116.096 35.1582 116.096C35.4187 116.096 35.628 115.888 35.628 115.63C35.628 115.373 35.4187 115.162 35.1582 115.162C34.8978 115.162 34.6884 115.371 34.6884 115.63Z" fill="#34651C"/>
<path d="M32.0892 114.319C32.0892 114.584 32.3037 114.798 32.5667 114.798C32.8296 114.798 33.0467 114.584 33.0467 114.319C33.0467 114.054 32.8322 113.841 32.5667 113.841C32.3011 113.841 32.0892 114.054 32.0892 114.319Z" fill="#34651C"/>
</g>
<path opacity="0.5" d="M25.18 105.131C27.6669 105.199 29.6508 107.198 29.804 109.685C30.3453 109.487 30.9275 109.382 31.5377 109.4C33.3684 109.451 34.9259 110.551 35.6817 112.117C33.6212 110.587 30.4066 111.025 28.844 111.363C28.7189 111.391 28.5886 111.335 28.5223 111.223C28.4559 111.114 28.4686 110.971 28.5529 110.874L29.038 110.314C29.1887 110.141 29.2091 109.889 29.0916 109.693C28.4023 108.537 25.8056 104.963 21.156 107.185C22.0471 105.905 23.528 105.087 25.1826 105.133L25.18 105.131Z" fill="#F9FD6F"/>
<path opacity="0.5" d="M21.1586 112.827C23.791 113.11 25.6702 114.566 25.6702 114.566C25.6702 114.566 22.6421 113.698 19.9126 113.981C19.5271 114.021 18.9015 114.169 18.2836 114.393C19.0215 113.566 20.0326 112.995 21.1688 112.84C21.1663 112.835 21.1637 112.832 21.1612 112.827H21.1586Z" fill="#F9FD6F"/>
<path d="M26.3596 119.5C26.3596 119.989 26.7579 120.386 27.2482 120.386C27.7384 120.386 28.1367 119.989 28.1367 119.5C28.1367 119.012 27.7384 118.614 27.2482 118.614C26.7579 118.614 26.3596 119.012 26.3596 119.5Z" fill="#8BC444"/>
<path d="M26.0864 118.008C26.0864 118.238 26.2728 118.426 26.5052 118.426C26.7375 118.426 26.9214 118.238 26.9214 118.008C26.9214 117.779 26.735 117.593 26.5052 117.593C26.2754 117.593 26.0864 117.779 26.0864 118.008Z" fill="#8BC444"/>
<path d="M85.0315 109.563C86.4332 108.527 87.3448 106.867 87.3448 104.988C87.3448 102.938 86.2622 101.149 84.6434 100.148C84.5821 96.2628 81.5463 93.0828 77.7036 92.9758C76.792 92.9504 75.9163 93.1057 75.1043 93.4036C74.8745 89.6762 71.9 86.6795 68.1722 86.5751C64.2222 86.4657 60.9311 89.6431 60.8162 93.6786C60.7702 95.3309 61.2732 96.8636 62.1439 98.1137C62.1413 98.1214 62.1362 98.129 62.1311 98.1392C58.7301 98.6204 56.062 101.543 55.9598 105.166C55.9445 105.716 55.9956 106.251 56.0926 106.77C55.3777 107.88 55.4824 109.388 56.4449 110.419C56.9582 110.971 57.6246 111.284 58.3114 111.366C58.651 114.179 61.0332 116.361 63.9286 116.361C66.51 116.361 68.6828 114.63 69.3671 112.262C70.5825 112.662 71.9689 112.542 73.1562 111.824C74.3741 112.965 75.9827 113.683 77.7674 113.731C78.993 113.764 80.1547 113.482 81.1786 112.955C81.6484 113.522 82.3556 113.884 83.1523 113.884C84.5719 113.884 85.7234 112.736 85.7234 111.315C85.7234 110.638 85.4604 110.024 85.0315 109.568V109.563Z" fill="#8BC444"/>
<path d="M72.0685 116.781C72.0915 116.058 72.094 115.493 72.0327 114.586C74.0651 113.891 75.2422 108.283 75.2422 108.283C73.7128 111.559 72.4847 113.24 71.8515 113.415C71.78 112.71 71.6906 111.035 71.6523 110.335C71.6191 109.711 71.5782 109.125 71.4965 108.639C71.3663 107.873 71.757 104.428 71.4123 104.104C71.4123 104.104 70.774 109.143 70.5059 108.583C69.6684 106.834 69.2114 106.567 68.2156 105.082C68.0905 104.896 70.5084 109.999 70.4829 110.286C70.3808 111.437 70.2531 113.105 70.0897 115.521C69.3365 115.101 68.1824 114.284 67.5441 113.739C67.9832 112.249 66.5738 109.321 66.5738 109.321C66.6147 110.9 67.2224 112.998 66.9364 113.194C66.3159 112.461 63.2086 110.144 62.4758 109.191C62.4758 109.191 66.8215 114.879 69.9748 117.074C69.8293 118.92 69.7705 121.96 69.6939 122.55C69.5331 123.783 69.288 125.206 69.0377 126.283H72.7196C72.6583 125.748 72.523 125.239 72.5128 124.669C72.4872 123.533 72.4566 119.533 72.3238 118.737C76.9095 116.463 80.7624 110.984 80.7624 110.984C77.4661 114.199 73.4421 116.674 72.071 116.781H72.0685Z" fill="#493B34"/>
<path opacity="0.5" d="M67.0794 88.7342C70.3757 87.9882 71.6983 88.64 73.8302 89.6889C72.5766 87.8609 70.5237 86.6413 68.1722 86.5751C64.2222 86.4657 60.9311 89.6431 60.8162 93.6786C60.7702 95.3309 61.2732 96.8636 62.1439 98.1137C62.1413 98.1214 62.1362 98.129 62.1311 98.1392C58.7301 98.6204 56.062 101.543 55.9598 105.166C55.9496 105.525 55.97 105.879 56.0109 106.223C56.6313 104.851 59.5268 99.7534 63.6809 100.695C66.2138 101.273 66.7449 101.182 68.1185 100.268C68.6215 99.9341 68.139 99.7432 66.0427 99.0914C61.4953 97.6784 60.8494 90.1472 67.0819 88.7342H67.0794Z" fill="#F9FD6F"/>
<path opacity="0.5" d="M72.0812 94.7606C71.3255 95.7969 72.1885 95.8631 74.2056 95.3259C75.3724 95.0152 77.6065 94.5137 79.6109 94.6715C80.3462 94.7301 82.0773 95.1222 82.5752 95.1349C81.3292 93.8492 79.616 93.0344 77.7036 92.981C76.792 92.9555 75.9163 93.1108 75.1043 93.4087C75.1043 93.4087 72.837 93.7295 72.0812 94.7657V94.7606Z" fill="#F9FD6F"/>
<g opacity="0.5">
<path d="M87.3448 104.988C87.3448 102.938 86.2622 101.149 84.6434 100.148C84.6332 99.4758 84.5285 98.8266 84.3498 98.2104C83.9949 98.796 83.4331 99.3918 82.5599 99.6541C80.576 100.252 81.8041 101.286 81.8041 101.286C81.8041 101.286 84.4442 105.831 80.1037 108.44C78.2729 109.543 75.546 109.764 73.243 109.225C70.5008 108.58 68.2105 105.08 68.2105 105.08C68.2105 105.08 68.6496 110.039 63.6758 111.389C61.3217 112.028 58.9191 109.69 58.9191 109.69C58.9191 109.69 58.5769 109.82 57.2543 109.856C56.7845 109.869 56.3811 109.871 56.0466 109.871C56.159 110.062 56.2841 110.246 56.4398 110.411C56.9531 110.964 57.6195 111.277 58.3063 111.358C58.6459 114.172 61.0281 116.353 63.9235 116.353C66.5049 116.353 68.6777 114.622 69.362 112.254C70.5774 112.654 71.9638 112.534 73.1511 111.816C74.369 112.957 75.9776 113.675 77.7623 113.723C78.9879 113.757 80.1496 113.474 81.1735 112.947C81.6433 113.515 82.3505 113.876 83.1472 113.876C84.5668 113.876 85.7183 112.728 85.7183 111.307C85.7183 110.63 85.4553 110.016 85.0264 109.561C86.4281 108.524 87.3396 106.864 87.3396 104.985L87.3448 104.988Z" fill="#34651C"/>
<path d="M81.1607 105.833C81.1607 106.684 80.4662 107.376 79.6109 107.376C78.7555 107.376 78.061 106.684 78.061 105.833C78.061 104.983 78.7555 104.288 79.6109 104.288C80.4662 104.288 81.1607 104.98 81.1607 105.833Z" fill="#34651C"/>
<path d="M78.0049 107.376C78.0049 107.916 77.5657 108.356 77.0244 108.356C76.4831 108.356 76.0414 107.916 76.0414 107.376C76.0414 106.836 76.4805 106.396 77.0244 106.396C77.5682 106.396 78.0049 106.834 78.0049 107.376Z" fill="#34651C"/>
<path d="M62.4732 109.018C62.4732 109.561 62.0341 109.999 61.4902 109.999C60.9464 109.999 60.5072 109.561 60.5072 109.018C60.5072 108.476 60.9464 108.038 61.4902 108.038C62.0341 108.038 62.4732 108.476 62.4732 109.018Z" fill="#34651C"/>
<path d="M80.5939 103.343C80.5939 103.74 80.2722 104.064 79.8713 104.064C79.4704 104.064 79.1513 103.74 79.1513 103.343C79.1513 102.946 79.473 102.625 79.8713 102.625C80.2696 102.625 80.5939 102.949 80.5939 103.343Z" fill="#34651C"/>
<path d="M63.9184 107.284C63.9184 107.682 63.5941 108.005 63.1958 108.005C62.7975 108.005 62.4732 107.682 62.4732 107.284C62.4732 106.887 62.795 106.564 63.1958 106.564C63.5967 106.564 63.9184 106.887 63.9184 107.284Z" fill="#34651C"/>
</g>
<path d="M83.5455 110.673C83.5455 111.213 83.1063 111.651 82.5625 111.651C82.0186 111.651 81.5794 111.213 81.5794 110.673C81.5794 110.134 82.0186 109.693 82.5625 109.693C83.1063 109.693 83.5455 110.131 83.5455 110.673Z" fill="#87AD54"/>
<path d="M84.4468 109.095C84.4468 109.444 84.1634 109.724 83.8161 109.724C83.4689 109.724 83.1855 109.444 83.1855 109.095C83.1855 108.746 83.4689 108.466 83.8161 108.466C84.1634 108.466 84.4468 108.749 84.4468 109.095Z" fill="#87AD54"/>
<path opacity="0.5" d="M66.3364 91.993C66.3364 92.5328 65.8972 92.9733 65.3533 92.9733C64.8095 92.9733 64.3703 92.5353 64.3703 91.993C64.3703 91.4507 64.8095 91.0128 65.3533 91.0128C65.8972 91.0128 66.3364 91.4507 66.3364 91.993Z" fill="#F9FD6F"/>
<path opacity="0.5" d="M63.7167 102.623C63.7167 103.506 62.9967 104.222 62.1132 104.222C61.2298 104.222 60.5098 103.506 60.5098 102.623C60.5098 101.739 61.2272 101.024 62.1132 101.024C62.9992 101.024 63.7167 101.739 63.7167 102.623Z" fill="#F9FD6F"/>
<path opacity="0.5" d="M66.8674 90.2134C66.8674 90.468 66.6606 90.6742 66.4053 90.6742C66.15 90.6742 65.9431 90.468 65.9431 90.2134C65.9431 89.9588 66.15 89.7526 66.4053 89.7526C66.6606 89.7526 66.8674 89.9588 66.8674 90.2134Z" fill="#F9FD6F"/>
<path opacity="0.5" d="M71.9485 96.3977C71.9485 96.6523 71.7416 96.8585 71.4863 96.8585C71.231 96.8585 71.0242 96.6523 71.0242 96.3977C71.0242 96.1431 71.231 95.9343 71.4863 95.9343C71.7416 95.9343 71.9485 96.1406 71.9485 96.3977Z" fill="#F9FD6F"/>
<path opacity="0.5" d="M70.3093 117.825V117.135L69.962 117.224C69.8241 119.08 69.768 121.978 69.6939 122.553C69.5331 123.785 69.2879 125.209 69.0377 126.286H69.8471L70.3093 123.668V117.828V117.825Z" fill="#A86F41"/>
<g style="mix-blend-mode:multiply">
<path d="M7.31726 127.072C11.1217 127.78 49.7732 132.64 61.8809 133.72C79.8585 135.321 106.147 129.636 116.414 127.362C126.678 125.086 119.291 124.478 112.816 123.523C106.344 122.571 57.6935 122.044 57.6935 122.044C57.6935 122.044 4.27886 123.067 3.09414 124.384C1.90686 125.7 3.51798 126.364 7.31726 127.07V127.072Z" fill="#E7EBEE"/>
</g>
<g style="mix-blend-mode:multiply">
<path d="M8.98455 124.967C13.2256 125.804 41.1329 129.911 51.8337 130.973C62.5371 132.034 91.5015 128.717 100.596 127.037C109.691 125.356 103.622 124.58 97.4813 123.793C91.5245 123.029 52.9572 122.097 52.9572 122.097C52.9572 122.097 1.7077 121.29 0.64298 122.357C-0.424292 123.424 4.741 124.129 8.9871 124.967H8.98455Z" fill="#E7EBEE"/>
</g>
</g>
<defs>
<linearGradient id="paint0_linear_2_324" x1="95.0522" y1="90.5816" x2="96.2681" y2="87.9123" gradientUnits="userSpaceOnUse">
<stop stop-color="#505B64"/>
<stop offset="0.3" stop-color="#4D5861"/>
<stop offset="0.53" stop-color="#454F57"/>
<stop offset="0.73" stop-color="#384047"/>
<stop offset="0.91" stop-color="#252C31"/>
<stop offset="1" stop-color="#1A1F23"/>
</linearGradient>
<linearGradient id="paint1_linear_2_324" x1="37.2925" y1="37.9789" x2="40.3847" y2="31.186" gradientUnits="userSpaceOnUse">
<stop stop-color="#505B64"/>
<stop offset="0.3" stop-color="#4D5861"/>
<stop offset="0.53" stop-color="#454F57"/>
<stop offset="0.73" stop-color="#384047"/>
<stop offset="0.91" stop-color="#252C31"/>
<stop offset="1" stop-color="#1A1F23"/>
</linearGradient>
<linearGradient id="paint2_linear_2_324" x1="72.8442" y1="67.7508" x2="74.8712" y2="63.2917" gradientUnits="userSpaceOnUse">
<stop stop-color="#505B64"/>
<stop offset="0.3" stop-color="#4D5861"/>
<stop offset="0.53" stop-color="#454F57"/>
<stop offset="0.73" stop-color="#384047"/>
<stop offset="0.91" stop-color="#252C31"/>
<stop offset="1" stop-color="#1A1F23"/>
</linearGradient>
<clipPath id="clip0_2_324">
<rect width="121" height="134" fill="white" transform="translate(0.5)"/>
</clipPath>
</defs>
</svg>
