<svg width="32" height="32" viewBox="0 0 32 32" fill="none" xmlns="http://www.w3.org/2000/svg">
<path d="M16 8.25C15.0605 8.25 14.1422 8.52858 13.361 9.05052C12.5799 9.57246 11.9711 10.3143 11.6116 11.1823C11.2521 12.0502 11.158 13.0053 11.3413 13.9267C11.5245 14.8481 11.9769 15.6945 12.6412 16.3588C13.3055 17.0231 14.1519 17.4754 15.0733 17.6587C15.9947 17.842 16.9498 17.7479 17.8177 17.3884C18.6857 17.0289 19.4275 16.4201 19.9495 15.639C20.4714 14.8578 20.75 13.9395 20.75 13C20.75 11.7402 20.2496 10.532 19.3588 9.64124C18.468 8.75045 17.2598 8.25 16 8.25ZM16 2.25C13.1499 2.25331 10.4176 3.38696 8.40226 5.40226C6.38696 7.41756 5.25331 10.1499 5.25 13C5.25 16.8638 7.0425 20.9675 10.4338 24.8675C11.9644 26.6364 13.6871 28.2295 15.57 29.6175C15.696 29.7057 15.8462 29.753 16 29.753C16.1538 29.753 16.304 29.7057 16.43 29.6175C18.3129 28.2295 20.0356 26.6364 21.5662 24.8675C24.9575 20.9675 26.75 16.8675 26.75 13C26.7467 10.1499 25.613 7.41756 23.5977 5.40226C21.5824 3.38696 18.8501 2.25331 16 2.25ZM16 28.0637C14.125 26.6162 6.75 20.4525 6.75 13C6.75 10.5467 7.72455 8.19397 9.45926 6.45926C11.194 4.72455 13.5467 3.75 16 3.75C18.4533 3.75 20.806 4.72455 22.5407 6.45926C24.2754 8.19397 25.25 10.5467 25.25 13C25.25 20.4525 17.875 26.6162 16 28.0637Z" fill="white"/>
<path d="M15.9 8C14.9309 8 13.9835 8.29031 13.1777 8.83422C12.3719 9.37814 11.7439 10.1512 11.373 11.0557C11.0021 11.9602 10.9051 12.9555 11.0942 13.9157C11.2832 14.8759 11.7499 15.7579 12.4352 16.4502C13.1205 17.1424 13.9936 17.6139 14.9441 17.8049C15.8946 17.9959 16.8798 17.8979 17.7752 17.5232C18.6705 17.1485 19.4358 16.5141 19.9742 15.7001C20.5126 14.886 20.8 13.929 20.8 12.95C20.8 11.6372 20.2838 10.3781 19.3648 9.44982C18.4459 8.52152 17.1996 8 15.9 8Z" fill="#1764A6"/>
</svg>
