<svg width="128" height="128" viewBox="0 0 128 128" fill="none" xmlns="http://www.w3.org/2000/svg">
<path fill-rule="evenodd" clip-rule="evenodd" d="M62.3397 33.031C62.8014 33.0104 63.2658 33 63.7325 33C64.1993 33 64.6636 33.0104 65.1253 33.031C65.4012 33.0433 65.6149 33.2769 65.6026 33.5528C65.5903 33.8287 65.3566 34.0423 65.0808 34.03C64.6339 34.0101 64.1844 34 63.7325 34C63.2806 34 62.8312 34.0101 62.3843 34.03C62.1084 34.0423 61.8748 33.8287 61.8625 33.5528C61.8502 33.2769 62.0638 33.0433 62.3397 33.031ZM73.5578 35.128C73.6518 34.8684 73.9385 34.7341 74.1982 34.8281C75.075 35.1457 75.9332 35.5019 76.7708 35.8949C77.0208 36.0122 77.1283 36.3099 77.011 36.5599C76.8938 36.8099 76.596 36.9175 76.346 36.8002C75.5358 36.4201 74.7057 36.0755 73.8577 35.7684C73.598 35.6743 73.4638 35.3876 73.5578 35.128ZM53.9072 35.128C54.0013 35.3876 53.867 35.6743 53.6074 35.7684C52.7593 36.0755 51.9292 36.4201 51.119 36.8002C50.869 36.9175 50.5713 36.8099 50.454 36.5599C50.3367 36.3099 50.4443 36.0122 50.6943 35.8949C51.5318 35.5019 52.3901 35.1457 53.2669 34.8281C53.5265 34.7341 53.8132 34.8684 53.9072 35.128ZM83.7508 41.071C83.937 40.8671 84.2533 40.8529 84.4572 41.0392C85.1426 41.6655 85.7996 42.3224 86.4259 43.0079C86.6122 43.2117 86.5979 43.528 86.3941 43.7143C86.1902 43.9005 85.8739 43.8863 85.6877 43.6824C85.0816 43.0192 84.4459 42.3834 83.7826 41.7774C83.5788 41.5911 83.5645 41.2748 83.7508 41.071ZM43.7143 41.071C43.9005 41.2748 43.8863 41.5911 43.6824 41.7774C43.0192 42.3834 42.3834 43.0192 41.7774 43.6824C41.5911 43.8863 41.2748 43.9005 41.071 43.7143C40.8671 43.528 40.8529 43.2117 41.0392 43.0079C41.6655 42.3224 42.3224 41.6655 43.0079 41.0392C43.2117 40.8529 43.528 40.8671 43.7143 41.071ZM90.9051 50.454C91.1551 50.3367 91.4529 50.4443 91.5701 50.6943C91.9631 51.5318 92.3194 52.3901 92.6369 53.2669C92.7309 53.5265 92.5967 53.8132 92.3371 53.9072C92.0774 54.0013 91.7907 53.867 91.6967 53.6074C91.3896 52.7593 91.0449 51.9292 90.6648 51.119C90.5475 50.869 90.6551 50.5713 90.9051 50.454ZM36.5599 50.454C36.8099 50.5713 36.9175 50.869 36.8002 51.119C36.4201 51.9292 36.0755 52.7593 35.7684 53.6074C35.6743 53.867 35.3876 54.0013 35.128 53.9072C34.8684 53.8132 34.7341 53.5265 34.8281 53.2669C35.1457 52.3901 35.5019 51.5319 35.8949 50.6943C36.0122 50.4443 36.3099 50.3367 36.5599 50.454ZM93.9122 61.8625C94.1881 61.8502 94.4217 62.0638 94.434 62.3397C94.4546 62.8014 94.465 63.2658 94.465 63.7325C94.465 64.1993 94.4546 64.6636 94.434 65.1253C94.4217 65.4012 94.1881 65.6149 93.9122 65.6026C93.6364 65.5903 93.4227 65.3566 93.435 65.0808C93.455 64.6339 93.465 64.1844 93.465 63.7325C93.465 63.2806 93.455 62.8312 93.435 62.3843C93.4227 62.1084 93.6364 61.8748 93.9122 61.8625ZM33.5528 61.8625C33.8287 61.8748 34.0423 62.1084 34.03 62.3843C34.0101 62.8312 34 63.2806 34 63.7325C34 64.1844 34.0101 64.6339 34.03 65.0808C34.0423 65.3566 33.8287 65.5903 33.5528 65.6026C33.2769 65.6149 33.0433 65.4012 33.031 65.1253C33.0104 64.6636 33 64.1993 33 63.7325C33 63.2658 33.0104 62.8014 33.031 62.3397C33.0433 62.0638 33.2769 61.8502 33.5528 61.8625ZM92.3371 73.5578C92.5967 73.6518 92.7309 73.9385 92.6369 74.1982C92.3194 75.075 91.9631 75.9332 91.5701 76.7708C91.4529 77.0208 91.1551 77.1283 90.9051 77.011C90.6551 76.8938 90.5475 76.596 90.6648 76.346C91.0449 75.5358 91.3896 74.7057 91.6967 73.8577C91.7907 73.598 92.0774 73.4638 92.3371 73.5578ZM35.128 73.5578C35.3876 73.4638 35.6743 73.598 35.7684 73.8577C36.0755 74.7057 36.4201 75.5358 36.8002 76.346C36.9175 76.596 36.8099 76.8938 36.5599 77.011C36.3099 77.1283 36.0122 77.0208 35.8949 76.7708C35.5019 75.9332 35.1457 75.075 34.8281 74.1982C34.7341 73.9385 34.8684 73.6518 35.128 73.5578ZM86.3941 83.7508C86.5979 83.937 86.6122 84.2533 86.4259 84.4572C85.7996 85.1426 85.1426 85.7996 84.4572 86.4259C84.2533 86.6122 83.937 86.5979 83.7508 86.3941C83.5645 86.1902 83.5788 85.8739 83.7826 85.6877C84.4459 85.0816 85.0816 84.4459 85.6877 83.7826C85.8739 83.5788 86.1902 83.5645 86.3941 83.7508ZM41.071 83.7508C41.2748 83.5645 41.5911 83.5788 41.7774 83.7826C42.3834 84.4459 43.0192 85.0816 43.6824 85.6877C43.8863 85.8739 43.9005 86.1902 43.7143 86.3941C43.528 86.5979 43.2117 86.6122 43.0079 86.4259C42.3224 85.7996 41.6655 85.1426 41.0392 84.4572C40.8529 84.2533 40.8671 83.937 41.071 83.7508ZM77.011 90.9051C77.1283 91.1551 77.0208 91.4529 76.7708 91.5701C75.9332 91.9631 75.075 92.3194 74.1982 92.6369C73.9385 92.7309 73.6518 92.5967 73.5578 92.3371C73.4638 92.0774 73.598 91.7907 73.8577 91.6967C74.7057 91.3896 75.5358 91.0449 76.346 90.6648C76.596 90.5475 76.8938 90.6551 77.011 90.9051ZM50.454 90.9051C50.5713 90.6551 50.869 90.5475 51.119 90.6648C51.9292 91.0449 52.7593 91.3896 53.6074 91.6967C53.867 91.7907 54.0013 92.0774 53.9072 92.3371C53.8132 92.5967 53.5265 92.7309 53.2669 92.6369C52.3901 92.3194 51.5319 91.9631 50.6943 91.5701C50.4443 91.4529 50.3367 91.1551 50.454 90.9051ZM61.8625 93.9122C61.8748 93.6364 62.1084 93.4227 62.3843 93.435C62.8312 93.455 63.2806 93.465 63.7325 93.465C64.1844 93.465 64.6339 93.455 65.0808 93.435C65.3566 93.4227 65.5903 93.6364 65.6026 93.9122C65.6149 94.1881 65.4012 94.4217 65.1253 94.434C64.6636 94.4546 64.1993 94.465 63.7325 94.465C63.2658 94.465 62.8014 94.4546 62.3397 94.434C62.0638 94.4217 61.8502 94.1881 61.8625 93.9122Z" fill="white"/>
<path fill-rule="evenodd" clip-rule="evenodd" d="M58.2842 0.230498C60.0836 0.0778657 61.9043 0 63.743 0C65.5817 0 67.4023 0.0778659 69.2018 0.230498C69.4769 0.253837 69.6811 0.495814 69.6577 0.770968C69.6344 1.04612 69.3924 1.25026 69.1173 1.22692C67.3459 1.07667 65.5535 1 63.743 1C61.9325 1 60.1401 1.07667 58.3687 1.22692C58.0935 1.25026 57.8516 1.04612 57.8282 0.770968C57.8049 0.495813 58.009 0.253837 58.2842 0.230498ZM77.5867 2.01777C77.649 1.74875 77.9177 1.58119 78.1867 1.64352C81.7704 2.47377 85.2384 3.60624 88.5622 5.01261C88.8166 5.12021 88.9355 5.4136 88.8279 5.66792C88.7203 5.92223 88.4269 6.04116 88.1726 5.93356C84.9012 4.5494 81.4881 3.43484 77.961 2.61772C77.692 2.55539 77.5244 2.28679 77.5867 2.01777ZM49.8992 2.01777C49.9615 2.28679 49.794 2.55539 49.525 2.61772C45.9979 3.43484 42.5847 4.5494 39.3134 5.93356C39.0591 6.04116 38.7657 5.92223 38.6581 5.66792C38.5505 5.4136 38.6694 5.12021 38.9237 5.01261C42.2476 3.60624 45.7155 2.47377 49.2993 1.64352C49.5683 1.58119 49.8369 1.74875 49.8992 2.01777ZM95.9775 9.31772C96.1203 9.08138 96.4277 9.00556 96.664 9.14838C99.7903 11.0376 102.741 13.1876 105.486 15.5684C105.695 15.7493 105.717 16.0651 105.536 16.2737C105.356 16.4824 105.04 16.5048 104.831 16.3239C102.129 13.9802 99.224 11.8638 96.1468 10.0043C95.9105 9.86143 95.8347 9.55406 95.9775 9.31772ZM31.5084 9.31773C31.6513 9.55407 31.5755 9.86144 31.3391 10.0043C28.2619 11.8638 25.3572 13.9802 22.6548 16.3239C22.4462 16.5048 22.1304 16.4824 21.9495 16.2737C21.7686 16.0651 21.791 15.7493 21.9997 15.5684C24.7449 13.1876 27.6957 11.0376 30.8219 9.14839C31.0583 9.00557 31.3656 9.08138 31.5084 9.31773ZM111.212 21.9495C111.421 21.7686 111.737 21.791 111.918 21.9997C114.298 24.7449 116.448 27.6957 118.338 30.8219C118.48 31.0583 118.405 31.3656 118.168 31.5084C117.932 31.6513 117.625 31.5755 117.482 31.3391C115.622 28.2619 113.506 25.3572 111.162 22.6548C110.981 22.4462 111.004 22.1304 111.212 21.9495ZM16.2737 21.9495C16.4824 22.1304 16.5048 22.4462 16.3239 22.6548C13.9802 25.3572 11.8638 28.2619 10.0043 31.3391C9.86143 31.5755 9.55406 31.6513 9.31772 31.5085C9.08138 31.3656 9.00556 31.0583 9.14838 30.8219C11.0376 27.6957 13.1876 24.7449 15.5684 21.9997C15.7493 21.791 16.0651 21.7686 16.2737 21.9495ZM5.66792 38.6581C5.92223 38.7657 6.04116 39.0591 5.93356 39.3134C4.5494 42.5847 3.43484 45.9979 2.61772 49.525C2.55539 49.794 2.28679 49.9615 2.01777 49.8992C1.74875 49.8369 1.58119 49.5683 1.64352 49.2993C2.47377 45.7155 3.60624 42.2476 5.01261 38.9237C5.12021 38.6694 5.4136 38.5505 5.66792 38.6581ZM121.818 38.6581C122.072 38.5505 122.366 38.6694 122.473 38.9237C123.88 42.2476 125.012 45.7155 125.842 49.2993C125.905 49.5683 125.737 49.8369 125.468 49.8992C125.199 49.9615 124.931 49.794 124.868 49.525C124.051 45.9979 122.937 42.5847 121.552 39.3134C121.445 39.0591 121.564 38.7657 121.818 38.6581ZM0.770968 57.8282C1.04612 57.8516 1.25026 58.0935 1.22692 58.3687C1.07667 60.1401 1 61.9325 1 63.743C1 65.5535 1.07667 67.3459 1.22692 69.1173C1.25026 69.3924 1.04612 69.6344 0.770968 69.6577C0.495813 69.6811 0.253837 69.4769 0.230498 69.2018C0.0778657 67.4023 0 65.5817 0 63.743C0 61.9043 0.0778659 60.0836 0.230498 58.2842C0.253837 58.009 0.495814 57.8049 0.770968 57.8282ZM126.715 57.8282C126.99 57.8049 127.232 58.009 127.255 58.2842C127.408 60.0836 127.486 61.9043 127.486 63.743C127.486 65.5817 127.408 67.4023 127.255 69.2018C127.232 69.4769 126.99 69.6811 126.715 69.6577C126.44 69.6344 126.236 69.3924 126.259 69.1173C126.409 67.3459 126.486 65.5535 126.486 63.743C126.486 61.9325 126.409 60.1401 126.259 58.3687C126.236 58.0935 126.44 57.8516 126.715 57.8282ZM2.01777 77.5867C2.28679 77.5244 2.55539 77.692 2.61772 77.961C3.43484 81.4881 4.5494 84.9012 5.93356 88.1726C6.04116 88.4269 5.92223 88.7203 5.66792 88.8279C5.4136 88.9355 5.12021 88.8166 5.01261 88.5622C3.60624 85.2384 2.47377 81.7704 1.64352 78.1867C1.58119 77.9177 1.74875 77.6491 2.01777 77.5867ZM125.468 77.5867C125.737 77.649 125.905 77.9177 125.842 78.1867C125.012 81.7704 123.88 85.2384 122.473 88.5622C122.366 88.8166 122.072 88.9355 121.818 88.8279C121.564 88.7203 121.445 88.4269 121.552 88.1726C122.937 84.9012 124.051 81.4881 124.868 77.961C124.931 77.692 125.199 77.5244 125.468 77.5867ZM118.168 95.9775C118.405 96.1203 118.48 96.4277 118.338 96.664C116.448 99.7903 114.298 102.741 111.918 105.486C111.737 105.695 111.421 105.717 111.212 105.536C111.004 105.356 110.981 105.04 111.162 104.831C113.506 102.129 115.622 99.224 117.482 96.1468C117.625 95.9105 117.932 95.8347 118.168 95.9775ZM9.31773 95.9775C9.55407 95.8347 9.86144 95.9105 10.0043 96.1468C11.8638 99.2241 13.9802 102.129 16.3239 104.831C16.5048 105.04 16.4824 105.356 16.2737 105.536C16.0651 105.717 15.7493 105.695 15.5684 105.486C13.1876 102.741 11.0376 99.7903 9.14839 96.664C9.00557 96.4277 9.08138 96.1203 9.31773 95.9775ZM105.536 111.212C105.717 111.421 105.695 111.737 105.486 111.918C102.741 114.298 99.7903 116.448 96.664 118.338C96.4277 118.48 96.1203 118.405 95.9775 118.168C95.8347 117.932 95.9105 117.625 96.1468 117.482C99.2241 115.622 102.129 113.506 104.831 111.162C105.04 110.981 105.356 111.004 105.536 111.212ZM21.9495 111.212C22.1304 111.004 22.4462 110.981 22.6548 111.162C25.3572 113.506 28.2619 115.622 31.3391 117.482C31.5755 117.625 31.6513 117.932 31.5085 118.168C31.3656 118.405 31.0583 118.48 30.8219 118.338C27.6957 116.448 24.7449 114.298 21.9997 111.918C21.791 111.737 21.7686 111.421 21.9495 111.212ZM38.6581 121.818C38.7657 121.564 39.0591 121.445 39.3134 121.552C42.5847 122.937 45.9979 124.051 49.525 124.868C49.794 124.931 49.9615 125.199 49.8992 125.468C49.8369 125.737 49.5683 125.905 49.2993 125.842C45.7155 125.012 42.2476 123.88 38.9237 122.473C38.6694 122.366 38.5505 122.072 38.6581 121.818ZM88.8279 121.818C88.9355 122.072 88.8166 122.366 88.5622 122.473C85.2384 123.88 81.7704 125.012 78.1867 125.842C77.9177 125.905 77.6491 125.737 77.5867 125.468C77.5244 125.199 77.692 124.931 77.961 124.868C81.4881 124.051 84.9012 122.937 88.1726 121.552C88.4269 121.445 88.7203 121.564 88.8279 121.818ZM57.8282 126.715C57.8516 126.44 58.0935 126.236 58.3687 126.259C60.1401 126.409 61.9325 126.486 63.743 126.486C65.5535 126.486 67.3459 126.409 69.1173 126.259C69.3924 126.236 69.6344 126.44 69.6577 126.715C69.6811 126.99 69.4769 127.232 69.2018 127.255C67.4023 127.408 65.5817 127.486 63.743 127.486C61.9043 127.486 60.0836 127.408 58.2842 127.255C58.009 127.232 57.8049 126.99 57.8282 126.715Z" fill="white" fill-opacity="0.3"/>
</svg>
